<svg xmlns="http://www.w3.org/2000/svg" viewBox="0 0 77.74 77.74"><defs><style>.cls-1{fill:#afafaf;}.cls-2{fill:#395196;}.cls-3{fill:#fff;}</style></defs><g id="Layer_2" data-name="Layer 2"><g id="Layer_2-2" data-name="Layer 2"><path class="cls-1" d="M77.74,38.86A38.87,38.87,0,1,0,38.87,77.74,38.86,38.86,0,0,0,77.74,38.86Z"/><path class="cls-2" d="M77.74,38.86A38.87,38.87,0,1,0,38.87,77.74,38.86,38.86,0,0,0,77.74,38.86Z"/><path class="cls-3" d="M42.29,29.66V26a2,2,0,0,1,2-2.21h5.16V15.88l-7.11,0c-7.9,0-9.69,5.88-9.69,9.65v4.16H28.12v9.21h4.61v23h9.21v-23h6.83l.84-9.21Z"/></g></g></svg>