<svg xmlns="http://www.w3.org/2000/svg" viewBox="0 0 100.22 70.16"><defs><style>.cls-1{opacity:0.4;}.cls-2{fill:#d1c0b2;}.cls-3{fill:#d7735b;}.cls-4{fill:#8f3215;}.cls-5{fill:#272737;}.cls-6{fill:#5f5f77;}.cls-7{fill:#fff;}.cls-8{fill:#ef3d1b;}.cls-9{fill:#88001c;}.cls-10{fill:#6359cc;}.cls-11{fill:#fdc864;}.cls-12{fill:#ffe6b8;}.cls-13{fill:#db9437;}.cls-14{opacity:0.5;}.cls-15{fill:#ffa48d;}.cls-16{fill:#047c6c;}.cls-17{fill:#0ea78c;}.cls-18{fill:#053d3a;}.cls-19{fill:#cc665d;}.cls-20{fill:#6e454a;}.cls-21{fill:#3d2027;}.cls-22{fill:#9f9ffd;}.cls-23{fill:#341e82;}.cls-24{fill:#a67e84;}.cls-25{fill:#f4eae0;}.cls-26{fill:#808099;}</style></defs><g id="Layer_2" data-name="Layer 2"><g id="Layer_2-2" data-name="Layer 2"><g class="cls-1"><path class="cls-2" d="M32.87,55.84A20.2,20.2,0,0,1,22.8,51.29c-3.69-3.14-7-8.26-4.46-15.87C23.16,21,45,18.6,55,21.93c15.82,5.29,23.07,26.69,1.32,33.63C50.91,57.28,38.76,56.73,32.87,55.84Z"/></g><g class="cls-1"><path class="cls-2" d="M77.16,22.45c-2.84-2.68-7.68-3.11-10.16,0a5.72,5.72,0,0,0-.9,5c1.35,3.83,7.84,9.8,12.6,5.49C81.78,30.19,80.29,25.4,77.16,22.45Z"/></g><g class="cls-1"><path class="cls-2" d="M76.87,54.08a6.27,6.27,0,0,0-.94-8.66c-.92-.76-2.66-.36-3.68.12C69.07,47,64.18,52.83,68,56.84,71.13,60.08,74.6,57,76.87,54.08Z"/></g><path class="cls-2" d="M100.22,69.11c0,.58-22.43,1-50.11,1S0,69.69,0,69.11s22.44-1,50.11-1S100.22,68.53,100.22,69.11Z"/><path class="cls-2" d="M27,68.5s-3.06-2.2-2.1-3,2.64,2.61,2.64,2.61-.44-2.14.43-1.93.43,2.31.43,2.31Z"/><path class="cls-2" d="M77.79,68.85s3.06-2.21,2.1-3-2.63,2.6-2.63,2.6.43-2.14-.43-1.92-.44,2.31-.44,2.31Z"/><path class="cls-3" d="M30.86,23.09l.12.17.12.18.25.35c.16.24.33.47.5.7l.51.69.53.67q.27.33.54.63a7.64,7.64,0,0,0,.55.58,4.7,4.7,0,0,0,.51.45l.17.11h-.13l-.12,0-.09,0,0,0s0,0,0,0a.49.49,0,0,0,.15-.13l.2-.25.21-.31c.14-.22.27-.45.4-.7s.25-.5.37-.76c.24-.51.46-1.05.67-1.59.11-.27.21-.54.31-.82l.15-.41.08-.2.07-.2v0a.84.84,0,0,1,1.62.44l0,.23-.05.23c0,.15-.06.3-.1.45s-.14.59-.22.89c-.15.59-.32,1.18-.52,1.78-.1.29-.21.59-.33.89s-.25.6-.4.9c-.08.15-.16.31-.25.46a4.45,4.45,0,0,1-.32.48,3.53,3.53,0,0,1-.47.51,3.3,3.3,0,0,1-.37.26l-.24.12a2.13,2.13,0,0,1-.3.09,2,2,0,0,1-.35,0H34.2L34,30l-.21-.06a3.57,3.57,0,0,1-.62-.31,5,5,0,0,1-.48-.33,4.54,4.54,0,0,1-.41-.33c-.26-.22-.5-.45-.73-.67s-.45-.46-.66-.7c-.43-.47-.83-.94-1.21-1.43l-.57-.73c-.09-.12-.18-.25-.28-.37l-.13-.19-.14-.2a1.41,1.41,0,1,1,2.3-1.63l0,0Z"/><path class="cls-4" d="M34.38,27.5a1.63,1.63,0,0,0-.31.77c0,.07.11.07.12,0a1.43,1.43,0,0,1,.29-.72c0-.06-.06-.11-.1-.05Z"/><path class="cls-4" d="M34.24,27.68l-.4.18c-.07,0,0,.12.06.09l.39-.17c.07,0,0-.13,0-.1Z"/><path class="cls-3" d="M39.08,21.62s-.18,1.26-.79,1.53-1.46-.53-1.46-.53a2.1,2.1,0,0,1-.6-1.11c-.13-.47.58-1,.58-1s.48-1.9.77-2.06,0,1.67,0,1.67a.33.33,0,0,1,.29-.08,2.91,2.91,0,0,1,1.15.66C39.31,20.93,39.08,21.62,39.08,21.62Z"/><path class="cls-4" d="M36.52,21.71a2.41,2.41,0,0,0,1-.69c.09-.13.14-.33,0-.44s-.29-.08-.43-.08a.06.06,0,1,0,0,.12c.11,0,.33-.05.39.09s0,.25-.12.33l-.19.16a5.41,5.41,0,0,1-.74.42c-.06,0,0,.12.06.09Z"/><path class="cls-4" d="M37.54,20.91a3,3,0,0,0,1.43.63c.07,0,.1-.1,0-.11a2.91,2.91,0,0,1-1.38-.6c-.06,0-.14,0-.08.08Z"/><path class="cls-4" d="M37.93,21.44a1.31,1.31,0,0,0-.19,1.25c0,.07.14,0,.11,0A1.21,1.21,0,0,1,38,21.5c0-.06-.05-.11-.1-.06Z"/><path class="cls-4" d="M37.85,21a2.62,2.62,0,0,1,.33-.83c0-.06,0-.11-.1-.06a2.37,2.37,0,0,0-.33.86c0,.07.09.1.1,0Z"/><path class="cls-4" d="M38.27,21.28a3.13,3.13,0,0,1,.33-.85c0-.06-.06-.12-.1-.06a3.12,3.12,0,0,0-.33.88c0,.07.09.1.1,0Z"/><path class="cls-4" d="M38.69,21.35v0l.11,0a1.49,1.49,0,0,1,.26-.67c0-.06,0-.12-.1-.06a1.63,1.63,0,0,0-.27.7.06.06,0,0,0,.11,0v0c0-.06-.09-.09-.11,0Z"/><path class="cls-4" d="M37.53,20.15a1.34,1.34,0,0,0-.09.45.06.06,0,0,0,.11,0,1.17,1.17,0,0,1,.09-.42c0-.07-.08-.1-.11,0Z"/><path class="cls-3" d="M20.38,62.58l-.52,1.81a1.74,1.74,0,0,0,1.87.25l.63-1.74Z"/><path class="cls-5" d="M18.72,66.18l.25.43.08.14,1.12,2a.91.91,0,0,0,.81.46c.61,0,1.59,0,2.34,0a.23.23,0,0,0,.26-.24,2.27,2.27,0,0,0-.95-1.41,8.27,8.27,0,0,1-.4-2.68c.36-.87-.17-.91-.7-.65-.27.14-.34.34-.53.34a3.82,3.82,0,0,1-1-.31s-.25-.34-.33,0a2.74,2.74,0,0,1-.14.35,2.56,2.56,0,0,1-.11.24c-.19.39-.44.87-.58,1.14Z"/><path class="cls-6" d="M19,66.61l.08.14a1.6,1.6,0,0,0,.6-1.46,4.31,4.31,0,0,0-.12-.72,2.56,2.56,0,0,1-.11.24,3.65,3.65,0,0,1,.06.49A1.44,1.44,0,0,1,19,66.61Z"/><path class="cls-6" d="M18.72,66.18l1.45,2.54a.91.91,0,0,0,.81.46c.61,0,1.59,0,2.34,0a.23.23,0,0,0,.26-.24H21a.75.75,0,0,1-.66-.39L18.84,66Z"/><path class="cls-7" d="M21.55,65.53a.13.13,0,0,1-.12-.12.11.11,0,0,1,.14-.11h.56a.17.17,0,0,1,.15.13.13.13,0,0,1-.14.12l-.56,0Z"/><path class="cls-7" d="M21.94,67.35a.13.13,0,0,1-.11-.12c0-.07.05-.12.13-.11h.56c.08,0,.15.06.15.13s-.06.12-.13.12l-.56,0Z"/><path class="cls-7" d="M21.81,66.86a.13.13,0,0,1-.11-.12.11.11,0,0,1,.13-.11l.56,0a.14.14,0,0,1,.15.12c0,.07-.06.12-.13.12l-.56,0Z"/><path class="cls-7" d="M21.72,66.42a.13.13,0,0,1-.11-.12.12.12,0,0,1,.14-.11l.55,0a.14.14,0,0,1,.15.12c0,.07-.05.12-.13.12l-.56,0Z"/><path class="cls-7" d="M21.64,66a.13.13,0,0,1-.12-.12.11.11,0,0,1,.14-.11h.56a.15.15,0,0,1,.14.13c0,.07-.05.12-.13.12l-.56,0Z"/><path class="cls-8" d="M24.8,32.48a6.2,6.2,0,0,0-3.24,4.82c-.52,3.61-1.7,5-.9,6.65s6.4-.28,11.07-.21,3.64-3.48,2.75-4.93-1.8-5.63-3.24-5.75Z"/><path class="cls-9" d="M23.83,33.8a2.68,2.68,0,0,0-1.32,1.74,8.31,8.31,0,0,0-.06,2.9,7.67,7.67,0,0,1-.39,3.19c-.23.62-.72,1.68.2,2a1.84,1.84,0,0,0,1.26-.15A12.52,12.52,0,0,1,25,43a11.54,11.54,0,0,1,3.21-.29c1.8.1,4.11.57,5.5-.93a2.27,2.27,0,0,0,.52-2.42c-.35-.83-1.16-1.42-1.36-2.34,0-.07-.12,0-.11,0A6,6,0,0,0,33.87,39a2,2,0,0,1,.1,2.29c-1,1.75-3.33,1.56-5,1.42a13.29,13.29,0,0,0-2.89,0,11,11,0,0,0-1.41.29c-.47.12-.92.3-1.37.46s-1,.23-1.3-.2-.07-.88.08-1.26a7.38,7.38,0,0,0,.56-2.71,21.43,21.43,0,0,1-.07-3.3,2.76,2.76,0,0,1,1.37-2.1c.06,0,0-.13-.06-.1Z"/><polygon class="cls-3" points="32.11 63.8 32.26 66.36 34.19 66.37 34.36 63.77 32.11 63.8"/><path class="cls-5" d="M38.74,69.18H31.85a1,1,0,0,1-.09-.38A10.63,10.63,0,0,1,32,66.7l0-.2c0-.09,0-.17,0-.23a.36.36,0,0,1,.43-.4c.69.68,1.48-.34,1.94,0,0,0,.2.14.75.63a8.63,8.63,0,0,0,2.27,1.15c1,.43,1.31.86,1.37,1.15A.55.55,0,0,1,38.74,69.18Z"/><path class="cls-6" d="M38.74,69.18H31.85a1,1,0,0,1-.09-.38h7A.55.55,0,0,1,38.74,69.18Z"/><path class="cls-6" d="M32.55,69.18h-.2a1.54,1.54,0,0,0,.37-1.1A1.91,1.91,0,0,0,32,66.7l0-.2a2.12,2.12,0,0,1,.86,1.57A1.65,1.65,0,0,1,32.55,69.18Z"/><path class="cls-7" d="M35,66.91a.12.12,0,0,1-.11-.09.12.12,0,0,1,.09-.14l.43-.1a.1.1,0,0,1,.13.08.11.11,0,0,1-.08.14l-.43.1Z"/><path class="cls-7" d="M34.65,66.54a.12.12,0,0,1-.11-.09.11.11,0,0,1,.08-.14l.43-.11a.13.13,0,0,1,.14.09.12.12,0,0,1-.09.14l-.43.1Z"/><path class="cls-7" d="M35.47,67.16a.13.13,0,0,1-.11-.09.12.12,0,0,1,.09-.14l.43-.1a.1.1,0,0,1,.13.08.11.11,0,0,1-.08.14l-.43.1Z"/><path class="cls-7" d="M35.9,67.4a.13.13,0,0,1-.11-.09.13.13,0,0,1,.09-.14l.43-.1a.1.1,0,0,1,.13.08.11.11,0,0,1-.08.14l-.43.11Z"/><path class="cls-7" d="M36.37,67.62a.11.11,0,0,1-.11-.08.11.11,0,0,1,.09-.14l.43-.11a.11.11,0,0,1,0,.22l-.43.11Z"/><path class="cls-7" d="M36.88,67.81a.11.11,0,0,1-.11-.08.11.11,0,0,1,.08-.14l.43-.11a.11.11,0,0,1,.14.08.11.11,0,0,1-.08.14l-.43.11Z"/><path class="cls-10" d="M29.3,39.34l-.35.08a9.86,9.86,0,0,1-4.19.22c-.54-.13-.89-.79-1.11-1.54a3.32,3.32,0,0,1-.16-.62,5.65,5.65,0,0,1,.38-2.95L32,33.62s.27.5.57,1.15a13.39,13.39,0,0,1,.61,1.52h0a4.06,4.06,0,0,1,.18.8C33.42,37.83,31.49,38.79,29.3,39.34Z"/><path class="cls-10" d="M28.94,40.17a78.28,78.28,0,0,1-1.56,10.1l0,.17c0,.1-.05.19-.07.27C26.79,52.59,24.32,59,23,62.33l-.05.14-.24.68L21.9,63c-.68-.1-1.31-.18-2-.24,0-.14,0-.51.06-.65L20,62c.25-1.6.63-4.05,1-6.25a24.78,24.78,0,0,1,1.47-5.61,8.08,8.08,0,0,0,.65-2.92c.18-1.78.69-7.48.82-9.4,0-.38,0-.61,0-.61s4.13-.32,4.87,1.11a.94.94,0,0,1,.11.37A9.28,9.28,0,0,1,28.94,40.17Z"/><path class="cls-5" d="M27.38,50.27l0,.17a2.75,2.75,0,0,1-1.66-.52c-.09-.07,0-.21.09-.15A2.55,2.55,0,0,0,27.38,50.27Z"/><path class="cls-5" d="M23,62.33l-.05.14-2.61-.29-.16,0-.21,0L20,62l.19,0,.18,0Z"/><path class="cls-5" d="M24.45,41a.07.07,0,0,1-.07-.06.08.08,0,0,1,.06-.1,2.55,2.55,0,0,0,.93-.5,2.92,2.92,0,0,0,1-2.19.07.07,0,0,1,.09-.07.08.08,0,0,1,.07.08,3.07,3.07,0,0,1-1.1,2.31,2.73,2.73,0,0,1-1,.53Z"/><path class="cls-10" d="M34.6,63.52a.71.71,0,0,0,0,.14c0,.54-.06.86-.06.86l-.22,0-2.17-.23-.28,0s0-.29,0-.77a.76.76,0,0,1,0-.15c-.1-1.74-.36-5.55-.77-8.29a15.91,15.91,0,0,1,0-5.75,9.45,9.45,0,0,0-.61-3.08c-.16-.51-.36-1.37-.56-2.39-.06-.32-.12-.66-.19-1-.2-1.12-.4-2.33-.57-3.4,0-.17-.06-.32-.08-.48l0-.17c-.23-1.47-.39-2.56-.39-2.56s.44-.2,1.05-.4a6.88,6.88,0,0,1,2.12-.41c.64,0,1.18.2,1.36.77.08.25.16.55.24.88s.24,1,.36,1.62.3,1.53.45,2.36c.11.67.23,1.35.34,2,.36,2.26.65,4.36.73,5.16,0,.19,0,.43,0,.72v.18C35.32,52.36,34.79,60.64,34.6,63.52Z"/><path class="cls-5" d="M35.27,49.09a2.16,2.16,0,0,1-1.4,0,.08.08,0,0,1,0-.16,2,2,0,0,0,1.36-.07Z"/><path class="cls-5" d="M31.81,63.31v.15l2.77.2v-.14Z"/><path class="cls-5" d="M24.5,37.71a.1.1,0,0,0-.09.07c0,.09-.83,8.41-1.18,11.66a51.94,51.94,0,0,0-1.41,5c-.27,1.51-1.13,5.64-1.54,7.6l.16,0c.4-2,1.27-6.1,1.54-7.61a49.75,49.75,0,0,1,1.41-5v0c.35-3.24,1.17-11.58,1.18-11.66A.08.08,0,0,0,24.5,37.71Z"/><path class="cls-5" d="M29,38.93a.13.13,0,0,1-.07,0,.1.1,0,0,1,0-.12A2.19,2.19,0,0,0,30,37.27a.08.08,0,0,1,.1-.07.1.1,0,0,1,.07.1A2.36,2.36,0,0,1,29,38.92Z"/><path class="cls-5" d="M32.33,63.45a.08.08,0,0,1-.08-.07c0-.09-.54-8.53-.72-10.45a29.82,29.82,0,0,1,.11-4.76c-.61-1.9-2.32-9.44-2.34-9.52a.09.09,0,0,1,.17,0c0,.07,1.73,7.65,2.34,9.51v0a30,30,0,0,0-.12,4.74c.18,1.93.72,10.37.73,10.46a.08.08,0,0,1-.08.08Z"/><path class="cls-11" d="M32,34.15a18.58,18.58,0,0,1-2.42.44h0l-.17,0a37.35,37.35,0,0,1-5.63.09c0-.56,0-1.13,0-1.67v-.12a25.28,25.28,0,0,0-.31-2.7c0-.08,0-.16,0-.25l0-.12c-.05-.25-.11-.52-.19-.82,0-.15-.08-.32-.13-.48a4.74,4.74,0,0,0-.15-.5l0-.07,0-.11c0-.1-.07-.2-.1-.31s-.07-.21-.11-.31l-.06-.19,0,0a.58.58,0,0,0,0-.14h0l-.12-.3a.56.56,0,0,0,0-.12h0c-.08-.21-.16-.41-.25-.61-.63-1.47-.73-3.12.78-3.63l.33-.1c.19-.07.38-.12.55-.17l.13,0,.71-.19.09,0h0l3.18.26.3,0,.17,0h.11c.32,0,.6.09.83.14a3.25,3.25,0,0,1,.64.2,1.17,1.17,0,0,1,.25.13l.09.06a1.64,1.64,0,0,1,.5,1.09l0,.13c0,.16.05.33.09.52a.07.07,0,0,0,0,.05v0l0,.16,0,.1.06.27.15.52,0,.06,0,.05q.16.51.33,1l0,.1h0c.05.15.1.31.15.45v0l0,.08a4.19,4.19,0,0,1,.1.42,1.68,1.68,0,0,1,0,.49.4.4,0,0,1,0,.15,1.48,1.48,0,0,1-.13.35h0c0,.05-.05.09-.07.14a2.63,2.63,0,0,1-.2.33,4.88,4.88,0,0,1-.45.57l-.06.07h0a.22.22,0,0,0,0,.08c0,.11,0,.24.05.39s0,.11.05.26a.52.52,0,0,0,0,.11c0,.17.07.38.12.62l0,.13C31.43,32,31.67,33.07,32,34.15Z"/><path class="cls-12" d="M22.51,26.87h0v0c-.21-.46.22-.85.62-1a2.64,2.64,0,0,1,1.31-.09,18.15,18.15,0,0,1,2.38.73,7.56,7.56,0,0,0,4.77.09h0l0-.1c-.19.07-.37.12-.52.16a6.68,6.68,0,0,1-2.52.12A13,13,0,0,1,26,26.1a5.45,5.45,0,0,0-2.35-.49c-.49.05-1.2.34-1.31.84h0Z"/><path class="cls-12" d="M30.31,22.53c-.17.32-.43.71-.78.8s-.74-.28-.9-.6a2.14,2.14,0,0,1-.24-.74h.11a2.69,2.69,0,0,0,.17.57c.16.36.54.84,1,.59a1.64,1.64,0,0,0,.58-.69Z"/><path class="cls-12" d="M30.84,23.75c-.3,0-.6,0-.87,0a7.6,7.6,0,0,1-3.25-.42,4.81,4.81,0,0,1-2.12-1.66l.09,0h0a4.91,4.91,0,0,0,2.95,1.86,8.48,8.48,0,0,0,2,.15c.31,0,.62,0,.93-.05l.21,0Z"/><path class="cls-12" d="M31,24.6c-.45.06-.9.1-1.36.12a6.33,6.33,0,0,1-3.73-.92,15.85,15.85,0,0,1-2.15-1.86l.13,0,.82.79a8.83,8.83,0,0,0,1.41,1.11,5.5,5.5,0,0,0,1.75.68,10.07,10.07,0,0,0,3.1,0Z"/><path class="cls-12" d="M31.25,25.5a2.46,2.46,0,0,1-.53.15,7.47,7.47,0,0,1-1.89,0,10,10,0,0,1-1.89-.34c-1.19-.34-2.53-.93-3.71-.26-.06,0-.12-.07-.06-.1A2.9,2.9,0,0,1,25,24.68a11.86,11.86,0,0,1,1.75.46,10.55,10.55,0,0,0,1.92.39,8.53,8.53,0,0,0,1.89,0,2.54,2.54,0,0,0,.67-.17l0,.06Z"/><path class="cls-12" d="M31.21,28.68a5.66,5.66,0,0,0,.56-.13c0,.05-.05.09-.07.14l-.19,0c-.4.09-1.13.28-1.37-.19s.36-.85.65-1.06a2.94,2.94,0,0,1,1-.46v0l0,.08a2.65,2.65,0,0,0-.81.35c-.29.18-1.16.83-.61,1.16A1.24,1.24,0,0,0,31.21,28.68Z"/><path class="cls-12" d="M29,31.13a5.54,5.54,0,0,1-1.06,1.31,4.31,4.31,0,0,1-3.14,1.12c-.07,0-.07-.12,0-.11a4.3,4.3,0,0,0,3.37-1.39A5.39,5.39,0,0,0,29,30.75c.14-.28.35-.69.09-1a1.36,1.36,0,0,0-.69-.31l-.86-.23a1.85,1.85,0,0,1-.65-.22c-.39-.27-.16-.69.11-.95s.45-.45.28-.76a1.07,1.07,0,0,0-.85-.42,4.38,4.38,0,0,0-1.76.19,8.37,8.37,0,0,0-1.83.89l0-.11a6.68,6.68,0,0,1,2.56-1.05,2.91,2.91,0,0,1,1.68.13.73.73,0,0,1,.39.5.66.66,0,0,1-.22.57c-.2.21-.65.55-.33.86a1.81,1.81,0,0,0,.82.3c.31.08.63.15.94.25a1.06,1.06,0,0,1,.55.32C29.57,30.16,29.18,30.75,29,31.13Z"/><path class="cls-12" d="M26.21,30.8c-.1.59-.71,1.07-1.15,1.42a7.12,7.12,0,0,1-1.31.81v-.12a6.6,6.6,0,0,0,1.31-.83c.4-.33,1-.78,1.05-1.33s-.68-1-1.22-1a3,3,0,0,0-1.49.24l0-.12.22-.08a3,3,0,0,1,1.72-.07A1.06,1.06,0,0,1,26.21,30.8Z"/><path class="cls-12" d="M29.51,32A2.45,2.45,0,0,0,29,33.74a1.29,1.29,0,0,0,.58.85l-.17,0A1.32,1.32,0,0,1,29,34a2.13,2.13,0,0,1,.28-1.8A4.92,4.92,0,0,1,31.1,30.4a.52.52,0,0,0,0,.11A5,5,0,0,0,29.51,32Z"/><path class="cls-12" d="M31.67,33.87a1.19,1.19,0,0,1-1.21-1.3,2.1,2.1,0,0,1,.78-1.44l0,.13a1.93,1.93,0,0,0-.68,1.14,1.1,1.1,0,0,0,1.08,1.36A.06.06,0,0,1,31.67,33.87Z"/><path class="cls-8" d="M31.53,32.42a1.62,1.62,0,0,1,.47,1.9s-5.22,1.79-8.27.58a3.23,3.23,0,0,1,.05-1.9S28.53,34,31.53,32.42Z"/><path class="cls-9" d="M23.74,33.32a2.13,2.13,0,0,0-.12,1.53c0,.06.13,0,.11,0a2,2,0,0,1,.11-1.44c0-.07-.07-.12-.1-.06Z"/><path class="cls-9" d="M26.63,33.85a16.92,16.92,0,0,1-2.87-.3.08.08,0,0,1-.06-.09.07.07,0,0,1,.08-.05,14.37,14.37,0,0,0,3.54.27s.07,0,.07.06,0,.07-.06.08C27.1,33.84,26.87,33.85,26.63,33.85Z"/><path class="cls-9" d="M28.9,34.51a.07.07,0,0,1-.07-.06s0-.07.06-.08a15.07,15.07,0,0,0,2.93-.82.08.08,0,0,1,.09,0,.06.06,0,0,1,0,.09,14.86,14.86,0,0,1-3,.83Z"/><path class="cls-8" d="M29.33,34.25a10,10,0,0,1,3.45,1.93s-.46,1.65-1.67,1.92c0,0-1.72-3-2.3-3.18Z"/><path class="cls-8" d="M27.12,34.34a10.17,10.17,0,0,0-2.73,2.85s.92,1.45,2.16,1.35c0,0,.77-3.35,1.27-3.71Z"/><path class="cls-8" d="M29.58,34.14a2,2,0,0,0-.09-.8c-.1-.3-.29-.61-.64-.63-.66,0-.73.47-.73.47a.71.71,0,0,0-1-.24c-.71.29-.43,2.32.26,2.55a.73.73,0,0,0,1-.32s.22.42.8.13C29.43,35.16,29.55,34.53,29.58,34.14Z"/><path class="cls-3" d="M30,22.34a5.39,5.39,0,0,0,1.09,2.53l-.12-.53v-.07C30.73,23.22,30.73,22.67,30,22.34Z"/><path class="cls-3" d="M24.83,24.44c-.07,1.4-1.26,2.95-2.19,2.8a1.43,1.43,0,0,0-.08-.22.58.58,0,0,0,0-.14c-.13-.35-.26-.7-.41-1-.63-1.47-.73-3.12.78-3.63l.33-.1A2,2,0,0,1,24.83,24.44Z"/><path class="cls-13" d="M26.37,30.1a.08.08,0,0,0,.06,0h0a4.25,4.25,0,0,1,2.67-.4,4.49,4.49,0,0,0,1.86,0,.25.25,0,0,1,0-.08h0l.06-.07a4.4,4.4,0,0,1-1.89,0A4.26,4.26,0,0,0,26.4,30,.07.07,0,0,0,26.37,30.1Z"/><path class="cls-13" d="M28.71,25.91c.93,0,1.13-1,1.14-1a.08.08,0,1,0-.15,0s-.18.9-1,.9A8,8,0,0,1,26,24.46s-.08,0-.1,0a.07.07,0,0,0,0,.1A7.9,7.9,0,0,0,28.71,25.91Z"/><path class="cls-5" d="M26.47,14c-.18.19-.63.61-.63.61l-.65.44-.56.46s-1.68.88-2,.61a.61.61,0,0,1-.13-.65c0-.12.08-.21.08-.21l-.11,0a.49.49,0,0,1-.62-.31c-.2-.5.46-1.06.46-1.06a.88.88,0,0,1-.73-.45c-.21-.43.69-1.18.69-1.18s-.3-.06-.14-.58a.57.57,0,0,1,.72-.37s-.06-1,.63-1,1.18.85,1.18.85a1.11,1.11,0,0,1,1.07.07c.54.35.18,1.39.18,1.39a.84.84,0,0,1,1,.22C27.11,13.15,26.76,13.65,26.47,14Z"/><path class="cls-8" d="M25.84,14.59a1.81,1.81,0,0,0-1.21.9.64.64,0,0,0,.41.23,1.36,1.36,0,0,1,.84-.76S26,14.72,25.84,14.59Z"/><path class="cls-5" d="M29.32,18.59a1.13,1.13,0,0,0,.76-1,2.47,2.47,0,0,0-2.37-2.9c-2.25-.3-2.57.4-3,1.27a3.28,3.28,0,0,0,.11,2.89,2.84,2.84,0,0,0,1.32,1Z"/><path class="cls-4" d="M29.38,18.26a.42.42,0,0,1,.31.41c0,.36-.18.95-.54.86S29.38,18.26,29.38,18.26Z"/><path class="cls-7" d="M28.94,19.6a.33.33,0,1,0,.65.11.33.33,0,0,0-.65-.11Z"/><path class="cls-3" d="M25.18,21.82A2.21,2.21,0,0,0,26.66,23c1.32.28,1.51-.29,1.51-.29a2.68,2.68,0,0,1-.07-.56v-.23c0-.21,0-.44.08-.71a1.62,1.62,0,0,1,0-.19h0a3.68,3.68,0,0,1-2.13-1.45L26,19.46l-.09-.06,0,.05v.18A3.38,3.38,0,0,1,25.18,21.82Z"/><path class="cls-5" d="M26.69,20.31a2.74,2.74,0,0,0,1.41,1.6c0-.21,0-.44.08-.71a1.62,1.62,0,0,1,0-.19h-.06A2.26,2.26,0,0,1,26.69,20.31Z"/><path class="cls-3" d="M24.82,18a1.17,1.17,0,0,0,.94,1.26h0a.29.29,0,0,0,0,.09v0h0a3,3,0,0,0,2.11,1.65,2.05,2.05,0,0,0,.45,0c.71-.07,1-1,.94-1.72a3,3,0,0,0,0-.31h0s.36-1,.47-1.41c.21-.84-.18-1.76-2-2.16a2,2,0,0,0-2.64,1.3,1.89,1.89,0,0,0,0,.82A.5.5,0,0,0,24.82,18Z"/><path class="cls-5" d="M27.48,16.62a.91.91,0,0,1-.49.78s0,0,0,0c-.27.15-.5.29-.41.59s0,.65-.25.64c-.41,0-.39-.93-1.23-1.07,0,0-.3-.1-.2-.63a2.52,2.52,0,0,1,2.57-1.68c1.37.25,2.52,1.09,2.45,2.07s-.25.77-.25.77a5.92,5.92,0,0,0,0-.86C29.61,16.51,27.39,16.15,27.48,16.62Z"/><path class="cls-7" d="M25.11,19.2a.32.32,0,1,0,.37-.27A.31.31,0,0,0,25.11,19.2Z"/><g class="cls-14"><path class="cls-4" d="M28.94,19.14c0,.07.15.15.37.19a3,3,0,0,0,0-.31C29.09,19,29,19.07,28.94,19.14Z"/></g><path class="cls-4" d="M28.17,20.1A.21.21,0,0,1,28,20s0,0,0-.05,0,0,.06,0a.16.16,0,0,0,.17.05s0,0,0,0a.05.05,0,0,1,0,.05Z"/><path class="cls-4" d="M28.27,19.84h0a.53.53,0,0,1-.36-.32.06.06,0,0,1,0-.07.07.07,0,0,1,.08,0,.36.36,0,0,0,.27.23h0a.36.36,0,0,0,.32,0,.06.06,0,0,1,.09,0,.05.05,0,0,1,0,.08A.47.47,0,0,1,28.27,19.84Z"/><path class="cls-4" d="M28.48,19.32h0l.27-.11a.1.1,0,0,0,0-.05.08.08,0,0,0,0,0,.82.82,0,0,1-.32-.62.06.06,0,0,0-.06-.06.08.08,0,0,0-.05.07,1,1,0,0,0,.28.64l-.19.08a.07.07,0,0,0,0,.07A.1.1,0,0,0,28.48,19.32Z"/><path class="cls-5" d="M28.13,17.63a.14.14,0,0,0,.12-.25.41.41,0,0,0-.27-.07,1,1,0,0,0-.78.44A2.46,2.46,0,0,1,28,17.6.38.38,0,0,1,28.13,17.63Z"/><path class="cls-5" d="M28.92,17.78a.14.14,0,0,1,0-.27.45.45,0,0,1,.28,0c.49.19.46.56.46.56a1.68,1.68,0,0,0-.54-.28Z"/><g class="cls-14"><path class="cls-4" d="M27.79,19c0,.09-.23.14-.49.11s-.47-.12-.46-.21.23-.13.49-.1S27.8,18.92,27.79,19Z"/></g><path class="cls-4" d="M25.76,19.26h0a.29.29,0,0,0,0,.09v0h0a.57.57,0,0,0,.27-.07.45.45,0,0,0,.15-.13.06.06,0,0,0,0-.09.07.07,0,0,0-.1,0,.36.36,0,0,1-.18.12l-.12,0Z"/><path class="cls-4" d="M25.87,18.88a.06.06,0,0,1-.05-.06,1.08,1.08,0,0,0-.57-.76.07.07,0,0,1,0-.09.08.08,0,0,1,.1,0,1.2,1.2,0,0,1,.65.87.07.07,0,0,1-.07.07Z"/><path class="cls-4" d="M25.31,18.54h0a.06.06,0,0,1,0-.09.45.45,0,0,1,.43-.15.07.07,0,0,1,.06.07s0,.07-.08.06a.32.32,0,0,0-.3.1A.08.08,0,0,1,25.31,18.54Z"/><path class="cls-5" d="M28,18.44c0,.13-.09.22-.15.21s-.11-.12-.09-.25.09-.22.16-.21S28,18.31,28,18.44Z"/><path class="cls-5" d="M27.51,18.15s0,0,0,0,0,0,0,0a.52.52,0,0,1,.58.12,0,0,0,0,1,0,0s0,0-.05,0a.49.49,0,0,0-.51-.1Z"/><path class="cls-5" d="M29.12,18.62c0,.13-.09.22-.16.21s-.1-.12-.08-.25.09-.22.15-.21S29.14,18.49,29.12,18.62Z"/><path class="cls-5" d="M28.71,18.32v0s0,0,0,0a.52.52,0,0,1,.57.15s0,0,0,0a0,0,0,0,1-.05,0,.49.49,0,0,0-.5-.13Z"/><path class="cls-3" d="M24.52,26.86l-.07,0-.09,0L24.2,27l-.33.16-.66.3c-.44.2-.88.38-1.3.54l-.31.11-.31.1-.28.07-.25,0h-.13l.13.05a.83.83,0,0,1,.16.12.71.71,0,0,1,.15.15c0,.06.06.11.08.16a.41.41,0,0,1,0,.12.41.41,0,0,1,0,.07v0s0-.06,0-.13a1.78,1.78,0,0,1,.09-.23c.07-.18.16-.37.26-.57s.21-.39.33-.59.23-.41.36-.61c.25-.41.5-.82.77-1.23l.4-.61.39-.61v0A1.2,1.2,0,0,0,22,23l-.07.08-.07.07-.13.15-.25.3-.48.62c-.32.41-.62.84-.91,1.29-.15.22-.28.45-.42.68s-.27.48-.4.73a7.78,7.78,0,0,0-.36.82c-.05.15-.11.31-.15.48a3.18,3.18,0,0,0-.11.61,2.93,2.93,0,0,0,0,.42c0,.08,0,.17.05.26a1.71,1.71,0,0,0,.09.3,2.68,2.68,0,0,0,.18.33,2.44,2.44,0,0,0,.27.29,2.06,2.06,0,0,0,.31.23l.31.13h.12l.11,0,.1,0h.1a2.23,2.23,0,0,0,.36,0,4.85,4.85,0,0,0,.58-.07,5,5,0,0,0,.92-.29,8.23,8.23,0,0,0,.79-.37,12.81,12.81,0,0,0,1.38-.86l.63-.48.31-.26.15-.13.07-.07.08-.07a.87.87,0,0,0,.05-1.24.89.89,0,0,0-1-.22Z"/><rect class="cls-6" x="25.58" y="22.85" width="4.79" height="6.23" transform="translate(-3.46 4.32) rotate(-8.31)"/><rect class="cls-5" x="25.36" y="22.88" width="4.79" height="6.23" transform="translate(-3.47 4.29) rotate(-8.31)"/><path class="cls-6" d="M26.13,23.09s.08-.39.42-.43a.55.55,0,0,1,.33-.47,2.11,2.11,0,0,1,.86-.1c.23,0,.33.33.33.33a.66.66,0,0,1,.35.08.37.37,0,0,1,.15.23Z"/><path class="cls-3" d="M24.48,28.25a.85.85,0,0,0,1.18-.15,2,2,0,0,1,.54-.48A10.25,10.25,0,0,0,27.44,27c.29-.28-.14-.3-.2-.29a5.65,5.65,0,0,0-.81.16,4.87,4.87,0,0,1,1.11-.47c.34,0,.51-.3.17-.45a2.54,2.54,0,0,0-1.52.31,1.84,1.84,0,0,1,.87-.46,1.34,1.34,0,0,0,.77-.27c.15-.11-.12-.39-.76-.28a2,2,0,0,0-1.12.51,3.43,3.43,0,0,1,.42-.53c.29-.31.84-.35.91-.59s-.54-.18-.87,0a2.36,2.36,0,0,0-.87.68,6.8,6.8,0,0,0-.69,1c-.12.28-.67,1.19-.58,1.6A.56.56,0,0,0,24.48,28.25Z"/><path class="cls-3" d="M24.5,27.12A3.94,3.94,0,0,1,24.74,26c.17-.25.3-.73.48-.63s0,.68,0,.68Z"/><path class="cls-4" d="M22.66,26.48a.06.06,0,0,0,.08,0s.89-1.17,1.25-1.71a.05.05,0,0,0,0-.08.06.06,0,0,0-.08,0c-.35.55-1.23,1.7-1.24,1.71a.05.05,0,0,0,0,.08Z"/><path class="cls-4" d="M23.57,25.29s0,0,.22-.05l.42-.14c-.14,0-.12,0-.13,0a.06.06,0,0,0-.07,0l-.42.14a.06.06,0,0,0,0,.07Z"/><path class="cls-4" d="M20.64,28.49a0,0,0,0,0,.06,0,1.91,1.91,0,0,1,.86-.25s.06,0,.05-.06a.06.06,0,0,0-.05-.06,2.1,2.1,0,0,0-.92.28.07.07,0,0,0,0,.08Z"/><path class="cls-4" d="M20.68,28.09s0,0,0,0a.56.56,0,0,1,.47.17.05.05,0,0,0,.08,0,.06.06,0,0,0,0-.08.72.72,0,0,0-.58-.19.06.06,0,0,0,0,.07S20.66,28.08,20.68,28.09Z"/><path class="cls-15" d="M72.21,24.69l0,.19,0,.18c0,.12,0,.24,0,.35s-.05.49-.06.73,0,.49,0,.75a7.55,7.55,0,0,0,.06.8,4.05,4.05,0,0,0,.22.92,2.74,2.74,0,0,0,.29.56,2,2,0,0,0,.24.31,2.86,2.86,0,0,0,.36.3,2,2,0,0,0,.46.23,2.44,2.44,0,0,0,.52.12,2.39,2.39,0,0,0,.88-.09,2.55,2.55,0,0,0,.33-.11l.13-.06.12-.07a4.55,4.55,0,0,0,.43-.28,3.51,3.51,0,0,0,.36-.29c.12-.1.22-.2.32-.3a7.76,7.76,0,0,0,.55-.61,12.27,12.27,0,0,0,.88-1.24q.39-.61.72-1.26c.11-.21.22-.42.32-.64s.1-.22.16-.33l.07-.16.08-.19a1.51,1.51,0,0,0-2.77-1.21l0,0,0,.12-.06.14a2.39,2.39,0,0,0-.13.28l-.28.55a12,12,0,0,1-.61,1,8.65,8.65,0,0,1-.66.94c-.11.14-.23.27-.34.39l-.1.09c0-.08,0-.17-.07-.27s-.08-.38-.11-.58a6,6,0,0,1-.08-.61,1.53,1.53,0,0,1,0-.3l0-.3v-.07a1,1,0,0,0-2-.07Z"/><path class="cls-16" d="M77.69,22.23l-.23,6a6,6,0,0,1-1.15,1.47l-.09.08a3.34,3.34,0,0,1-.61.43,2.14,2.14,0,0,1-1.13.29,2.57,2.57,0,0,1-1-.23,2.46,2.46,0,0,1-.73-.55l-.07-.09a2.79,2.79,0,0,1-.51-.94s-.19,0-.38-.43.28-.61.28-.61l.06.4c.42,0,2.19-2,2.19-2s.07-.07.11,0,0,.28,0,.28l0,.13.12.36L75.1,26l.07-.12c.32-.53.71-1.2,1-1.75l.06-.14a3.33,3.33,0,0,0,.23-.59c.19-.86.8-2.61.8-2.61Z"/><path class="cls-17" d="M76.31,29.66l-.09.08a2.68,2.68,0,0,0-1.86-.55,4,4,0,0,0-1.59.49l-.07-.09a4,4,0,0,1,1.79-.52A2.8,2.8,0,0,1,76.31,29.66Z"/><path class="cls-17" d="M76.84,27.37a.51.51,0,0,1-.9.15,3.37,3.37,0,0,1-.44-.67,8.26,8.26,0,0,1-.39-.79v0l.07-.12.13.3c.14.28.29.56.45.83s.42.72.77.53.29-.66.27-1a5.71,5.71,0,0,0-.16-1,13.16,13.16,0,0,0-.48-1.42l.06-.14a10.8,10.8,0,0,1,.56,1.66,5.32,5.32,0,0,1,.14.89A1.9,1.9,0,0,1,76.84,27.37Z"/><path class="cls-18" d="M75.61,30.17a2.14,2.14,0,0,1-1.13.29,2.57,2.57,0,0,1-1-.23,2.53,2.53,0,0,1,1.47-.4A.65.65,0,0,1,75.61,30.17Z"/><path class="cls-18" d="M74.5,26.44a10.53,10.53,0,0,1-2.31,2.21s-.19,0-.38-.43.28-.61.28-.61l.06.4c.42,0,2.19-2,2.19-2s.06-.07.11,0,0,.28,0,.28Z"/><path class="cls-18" d="M74.88,28.14h0a.07.07,0,0,0,.07-.07,3.92,3.92,0,0,0-.21-1.26.07.07,0,0,0-.09,0s-.06.06,0,.09a3.73,3.73,0,0,1,.2,1.21A.06.06,0,0,0,74.88,28.14Z"/><path class="cls-18" d="M75.19,27.22a0,0,0,0,0,.06,0s0-.06,0-.1a.84.84,0,0,0-.52-.33s-.08,0-.08.06a.07.07,0,0,0,0,.08.67.67,0,0,1,.44.28Z"/><path class="cls-15" d="M73.74,22.6s0,0,.08-.19,0-.9.22-1.06.38.32.52,1.38a5.49,5.49,0,0,1-.28,1.52c-.09.22-.11.53-.25.64-.46.34-1.56.33-1.72.08a9.48,9.48,0,0,1-.44-1.53c-.13-.31-.75-2.4-.51-2.36s.61,1,.61,1-.37-1.64-.11-1.7.6,1.46.6,1.46-.29-2,.07-2A7.88,7.88,0,0,1,73,21.79s-.13-1.21.37-1.18a.88.88,0,0,1,.72.62s0,.36-.46,0S73.74,22.6,73.74,22.6Z"/><path class="cls-5" d="M73,25.27a2.81,2.81,0,0,1-.9-.16.2.2,0,0,1-.12-.25.21.21,0,0,1,.25-.12,2,2,0,0,0,1.88-.19.2.2,0,0,1,.27,0,.19.19,0,0,1,0,.27A2.38,2.38,0,0,1,73,25.27Z"/><path class="cls-19" d="M72,22.6s0-.06,0-.09a1.93,1.93,0,0,1,1.48-.35.08.08,0,0,1,.06.08.08.08,0,0,1-.08.06h0a1.82,1.82,0,0,0-1.38.32.07.07,0,0,1-.1,0Z"/><path class="cls-19" d="M72.83,24.1a.06.06,0,0,1,0-.08A1.15,1.15,0,0,0,73,22.79a.07.07,0,1,1,.12-.07h0a1.26,1.26,0,0,1-.19,1.38.07.07,0,0,1-.09,0Z"/><polygon class="cls-15" points="82.52 64.83 82.34 66.28 80.49 66.28 80.38 64.75 82.52 64.83"/><polygon class="cls-15" points="77.58 64.59 77.35 66.28 75.5 66.28 75.57 64.55 77.58 64.59"/><path class="cls-5" d="M70.94,69.2h7a1,1,0,0,0,.09-.39,11.1,11.1,0,0,0-.23-2.13l0-.19c0-.1,0-.18,0-.24,0-.49-.43-.41-.43-.41-.71.7-1.51-.34-2,0,0,0-.2.14-.76.64a8.7,8.7,0,0,1-2.3,1.17c-1,.43-1.33.87-1.39,1.16A.51.51,0,0,0,70.94,69.2Z"/><path class="cls-6" d="M70.94,69.2h7a1,1,0,0,0,.09-.39H70.88A.51.51,0,0,0,70.94,69.2Z"/><path class="cls-6" d="M77.22,69.2h.21a1.54,1.54,0,0,1-.38-1.12,2,2,0,0,1,.74-1.4l0-.19a2.16,2.16,0,0,0-.88,1.58A1.69,1.69,0,0,0,77.22,69.2Z"/><path class="cls-7" d="M74.69,66.89a.11.11,0,0,0,.11-.08.11.11,0,0,0-.08-.14l-.44-.11a.11.11,0,0,0-.14.08.11.11,0,0,0,.09.14l.43.11Z"/><path class="cls-7" d="M75.13,66.53a.11.11,0,0,0,.11-.09.12.12,0,0,0-.09-.14l-.43-.1a.11.11,0,0,0-.14.08.11.11,0,0,0,.08.14l.44.11Z"/><path class="cls-7" d="M74.25,67.15a.12.12,0,0,0,0-.23l-.44-.11a.12.12,0,0,0,0,.23l.44.11Z"/><path class="cls-7" d="M73.82,67.39a.11.11,0,0,0,.11-.08.11.11,0,0,0-.09-.14l-.43-.11a.11.11,0,0,0-.06.22l.44.11Z"/><path class="cls-7" d="M73.34,67.62a.12.12,0,0,0,.11-.09.11.11,0,0,0-.08-.14l-.44-.11a.13.13,0,0,0-.14.09.12.12,0,0,0,.09.14l.43.11Z"/><path class="cls-7" d="M72.82,67.81a.12.12,0,0,0,.12-.09.13.13,0,0,0-.09-.14l-.44-.1a.11.11,0,0,0-.14.08.13.13,0,0,0,.09.14l.44.11Z"/><path class="cls-10" d="M85.37,39.73c0,.07,0,.31,0,.38h0c0,.09-.06.18-.09.27-.31.77-2.74.88-5.12.61a12.06,12.06,0,0,1-4.48-1.17c-.75-.51.85-5.15.85-5.15l9.36,1.37A20.92,20.92,0,0,1,85.37,39.73Z"/><path class="cls-10" d="M74.48,51.27l.74,13.4,2.67.08s1-9.9.63-12L80,41l0-.3-3.42-1.57-.21-.1-.87-.4,0,.21c0,.26,0,.52-.08.78,0,.08,0,.16,0,.24C74.92,44,74.6,47.9,74.49,51a1.93,1.93,0,0,1,0,.24Z"/><path class="cls-5" d="M74.48,51.27l.55,0a8.22,8.22,0,0,0,1.28-.1.12.12,0,0,0,0-.24,7.4,7.4,0,0,1-1.78.08A1.93,1.93,0,0,1,74.48,51.27Z"/><path class="cls-5" d="M79.5,41.15,77.9,53.33c0,.27.56,3.35-.26,10.37,0,.07,0,.14,0,.21h-.23l0-.22c.85-7.29.26-10.3.26-10.33v0l1.6-12.2a.11.11,0,0,1,.12-.1A.13.13,0,0,1,79.5,41.15Z"/><path class="cls-5" d="M78,63.8a.12.12,0,0,1-.11.11h-.48l-2.12,0h0a.11.11,0,0,1-.09-.11.09.09,0,0,1,.1-.1h2.61A.11.11,0,0,1,78,63.8Z"/><path class="cls-5" d="M77.52,37.11a4.57,4.57,0,0,1-1,2,2.64,2.64,0,0,1-.51.43,1.86,1.86,0,0,1-.47.23l-.23.07c0-.08,0-.16,0-.24l.11,0a1.85,1.85,0,0,0,.45-.21,2.37,2.37,0,0,0,.42-.35,4.24,4.24,0,0,0,1-1.94.11.11,0,0,1,.13-.09A.12.12,0,0,1,77.52,37.11Z"/><path class="cls-5" d="M79.35,40.52a.11.11,0,0,0,.09.1h0a.11.11,0,0,0,.1-.09c0-.33,0-.68,0-1a1.09,1.09,0,0,0,0-.18c.08-1.12.17-2.21.24-3,0-.06,0-.12,0-.18s0-.32,0-.45l-.19,0c0,.13,0,.28,0,.45s0,.12,0,.18c-.07.77-.16,1.86-.24,3,0,.06,0,.13,0,.19C79.39,39.82,79.37,40.18,79.35,40.52Z"/><path class="cls-5" d="M79.09,39.34a1.73,1.73,0,0,0,.32.13l.18,0,.18,0a.78.78,0,0,0,.31,0,.4.4,0,0,0,.21-.29c.07-.34.21-1.77.3-2.77,0-.06,0-.12,0-.18s0-.31,0-.44l-.18,0c0,.13,0,.27,0,.44l0,.18c-.1,1-.24,2.43-.3,2.76a.22.22,0,0,1-.11.16.77.77,0,0,1-.4,0l-.18,0a1.28,1.28,0,0,1-.25-.1.09.09,0,0,0-.12,0A.08.08,0,0,0,79.09,39.34Z"/><path class="cls-10" d="M80.12,39.53v24.9l0,.4h2.75a49,49,0,0,0,1.32-7.48c.16-3.22.11-7.4.11-7.4.29-2.22.74-6.83,1-9.61a1.64,1.64,0,0,1,0-.22h0a1.49,1.49,0,0,1,0-.21c.1-1.11.16-1.83.16-1.83a3.73,3.73,0,0,0-2,.16l-.21.06-.42.13-.21.07A26,26,0,0,0,80.12,39.53Z"/><path class="cls-5" d="M80.12,50.67v.24a4.61,4.61,0,0,0,.53,0,8,8,0,0,0,1.27-.1.12.12,0,1,0,0-.23A8.11,8.11,0,0,1,80.12,50.67Z"/><path class="cls-5" d="M84,50a79.33,79.33,0,0,1-.16,8.48c-.24,1.6-.7,4.09-.94,5.35,0,.08,0,.15,0,.22h-.22c0-.06,0-.13,0-.21.23-1.25.7-3.77.94-5.38A82.17,82.17,0,0,0,83.73,50v0c.24-2.07.74-9.21.75-9.28a.1.1,0,0,1,.11-.11.12.12,0,0,1,.11.12C84.69,40.76,84.2,47.9,84,50Z"/><path class="cls-5" d="M83.09,63.92A.11.11,0,0,1,83,64H80.21a.12.12,0,0,1-.09-.11.11.11,0,0,1,.11-.11l2.27,0H83A.12.12,0,0,1,83.09,63.92Z"/><path class="cls-5" d="M79.72,68.75v0a1.21,1.21,0,0,0,0,.2,1.57,1.57,0,0,0,0,.2h4.17a2.13,2.13,0,0,0,0-.4,2,2,0,0,0-.74-1.54c-.79-.61-.48-.48-.65-.76L82.35,66c-.14-.29-.26-.43-1-.43-1,0-1.07.48-1.18.73s-.1.33-.17.59c0,.11,0,.22-.07.33-.06.29-.12.59-.16.83A3.77,3.77,0,0,0,79.72,68.75Z"/><path class="cls-6" d="M79.72,68.75v0a1.21,1.21,0,0,0,0,.2,1.2,1.2,0,0,0,.43-.56A2.29,2.29,0,0,0,80,66.86h0c0,.11,0,.22-.07.33a1.94,1.94,0,0,1,0,1.18A.9.9,0,0,1,79.72,68.75Z"/><path class="cls-6" d="M79.72,68.8a3.57,3.57,0,0,0,0,.4h4.17a2.13,2.13,0,0,0,0-.4Z"/><path class="cls-7" d="M81.21,66.84h0a1.87,1.87,0,0,1,1,0,.13.13,0,0,0,.15-.09.11.11,0,0,0-.09-.14,2.09,2.09,0,0,0-1.08,0,.11.11,0,0,0-.09.14A.12.12,0,0,0,81.21,66.84Z"/><path class="cls-7" d="M81.14,66.39h0a2.06,2.06,0,0,1,1,0,.12.12,0,0,0,.14-.09.11.11,0,0,0-.08-.14,2.14,2.14,0,0,0-1.09,0,.11.11,0,0,0-.08.14A.12.12,0,0,0,81.14,66.39Z"/><path class="cls-7" d="M81.38,67.22h0a2.22,2.22,0,0,1,1,0,.12.12,0,0,0,.15-.08.13.13,0,0,0-.09-.15,2.43,2.43,0,0,0-1.09,0,.12.12,0,0,0-.08.15A.12.12,0,0,0,81.38,67.22Z"/><path class="cls-7" d="M81.59,67.64h0a2.05,2.05,0,0,1,1,0,.12.12,0,0,0,.15-.08.13.13,0,0,0-.09-.15,2.43,2.43,0,0,0-1.09,0,.12.12,0,0,0-.08.15A.11.11,0,0,0,81.59,67.64Z"/><path class="cls-5" d="M85.34,40.11h0a1.5,1.5,0,0,0,0,.22,1.83,1.83,0,0,1-.93-.08,3,3,0,0,1-1.33-1.14,5,5,0,0,1-.38-.63,4.84,4.84,0,0,1-.27-.59.11.11,0,0,1,.21-.07s.1.26.27.59a6.62,6.62,0,0,0,.36.58,2.77,2.77,0,0,0,1.22,1A1.6,1.6,0,0,0,85.34,40.11Z"/><path class="cls-16" d="M87.09,27.88a2.28,2.28,0,0,1,0,.26c-.1.69-.19.89-.23,1.39,0,.23-.08.5-.1.73s-.06.44-.1.72-.11.65-.17,1l-.06.4s0,.08,0,.12l0,.22v.46c-.11.77-.16,1.52-.23,2.11l0,.12h0a3.77,3.77,0,0,1-.16.78h-.09l-.12,0h0a6.74,6.74,0,0,1-1,.34,8.62,8.62,0,0,1-1.12.25l-.21,0h0c-.23,0-.46.06-.7.07h-.26a7.22,7.22,0,0,1-.93,0h-.12c-.34,0-.68-.06-1-.11h-.13a.9.9,0,0,1-.16,0,5.17,5.17,0,0,1-.54-.11l-.18,0a9.28,9.28,0,0,1-1.82-.66L77.45,36l-.09,0h0l-.51-.3,0,0a4.46,4.46,0,0,1-.58-.45l.15-.9h0c0-.06,0-.13,0-.19s.06-.37.09-.53h0l.21-1.08h0c0-.12,0-.24.07-.36l0-.21h0c.12-.7.23-1.36.31-1.88h0l0-.17c0-.13,0-.24,0-.35s.06-.45.09-.66l.06-.62c0-.23,0-.45.06-.67l0-.34h0v-.15a.71.71,0,0,0,0-.14h0v0a.81.81,0,0,0,0-.16c0-.17,0-.34,0-.51,0-.37,0-.72,0-1.05V25c0-.56-.07-1.06-.12-1.49,0-.05,0-.11,0-.16-.11-.94-.24-1.57-.23-2a1.25,1.25,0,0,1,0-.21,2.81,2.81,0,0,1,.1-.31,1,1,0,0,1,.14-.24,1.57,1.57,0,0,1,.77-.5l.11,0,.3-.09.11,0,.34-.1h0l.26-.1.11,0,.1-.05.13-.06a1.93,1.93,0,0,0,.62-.53h0L80.3,19h2.61a3.24,3.24,0,0,0,.43.28l.1.06.06,0,.07,0,.05,0a1.57,1.57,0,0,0,.29.13l.29.1.1,0,.21.06.12,0,.28.05a1.77,1.77,0,0,1,.52.17l.1.06a1.91,1.91,0,0,1,.32.24,1.29,1.29,0,0,1,.16.17h0a1.37,1.37,0,0,1,.17.23,2.18,2.18,0,0,1,.2.34.61.61,0,0,1,.05.12,6.41,6.41,0,0,1,.46,2.13c0,.46,0,.92.08,1.36v.15l0,.5c0,.3,0,.6,0,.9a1.15,1.15,0,0,1,0,.19c0,.13,0,.26,0,.38,0,.3,0,.56,0,.9Z"/><path class="cls-17" d="M85.53,20a4.88,4.88,0,0,1-.52.59,4.69,4.69,0,0,1-.64.54,1,1,0,0,1-.75.26c-.5-.09-.56-.71-.54-1.11a2.9,2.9,0,0,1,.26-1l.1.06a2.92,2.92,0,0,0-.24.91c0,.46.06,1.26.73,1a2.31,2.31,0,0,0,.69-.46,6.38,6.38,0,0,0,.53-.51c.1-.11.19-.22.28-.34Z"/><path class="cls-18" d="M85.31,36.07a.05.05,0,0,0,.06,0A34.39,34.39,0,0,0,86,23,0,0,0,0,0,86,23a.06.06,0,0,0,0,.06A34.12,34.12,0,0,1,85.26,36a.06.06,0,0,0,0,.07Z"/><path class="cls-5" d="M79,16s-.55.08-.69-.34.35-.73-.2-1.17-1-1.38-.39-1.89.91.33,1.46-.32a1.65,1.65,0,0,1,1.46-.74c.52,0,1,.64,1.7.6a1.07,1.07,0,0,1,1,1.42c-.36.62-.25.46-.22,1a.81.81,0,0,1-.83.94A29.57,29.57,0,0,0,79,16Z"/><path class="cls-15" d="M82.94,18.79a2.14,2.14,0,0,1-1.18,1.15A2.21,2.21,0,0,1,80,19.83L80,18.92v-.19l0-.35L82,16.73l.12-.09.09-.07,0,.08,0,.09v0A7,7,0,0,0,82.94,18.79Z"/><path class="cls-5" d="M80,19.54a2.45,2.45,0,0,0,1.48-1.46,2.13,2.13,0,0,1-1.39.66H80Z"/><path class="cls-19" d="M78.68,15.79a.39.39,0,0,0-.29.4c0,.35.2.91.54.81S78.68,15.79,78.68,15.79Z"/><path class="cls-15" d="M82.34,16.86h0a.29.29,0,0,0,0,.09v0l-.06.17A2.71,2.71,0,0,1,80,18.9l-.15,0c-.87-.14-1.16-1.1-1.11-1.84V17s0-.05,0-.14,0-.16,0-.27c0-.34-.12-.83-.22-1.32a2.3,2.3,0,0,1,2-2.57,1.83,1.83,0,0,1,2.38,1.15,1.93,1.93,0,0,1,.09.57,3,3,0,0,1-.09.76.49.49,0,0,1,.46.37C83.56,16,83,16.76,82.34,16.86Z"/><path class="cls-5" d="M82.89,15.14a1.62,1.62,0,0,1-.51.26l-.35.46-.41-.24s.16-.52-.12-.68a.43.43,0,0,1-.15-.5,4.86,4.86,0,0,1,1.54-.63,1.93,1.93,0,0,1,.09.57A3,3,0,0,1,82.89,15.14Z"/><path class="cls-5" d="M78.43,14.24s1.18-.9,1.9-.63a1.91,1.91,0,0,1,1,.83s1.36.17,1.65-.19-.19-1.71-1.24-1.91A3,3,0,0,0,78.43,14.24Z"/><path class="cls-5" d="M79,16c0,.12.09.21.15.2s.1-.12.07-.25-.09-.21-.15-.19S79,15.92,79,16Z"/><path class="cls-5" d="M79.39,15.89s0,0,0,0,0,0,0,0a.5.5,0,0,0-.56,0s0,0,0,.05,0,0,.05,0a.46.46,0,0,1,.49,0Z"/><g class="cls-14"><path class="cls-19" d="M80.38,16.45c0,.09.22.12.47.09s.45-.13.43-.21-.22-.12-.47-.08S80.37,16.37,80.38,16.45Z"/></g><g class="cls-14"><path class="cls-19" d="M78.74,16.82c.17,0,.29-.11.28-.18s-.14-.1-.32-.09C78.72,16.66,78.73,16.75,78.74,16.82Z"/></g><path class="cls-19" d="M81.88,16.82a.36.36,0,0,0,.14.11.62.62,0,0,0,.28.06v0a.29.29,0,0,1,0-.09h-.06a.25.25,0,0,1-.12,0,.3.3,0,0,1-.17-.11.08.08,0,0,0-.1,0A.08.08,0,0,0,81.88,16.82Z"/><path class="cls-5" d="M79.86,18.88l.15,0a2.71,2.71,0,0,0,2.23-1.74.27.27,0,0,0-.22-.23V15.86l-.41-.24s-.24,1-.57,1.07-1.1,0-1.41.25a1.25,1.25,0,0,0-.89.1C78.7,17.78,79,18.74,79.86,18.88Z"/><path class="cls-7" d="M80.28,16.93s.06.58-.42.68a.5.5,0,0,1-.6-.37Z"/><path class="cls-6" d="M80,17.81a.24.24,0,0,0,.13-.11,0,0,0,0,0,0-.06,0,0,0,0,0-.06,0,.23.23,0,0,1-.19.08s0,0,0,0a0,0,0,0,0,0,.05A.31.31,0,0,0,80,17.81Z"/><path class="cls-19" d="M82.44,16.4a.07.07,0,0,0,0-.06A1,1,0,0,1,83,15.6a.07.07,0,1,0-.06-.12,1.16,1.16,0,0,0-.6.86.09.09,0,0,0,.06.07Z"/><path class="cls-19" d="M83,16.06h0A.06.06,0,0,0,83,16a.45.45,0,0,0-.42-.13.05.05,0,0,0,0,.07.07.07,0,0,0,.07.06.33.33,0,0,1,.3.08S82.93,16.07,83,16.06Z"/><path class="cls-19" d="M79.58,16.79s0,0,0,0a.05.05,0,0,0,0-.08l-.38-.22.3-.13s0,0,0,0l.24-.8a.07.07,0,0,0,0-.09.07.07,0,0,0-.08,0l-.23.77-.39.17a.07.07,0,0,0,0,.06.06.06,0,0,0,0,.06l.49.28A.06.06,0,0,0,79.58,16.79Z"/><path class="cls-5" d="M80.63,15.32l.08-.05a.18.18,0,0,0,0-.25.84.84,0,0,0-.9-.18.17.17,0,0,0-.08.24.18.18,0,0,0,.24.09.48.48,0,0,1,.49.1A.18.18,0,0,0,80.63,15.32Z"/><path class="cls-5" d="M78.78,15.55a.15.15,0,0,0,.11-.11c0-.14.3-.17.37-.17a.19.19,0,0,0,.17-.19.17.17,0,0,0-.18-.17.75.75,0,0,0-.7.41.18.18,0,0,0,.11.23Z"/><path class="cls-5" d="M80.09,15.85c0,.12.09.21.15.2s.1-.12.08-.24-.1-.21-.16-.2S80.07,15.73,80.09,15.85Z"/><path class="cls-5" d="M80.54,15.74h0a0,0,0,0,0,0-.05.55.55,0,0,0-.57,0s0,0,0,0a0,0,0,0,0,0,0,.48.48,0,0,1,.49,0Z"/><path class="cls-16" d="M92.12,28.89a2.9,2.9,0,0,1-.1.42,3,3,0,0,1-.17.46l-.07.13a2,2,0,0,1-.13.25l-.06.09-.06.11a8.84,8.84,0,0,1-.54.74c-.18.23-.36.45-.55.66l-.29.3-.29.3-.3.29-.16.14-.16.14a1.13,1.13,0,0,1-1.78-1.31l.08-.16a.08.08,0,0,1,0,0l0,0,0-.08.09-.16.2-.32a3.37,3.37,0,0,1,.19-.32l.18-.32.34-.63c.11-.21.2-.42.28-.6a.14.14,0,0,1,0-.06l-.09-.11a2.47,2.47,0,0,0-.21-.27L88.25,28l-.09-.09v0l-.48-.55-.51-.58-.08-.08c-.31-.36-.63-.71-1-1.07l-1-1.14h0L85,24.41l-.45-.49-.14-.16c0-.11.07-.21.11-.32s0-.1,0-.15l.24-.67h0l0-.07,0-.09c.16-.44.33-.87.5-1.3.09-.23.18-.47.26-.7a1.12,1.12,0,0,0,0-.13,1.57,1.57,0,0,1,.31.08h0a1.65,1.65,0,0,1,.52.28l.09.07.14.15h0l.26.3.27.3.25.3.25.29v0l.07.08c.32.37.63.75.94,1.14s.67.82,1,1.25l.12.16.09.11.28.36.37.5.07.11,0,.05.48.68.24.37c.08.14.17.27.26.43l0,.07h0l0,.06,0,.08,0,.08a.42.42,0,0,0,0,.1.61.61,0,0,0,.05.12V28l0,0v.06a1.46,1.46,0,0,1,0,.2A2.32,2.32,0,0,1,92.12,28.89Z"/><path class="cls-17" d="M78.18,22.21a4.16,4.16,0,0,1-.82,1.29c0-.05,0-.11,0-.16A4.11,4.11,0,0,0,78,22.25a3.18,3.18,0,0,0,.11-2.17l.11,0A3.27,3.27,0,0,1,78.18,22.21Z"/><path class="cls-17" d="M86.62,20.76,86.5,21a.75.75,0,0,1-.07.12,4.1,4.1,0,0,1-1.6,1.52h0l-.3.15a10.18,10.18,0,0,1-3.11.51,5.77,5.77,0,0,0-2.91.94,4.84,4.84,0,0,0-1,.94V25a5.25,5.25,0,0,1,.92-.84A5.57,5.57,0,0,1,81,23.21a14.72,14.72,0,0,0,3.24-.46,4.51,4.51,0,0,0,.63-.29A4.07,4.07,0,0,0,86.38,21l.05-.11a1.62,1.62,0,0,0,.1-.18Z"/><path class="cls-18" d="M77.37,22.56s0,.34.07.77c0,.06,0,.12,0,.19.05.68.1,1.59.09,2.28,0,.06-.09.09-.12,0h0c0-.69,0-1.62-.09-2.31h0c0-.54-.08-.93-.08-.94a.06.06,0,0,1,.11,0Z"/><path class="cls-18" d="M81.47,22.23a8.19,8.19,0,0,1-.08-1.52,5.14,5.14,0,0,1,.19-1.1,2.75,2.75,0,0,0,1.22-1s1,.23,1.11.93C83.91,19.51,82.67,21.76,81.47,22.23Z"/><path class="cls-18" d="M80,19.09s-.61-.07-.62.76A2.16,2.16,0,0,0,80.43,22l.23-.85a6,6,0,0,0,.15-1.29S80,19.77,80,19.09Z"/><path class="cls-18" d="M81.19,21a.18.18,0,0,1-.18.18.17.17,0,0,1-.17-.18.16.16,0,0,1,.17-.17A.17.17,0,0,1,81.19,21Z"/><path class="cls-18" d="M81.13,21.7a.18.18,0,0,1-.18.18.18.18,0,0,1,0-.36A.18.18,0,0,1,81.13,21.7Z"/><path class="cls-18" d="M81.1,22.33a.18.18,0,0,1-.17.18.18.18,0,0,1-.18-.18.17.17,0,0,1,.18-.17A.17.17,0,0,1,81.1,22.33Z"/><path class="cls-17" d="M81.12,26.37c-.07.43-.55.73-.85,1L77.13,30l0-.17.56-.48L80,27.47l.59-.49a1.72,1.72,0,0,0,.4-.45.38.38,0,0,0-.24-.59,1.23,1.23,0,0,0-.54,0,7.82,7.82,0,0,0-2.71,1.1.71.71,0,0,0,0-.14h0c.27-.17.54-.32.82-.46A8.43,8.43,0,0,1,79.46,26a2.77,2.77,0,0,1,1.21-.19A.49.49,0,0,1,81.12,26.37Z"/><path class="cls-17" d="M85.14,23.07A4.54,4.54,0,0,0,83,24.45a2.2,2.2,0,0,0-.41,2.18,1.76,1.76,0,0,0,.6.77,1.89,1.89,0,0,0,1,.29c.39,0,.92.1.94.6s-.29.77-.33,1.17a1.08,1.08,0,0,0,1.36,1.1c.07,0,0-.14,0-.12A1,1,0,0,1,85,29.16a2.08,2.08,0,0,0,.24-1,.68.68,0,0,0-.43-.51,5.19,5.19,0,0,0-1-.15,1.39,1.39,0,0,1-.88-.57,1.94,1.94,0,0,1,0-2.19,4.24,4.24,0,0,1,2.25-1.59c.07,0,0-.14,0-.11Z"/><path class="cls-17" d="M86.41,32.42s0,.08,0,.12a2.71,2.71,0,0,1-1.06-.12,2.59,2.59,0,0,1-1-.64,5.24,5.24,0,0,1-.82-1.31,3.81,3.81,0,0,0-.92-1.29,1.62,1.62,0,0,0-1.65-.24,7,7,0,0,0-1.53.87,11.79,11.79,0,0,0-1.31,1,13.83,13.83,0,0,0-1.26,1.28l0-.21h0a12.75,12.75,0,0,1,1.39-1.36,13.77,13.77,0,0,1,1.28-1A6.42,6.42,0,0,1,81,28.8a1.7,1.7,0,0,1,1.43.12,2.79,2.79,0,0,1,.94,1c.27.46.47,1,.78,1.41a2.51,2.51,0,0,0,1.16.9A2.65,2.65,0,0,0,86.41,32.42Z"/><path class="cls-17" d="M85.86,36.28l-.12,0a3.49,3.49,0,0,0-2.88-.66,1.75,1.75,0,0,0-1.3,1.08,1,1,0,0,0,0,.29h-.12A1.32,1.32,0,0,1,82,36a2.55,2.55,0,0,1,1.36-.49A3.89,3.89,0,0,1,85.86,36.28Z"/><path class="cls-17" d="M80.4,36.93h-.13a2.52,2.52,0,0,0,.53-1.75A.82.82,0,0,0,80,34.5a2.19,2.19,0,0,0-1.11.34A5.17,5.17,0,0,0,77.45,36l-.09,0h0l.15-.17a4.8,4.8,0,0,1,1.88-1.29c.65-.23,1.46-.06,1.56.73A2.73,2.73,0,0,1,80.4,36.93Z"/><path class="cls-17" d="M86.13,35.33l0,.12a4.1,4.1,0,0,1-1-.26,6.16,6.16,0,0,1-2.16-1.87,5,5,0,0,0-1.07-1A2.34,2.34,0,0,0,80.22,32a4.82,4.82,0,0,0-1.78.71,10.42,10.42,0,0,0-1.4,1c-.23.19-.45.4-.66.61,0-.06,0-.13,0-.19a9.12,9.12,0,0,1,.8-.72,6.42,6.42,0,0,1,3.06-1.52,3,3,0,0,1,2.56,1.21,6.68,6.68,0,0,0,2.3,2A3.41,3.41,0,0,0,86.13,35.33Z"/><path class="cls-17" d="M90,24.86a2.4,2.4,0,0,1-2-.69,2,2,0,0,1-.26-2.07v0l.07.08a1.8,1.8,0,0,0,.3,1.93,2.26,2.26,0,0,0,1.76.62Z"/><path class="cls-17" d="M88.29,26.5A2.83,2.83,0,0,0,87,24.59a2.05,2.05,0,0,0-.5-.22,2.3,2.3,0,0,0-1.42,0l.1.09a2.15,2.15,0,0,1,1.83.25,2.69,2.69,0,0,1,1,1.12,3.26,3.26,0,0,1,.18,2.06v0l.09.09A3.59,3.59,0,0,0,88.29,26.5Z"/><path class="cls-17" d="M91.65,30.15l-.06.09a3.41,3.41,0,0,1-.91-4.52l.07.11a3.37,3.37,0,0,0-.35,2.45A3.44,3.44,0,0,0,91.65,30.15Z"/><path class="cls-15" d="M91.23,30.79h0q-.12.16-.24.3c-.18.23-.36.45-.55.66l-.29.3-.29.3-.3.29-.16.14-.16.14a1.13,1.13,0,0,1-1.78-1.31l.08-.16,0,0,0,0,0-.08.09-.16.2-.32.18-.32.19-.32.34-.63.08-.17.14-.29h0A3.68,3.68,0,0,1,91.23,30.79Z"/><path class="cls-18" d="M88.71,29.37A3.78,3.78,0,0,1,91,31.09a.27.27,0,0,0,.24-.3,3.64,3.64,0,0,0-2.36-1.72A.29.29,0,0,0,88.71,29.37Z"/><path class="cls-18" d="M92.12,28.89a2.9,2.9,0,0,1-.1.42,3,3,0,0,1-.17.46,2.38,2.38,0,0,1,0-2.34l0,.06,0,.08,0,.08a.42.42,0,0,0,0,.1.61.61,0,0,0,.05.12V28l0,0V28a2.09,2.09,0,0,1,0,.21A2.32,2.32,0,0,1,92.12,28.89Z"/><path class="cls-18" d="M88.94,28.83a.06.06,0,0,0,.06,0,6.22,6.22,0,0,1,.63-1.16.08.08,0,0,0,0-.1.07.07,0,0,0-.1,0,6.64,6.64,0,0,0-.65,1.2.08.08,0,0,0,0,.09Z"/><path class="cls-18" d="M89.13,28.41h0a.07.07,0,0,0,0-.09l-.09-.49a.08.08,0,0,0-.09-.06.07.07,0,0,0-.05.08l.1.5S89.09,28.41,89.13,28.41Z"/><path class="cls-18" d="M86.25,25.89l0,0a.08.08,0,0,0,0-.1s-.64-.72-1.26-1.41a.08.08,0,0,0-.1,0,.07.07,0,0,0,0,.1l1.25,1.41A.09.09,0,0,0,86.25,25.89Z"/><path class="cls-18" d="M84.94,24.91h.45a.07.07,0,0,0,0-.14h-.45a.07.07,0,0,0-.07.06A.07.07,0,0,0,84.94,24.91Z"/><path class="cls-15" d="M84.7,32.62c0,.19.47.12.79.13a3,3,0,0,1,.75,0,1.72,1.72,0,0,0-.5.12l-.18.09h0a1.69,1.69,0,0,0-.44.26c-.11.11.22.27.55.19s.34-.13.47-.17l.13,0a.22.22,0,0,1,.11,0l-.11.06-.18.1-.1.07c-.15.1-.41.49-.28.59a.13.13,0,0,0,.11,0,2.51,2.51,0,0,0,.43-.17,1.09,1.09,0,0,1,.41-.12,14.8,14.8,0,0,0,1.48-.08,1.44,1.44,0,0,0,.87-.4A.71.71,0,0,0,89.2,33h0a1.1,1.1,0,0,0,0-.57,1.32,1.32,0,0,0-1.05-1.07l-.07,0a3.1,3.1,0,0,0-.75-.28,1.81,1.81,0,0,0-.75.12h0l-.07.46h0a1.07,1.07,0,0,0-.47-.07,1.1,1.1,0,0,0-.26,0l-.17,0c-.2.06-.38.15-.5.19s0,.32.35.31a2.6,2.6,0,0,1,.64,0h0l.06,0h0a2.4,2.4,0,0,0-.6.06C85.24,32.32,84.71,32.43,84.7,32.62Z"/><path class="cls-18" d="M87.61,31.16A4.06,4.06,0,0,1,89.2,33s.39-.07.35-.34a3.88,3.88,0,0,0-1.78-1.77A.29.29,0,0,0,87.61,31.16Z"/><path class="cls-5" d="M62,60.51H60.72a.14.14,0,0,1-.14-.14V55h1.54v5.34A.14.14,0,0,1,62,60.51Z"/><path class="cls-5" d="M65.92,66.77v1h-.71V67.3a.22.22,0,0,0-.22-.22H62a.18.18,0,0,0-.19.19v.47h-.83v-.47a.18.18,0,0,0-.19-.19h-3a.23.23,0,0,0-.23.22v.44h-.71v-1a.4.4,0,0,1,.4-.4h3.74V53.75h.83V66.37h3.76A.4.4,0,0,1,65.92,66.77Z"/><path class="cls-5" d="M58.22,68.38a1.06,1.06,0,1,1-1.06-1.06A1.06,1.06,0,0,1,58.22,68.38Z"/><path class="cls-6" d="M57.16,69a.61.61,0,1,1,0-1.21.61.61,0,0,1,0,1.21Z"/><path class="cls-5" d="M62.41,68.38a1.06,1.06,0,1,1-1-1.06A1,1,0,0,1,62.41,68.38Z"/><path class="cls-6" d="M61.36,69a.61.61,0,1,1,.6-.6A.6.6,0,0,1,61.36,69Z"/><path class="cls-5" d="M66.63,68.38a1.06,1.06,0,1,1-1.06-1.06A1.06,1.06,0,0,1,66.63,68.38Z"/><path class="cls-6" d="M65.57,69a.61.61,0,0,1,0-1.21.61.61,0,1,1,0,1.21Z"/><path class="cls-6" d="M74.39,35.68,69.91,54.35a1.34,1.34,0,0,1-1.3,1H58.09a1.34,1.34,0,0,1-1.3-1.66l4.58-18.67a1.35,1.35,0,0,1,1.3-1H73.09A1.33,1.33,0,0,1,74.39,35.68Z"/><path class="cls-5" d="M73.24,35.68,68.75,54.35a1.34,1.34,0,0,1-1.3,1H56.93a1.34,1.34,0,0,1-1.3-1.66l4.58-18.67a1.35,1.35,0,0,1,1.31-1H71.93A1.34,1.34,0,0,1,73.24,35.68Z"/><path class="cls-6" d="M67.45,54.46H56.93a.42.42,0,0,1-.41-.52L61.1,35.27a.44.44,0,0,1,.42-.33H71.93a.41.41,0,0,1,.34.17.44.44,0,0,1,.08.36L67.87,54.14A.43.43,0,0,1,67.45,54.46Zm-5.93-19.4a.31.31,0,0,0-.31.23L56.63,54a.3.3,0,0,0,.06.27.28.28,0,0,0,.24.12H67.45a.32.32,0,0,0,.31-.24l4.48-18.67a.3.3,0,0,0-.06-.26.31.31,0,0,0-.25-.12Z"/><path class="cls-6" d="M50.66,55.93H68.32a1.51,1.51,0,0,0,1.48-1.17l.23-1H51.17Z"/><path class="cls-5" d="M50.9,55.93H67.19a1.51,1.51,0,0,0,1.47-1.17l.24-1h-18a1.1,1.1,0,0,0-1.07.85h0A1.09,1.09,0,0,0,50.9,55.93Z"/><polygon class="cls-3" points="45.54 64.65 45.08 65.75 43.18 65.23 43.64 64.13 45.54 64.65"/><path class="cls-16" d="M37.81,67l6.92,1.89a1,1,0,0,0,.2-.36,11.25,11.25,0,0,0,.33-2.18l0-.2c0-.1,0-.19,0-.25a.36.36,0,0,0-.32-.51c-.88.49-1.4-.76-1.95-.54,0,0-.24.09-.93.43a8.44,8.44,0,0,1-2.59.53c-1.14.15-1.55.5-1.69.79A.53.53,0,0,0,37.81,67Z"/><path class="cls-18" d="M37.81,67l6.92,1.89a1,1,0,0,0,.2-.36L37.85,66.6A.53.53,0,0,0,37.81,67Z"/><path class="cls-18" d="M44,68.7l.2,0a1.56,1.56,0,0,1-.07-1.21,2,2,0,0,1,1.1-1.19l0-.2A2.2,2.2,0,0,0,44,67.49,1.7,1.7,0,0,0,44,68.7Z"/><path class="cls-7" d="M42.14,65.72a.13.13,0,0,0,.14,0,.13.13,0,0,0-.05-.17l-.4-.22a.12.12,0,0,0-.16,0,.12.12,0,0,0,0,.17l.41.22S42.13,65.72,42.14,65.72Z"/><path class="cls-7" d="M42.64,65.5a.11.11,0,0,0,.14,0,.12.12,0,0,0-.05-.16l-.4-.23a.12.12,0,0,0-.12.21l.41.22S42.63,65.5,42.64,65.5Z"/><path class="cls-7" d="M41.64,65.86a.13.13,0,0,0,.14-.06.12.12,0,0,0-.05-.16l-.4-.23a.13.13,0,0,0-.17,0,.12.12,0,0,0,.05.16l.4.23Z"/><path class="cls-7" d="M41.14,66a.13.13,0,0,0,.14-.06.12.12,0,0,0-.05-.16l-.4-.22a.11.11,0,0,0-.16,0,.11.11,0,0,0,0,.16l.41.23Z"/><path class="cls-7" d="M40.61,66.08a.11.11,0,0,0,.13-.06.11.11,0,0,0,0-.16l-.4-.23a.13.13,0,0,0-.17.05.12.12,0,0,0,0,.16l.4.22Z"/><path class="cls-7" d="M40.05,66.13a.12.12,0,0,0,.13-.06.12.12,0,0,0,0-.16l-.41-.23a.12.12,0,0,0-.11.21l.4.23Z"/><path class="cls-20" d="M56.86,47.52s-8.54,2.16-9.68,3.13-3.7,12.81-3.71,13.48c0,.06,2.22.69,2.22.69s4.38-9.16,4.62-10.49c0,0,5-.6,7.3-1.93a9.19,9.19,0,0,0,3.12-2.68Z"/><path class="cls-21" d="M47.1,50.8a1.72,1.72,0,0,0,.92.8c.07,0,.13-.07.06-.1a1.69,1.69,0,0,1-.88-.76c0-.07-.14,0-.1.06Z"/><path class="cls-21" d="M43.71,63.32a12.08,12.08,0,0,1,2.2.73c.07,0,.13-.07.06-.1a12.44,12.44,0,0,0-2.23-.75.06.06,0,0,0,0,.12Z"/><path class="cls-21" d="M45.7,63.87c1.26-2.62,2.47-5.27,3.51-8,.28-.73.54-1.46.78-2.2l-.06,0a12.23,12.23,0,0,0,3.3-.46,23,23,0,0,0,2.52-1c.07,0,0-.14-.06-.11a20.66,20.66,0,0,1-2.49,1,12,12,0,0,1-3.27.46s0,0,0,0a73.69,73.69,0,0,1-3.25,8c-.34.73-.68,1.46-1,2.18,0,.07.07.13.1.06Z"/><path class="cls-3" d="M52.24,38.56a52.73,52.73,0,0,0-1,6.8c.11,1.27,2.39,2.55,2.39,2.55l1.59-.34a11.57,11.57,0,0,0-1.34-2.83l1-4.85Z"/><path class="cls-10" d="M55,40.23a1.86,1.86,0,0,1-.52.07h-.12a3.57,3.57,0,0,1-1.82-.76l-.1-.07a6.42,6.42,0,0,1-.9-.83,3.52,3.52,0,0,0,.17-.39l0-.11a23.23,23.23,0,0,0,.74-2.27,1,1,0,0,0,0-.14c.31-1.12.52-2,.52-2Z"/><path class="cls-22" d="M53.23,37a2.18,2.18,0,0,0-.41-.92h0l-.28-.36a1,1,0,0,1,0,.14c.08.1.16.2.22.29.3.46.58,1,.26,1.49a1.18,1.18,0,0,1-1.22.49l0,.11a1.37,1.37,0,0,0,1.21-.33A1.14,1.14,0,0,0,53.23,37Z"/><path class="cls-22" d="M53.65,39.09a1.06,1.06,0,0,0-1.22.38l.1.07a.94.94,0,0,1,.9-.39c.57.1.81.62.92,1.15h.12A1.5,1.5,0,0,0,53.65,39.09Z"/><path class="cls-10" d="M65.05,47h0a.44.44,0,0,1-.09.11,7.73,7.73,0,0,1-2.89.87l-.16,0h0c-.52.08-1.07.15-1.61.21h-.14c-2.4.23-4.81.12-4.87-.75,0-.1,0-.2,0-.3a.86.86,0,0,1,0-.16c0-.32,0-.66-.08-1h0a.86.86,0,0,0,0-.16h0c0-.51-.07-1.11-.11-1.88,0,0,0-.11,0-.16l0-.48c0-.11,0-.22,0-.33v-.14a1,1,0,0,1,0-.17c0-.34-.05-.68-.08-1,0-.06,0-.12,0-.18h0a11.92,11.92,0,0,0-.38-2.24h0l0-.08s0-.05,0-.08c-.14-.42-.28-.81-.42-1.18h0c0-.07,0-.14-.07-.21A27.79,27.79,0,0,1,53.06,35s0-.1,0-.15a3,3,0,0,1-.08-.86h0a.83.83,0,0,1,0-.15,2.29,2.29,0,0,1,.68-.85l.11-.09a12.66,12.66,0,0,1,1.72-1.18l2.58-1.19s1,.06,2.08.23h0l.13,0a7.48,7.48,0,0,1,1.24.31l.13,0,.18.09c.84.45,1.26,2.29,1.57,4.19,0,.09,0,.18.05.27.12.79.23,1.58.35,2.28,0,.05,0,.11,0,.17.07.39.14.74.21,1l.3,1.13,0,.18a29.6,29.6,0,0,1,.85,4.25c0,.08,0,.16,0,.24A4.94,4.94,0,0,1,65.05,47Z"/><path class="cls-22" d="M53.66,33a3.39,3.39,0,0,0,1.58.82,4,4,0,0,0,3.31-.73,5.44,5.44,0,0,0,1.73-2.29l-.13,0h0a6.28,6.28,0,0,1-.59,1.08,4.37,4.37,0,0,1-2.79,1.87,3.51,3.51,0,0,1-3-.81Z"/><path class="cls-22" d="M60.75,36.45a2.07,2.07,0,0,0-.41-.92h0c-.4-.56-.93-1.23-1.7-1.12a1.22,1.22,0,0,0-.86,1.53,2.27,2.27,0,0,0,1.07,1.61,1.39,1.39,0,0,0,1.59-.2A1.14,1.14,0,0,0,60.75,36.45Zm-.26.63a1.22,1.22,0,0,1-1.4.44A2,2,0,0,1,58,36.23c-.19-.57-.17-1.42.5-1.67s1.38.49,1.76,1S60.81,36.55,60.49,37.08Z"/><path class="cls-22" d="M54.47,39l0,.08,0,.08c.36-.47.73-.93,1.13-1.37a11.26,11.26,0,0,1,.81-.88c.15-.14.48-.31.6,0a1.15,1.15,0,0,1,0,.58,6.57,6.57,0,0,1-.66,2,7.81,7.81,0,0,1-1.47,2h0c0,.06,0,.12,0,.18.25-.25.49-.5.72-.77A7.67,7.67,0,0,0,56.75,39a7.27,7.27,0,0,0,.35-1.12,5.2,5.2,0,0,0,.11-.67.65.65,0,0,0-.05-.39c-.16-.27-.53-.17-.73,0a7.42,7.42,0,0,0-.94,1Q55,38.39,54.47,39Z"/><path class="cls-22" d="M55,42.78v.14a6.43,6.43,0,0,0,1.08-.62A19.31,19.31,0,0,0,58.67,40c.42-.42.84-.83,1.29-1.22a4.83,4.83,0,0,1,1.41-1,2.67,2.67,0,0,1,2.45.31.88.88,0,0,0,0-.17,2.77,2.77,0,0,0-2.47-.27,4.7,4.7,0,0,0-1.33.87c-.46.4-.9.82-1.34,1.26A15,15,0,0,1,55,42.78Z"/><path class="cls-22" d="M62,42.89c.5.29,1,.45,1.57.71a5.37,5.37,0,0,1,1.24.88,4.41,4.41,0,0,1,.46.51c0-.08,0-.16,0-.24l-.28-.29a5.51,5.51,0,0,0-1-.82A14.87,14.87,0,0,0,62.48,43a2.62,2.62,0,0,1-1.22-.93,1.19,1.19,0,0,1,0-1.4c.66-.91,2-.71,2.89-.28l.21.11,0-.18a3.39,3.39,0,0,0-.39-.18,2.35,2.35,0,0,0-2.78.44C60.52,41.45,61.16,42.43,62,42.89Z"/><path class="cls-22" d="M60.8,46.77q.53.61,1.11,1.2h0l.16,0c-.39-.4-.77-.8-1.14-1.23s-.86-1.22-.45-1.87,1.43-.19,2,.09A7.18,7.18,0,0,1,65,47.07a.44.44,0,0,0,.09-.11,7.23,7.23,0,0,0-1.2-1.27A6.93,6.93,0,0,0,62,44.57a1.8,1.8,0,0,0-1.09-.19.92.92,0,0,0-.63.57A1.83,1.83,0,0,0,60.8,46.77Z"/><path class="cls-22" d="M59.49,42.43c-.07.43-.59.69-.92.93l-3.4,2.41h0v.16L57,44.66l1.29-.91.67-.48a2.33,2.33,0,0,0,.46-.37.74.74,0,0,0,.15-.91c-.22-.3-.64-.23-1-.15a9.16,9.16,0,0,0-3.53,1.89c0,.05,0,.11,0,.16a10.62,10.62,0,0,1,1.34-1A9.16,9.16,0,0,1,58.56,42a1.2,1.2,0,0,1,.62-.07A.43.43,0,0,1,59.49,42.43Z"/><path class="cls-22" d="M55.26,47v.16a7.51,7.51,0,0,1,1.22-.87,2.62,2.62,0,0,1,1.72-.2,2.57,2.57,0,0,1,1.95,2.12h.14a2.81,2.81,0,0,0-.62-1.37,2.71,2.71,0,0,0-3.11-.72A5.82,5.82,0,0,0,55.26,47Z"/><path class="cls-22" d="M56.84,32.86a2.55,2.55,0,0,1-1.44-.5.09.09,0,0,1,0-.13.09.09,0,0,1,.12,0,2.3,2.3,0,0,0,1.53.45,1.8,1.8,0,0,0,1.19-.82.09.09,0,0,1,.14.1,2,2,0,0,1-1.31.89Z"/><path class="cls-21" d="M53.92,25.77s-.82.64-.67,1.26a3.39,3.39,0,0,0,.83,1.28A6.93,6.93,0,0,0,53.92,25.77Z"/><path class="cls-4" d="M54,27.93a.41.41,0,0,0-.27.43c0,.37.27.93.62.8S54,27.93,54,27.93Z"/><path class="cls-3" d="M55.53,31.9a2.11,2.11,0,0,0,.62.35,1.42,1.42,0,0,0,.7.08l.11,0,.12,0a1.31,1.31,0,0,0,.37-.15,2,2,0,0,0,.85-.81,2.87,2.87,0,0,0,.28-.67l-.15-.29c-.22-.45-.41-.93-.6-1.42v-.05l0-.09,0-.08-.08.07-.13.1-2.15,1.79,0,.37,0,.19,0,.34h0Z"/><path class="cls-3" d="M57.86,28.8h0a.29.29,0,0,1,0,.09v.05a1.54,1.54,0,0,1,0,.17,2.77,2.77,0,0,1-2.19,1.94h-.16c-.91-.09-1.27-1.06-1.27-1.83v-.08s0-.05,0-.14,0-.17-.06-.29c-.07-.34-.18-.85-.32-1.34a2.4,2.4,0,0,1,1.93-2.8,1.89,1.89,0,0,1,2.67,1.62,3.21,3.21,0,0,1,0,.8.5.5,0,0,1,.51.34C59.07,27.86,58.49,28.65,57.86,28.8Z"/><path class="cls-5" d="M54.4,28.2c0,.13.11.21.17.2s.09-.13.06-.26-.11-.21-.17-.19S54.37,28.08,54.4,28.2Z"/><path class="cls-5" d="M54.78,28v0s0,0,0,0a.55.55,0,0,0-.59.07,0,0,0,0,0,0,.05,0,0,0,0,0,.05,0,.49.49,0,0,1,.51-.06Z"/><path class="cls-5" d="M55.48,28c0,.12.11.21.18.2s.09-.13.06-.26-.11-.21-.18-.19S55.45,27.84,55.48,28Z"/><path class="cls-5" d="M55.86,27.74l0,0s0,0,0,0a.53.53,0,0,0-.58.07s0,0,0,.05h0a.49.49,0,0,1,.51-.06Z"/><g class="cls-14"><path class="cls-4" d="M55.81,28.51c0,.08.24.11.49,0s.45-.16.44-.24-.24-.11-.5-.06S55.79,28.42,55.81,28.51Z"/></g><g class="cls-14"><path class="cls-4" d="M54.14,29c.17-.06.29-.14.27-.21s-.15-.09-.33-.08C54.1,28.83,54.12,28.92,54.14,29Z"/></g><path class="cls-7" d="M54.71,28.76a.05.05,0,0,1-.05,0h0a.62.62,0,0,1-.27.21.64.64,0,0,1-.85-.35.65.65,0,0,1,1.2-.5.57.57,0,0,1,0,.34l0,0,.08,0a.68.68,0,0,0-.06-.34.77.77,0,1,0-.41,1,.78.78,0,0,0,.34-.28Z"/><path class="cls-7" d="M56.08,28.63a.77.77,0,1,1-.6-1.42.78.78,0,0,1,1,.41A.77.77,0,0,1,56.08,28.63Zm-.55-1.31a.65.65,0,1,0,.85.35A.65.65,0,0,0,55.53,27.32Z"/><path class="cls-7" d="M53.58,28.64h-.06a.07.07,0,0,1,0-.09.79.79,0,0,1,.38-.27.05.05,0,0,1,.08,0,.06.06,0,0,1,0,.08.76.76,0,0,0-.33.23A0,0,0,0,1,53.58,28.64Z"/><path class="cls-7" d="M56.31,27.37A1.7,1.7,0,0,1,57.38,27v.12a1.64,1.64,0,0,0-1,.35.05.05,0,0,1-.08,0A.06.06,0,0,1,56.31,27.37Z"/><path class="cls-5" d="M55.53,31.9A2.52,2.52,0,0,0,57,30.32a2.16,2.16,0,0,1-1.44.73h-.16Z"/><path class="cls-21" d="M54.76,25.88a1.94,1.94,0,0,1,1.67-.4.77.77,0,0,1,.45.81c-.11.37.25.37.36.53s-.2.75-.2.75l.43.21s.07-.18.17-.41.67-.38.67-.38a3.16,3.16,0,0,0,.18-1.13,2.49,2.49,0,0,0-3-1.54s-.49-.88-1-.78a.6.6,0,0,0-.5.6s-.65-.42-.93.06.26,1,.26,1-.82-.08-.77.42,1.07.72,1.07.72S54,26.45,54.76,25.88Z"/><path class="cls-21" d="M57.66,25.05s.55-.61.89-.38-.19.56-.19.56.49-.12.57.17-.59.49-.59.49Z"/><path class="cls-4" d="M57.38,28.78a.42.42,0,0,0,.16.11.63.63,0,0,0,.29.05v-.05a.29.29,0,0,0,0-.09h-.18a.3.3,0,0,1-.19-.1.07.07,0,0,0-.1,0A.06.06,0,0,0,57.38,28.78Z"/><path class="cls-7" d="M55.74,29s.1.6-.39.73a.51.51,0,0,1-.64-.33Z"/><path class="cls-4" d="M55.5,29.93a.29.29,0,0,0,.13-.12,0,0,0,0,0,0-.06s0,0-.06,0a.18.18,0,0,1-.18.1s0,0,0,0,0,0,0,.05A.32.32,0,0,0,55.5,29.93Z"/><path class="cls-4" d="M57.93,28.32a.07.07,0,0,0,0-.07,1.07,1.07,0,0,1,.5-.8.08.08,0,0,0,0-.1.07.07,0,0,0-.09,0,1.21,1.21,0,0,0-.56.93.07.07,0,0,0,.07.06Z"/><path class="cls-4" d="M58.45,27.93h0a.07.07,0,0,0,0-.1.46.46,0,0,0-.44-.11.07.07,0,0,0-.05.09.07.07,0,0,0,.08,0,.36.36,0,0,1,.32.08A.06.06,0,0,0,58.45,27.93Z"/><path class="cls-4" d="M55.07,28.93l0,0a.07.07,0,0,0,0-.08l-.43-.16.29-.19,0,0,.1-.86s0-.07-.06-.08-.07,0-.07.06l-.11.83-.36.24s0,0,0,.07a.07.07,0,0,0,0,.05l.55.2A.06.06,0,0,0,55.07,28.93Z"/><path class="cls-7" d="M55.08,27.86H55a.15.15,0,0,0-.22,0,.07.07,0,0,1-.09,0,.06.06,0,0,1,0-.08.26.26,0,0,1,.39-.08.05.05,0,0,1,0,.08Z"/><path class="cls-5" d="M56.18,27.05a.22.22,0,0,0,0-.08.18.18,0,0,0-.11-.24.88.88,0,0,0-.92.22.18.18,0,1,0,.28.24.5.5,0,0,1,.51-.11A.18.18,0,0,0,56.18,27.05Z"/><path class="cls-5" d="M54,27.48a.2.2,0,0,0,.13-.09c.08-.14.34-.13.41-.12a.2.2,0,0,0,.21-.16.19.19,0,0,0-.16-.21.78.78,0,0,0-.78.3.19.19,0,0,0,.07.26A.17.17,0,0,0,54,27.48Z"/><path class="cls-20" d="M65.14,46.66a23.74,23.74,0,0,1-7.7,1.26,3.18,3.18,0,0,1-2.17-.6c-.08.39-.44.62-.94.87,0,0,4.61,1.63,8.35.73C65.71,49.2,65.14,46.66,65.14,46.66Z"/><polygon class="cls-3" points="55.8 65.55 55.65 66.74 53.67 66.74 53.83 65.56 55.8 65.55"/><path class="cls-16" d="M49,69.86h7.18a1.07,1.07,0,0,0,.09-.4A11.67,11.67,0,0,0,56,67.27l0-.2c0-.1,0-.19,0-.25a.37.37,0,0,0-.45-.41c-.72.71-1.55-.36-2,0,0,0-.2.15-.77.66a8.87,8.87,0,0,1-2.36,1.21c-1.06.44-1.37.89-1.42,1.19A.53.53,0,0,0,49,69.86Z"/><path class="cls-18" d="M49,69.86h7.18a1.07,1.07,0,0,0,.09-.4H48.9A.53.53,0,0,0,49,69.86Z"/><path class="cls-18" d="M55.41,69.86h.21a1.62,1.62,0,0,1-.39-1.15A2,2,0,0,1,56,67.27l0-.2a2.19,2.19,0,0,0-.89,1.63A1.73,1.73,0,0,0,55.41,69.86Z"/><path class="cls-7" d="M52.8,67.49a.13.13,0,0,0,.12-.09.12.12,0,0,0-.09-.14l-.45-.12a.12.12,0,0,0-.14.09.11.11,0,0,0,.09.14l.44.12Z"/><path class="cls-7" d="M53.23,67.15a.12.12,0,0,0,.11-.09.12.12,0,0,0-.08-.15l-.45-.11a.12.12,0,0,0-.15.09.13.13,0,0,0,.09.14l.45.11Z"/><path class="cls-7" d="M52.36,67.75a.12.12,0,0,0,.11-.09.11.11,0,0,0-.09-.14l-.45-.11a.11.11,0,0,0-.14.08.13.13,0,0,0,.09.15l.45.11Z"/><path class="cls-7" d="M51.91,68a.11.11,0,0,0,.11-.09.11.11,0,0,0-.08-.14l-.45-.11a.12.12,0,0,0-.15.08.13.13,0,0,0,.09.15l.45.11Z"/><path class="cls-7" d="M51.42,68.23a.11.11,0,0,0,.11-.09.11.11,0,0,0-.08-.14L51,67.89a.11.11,0,0,0-.14.09.11.11,0,0,0,.08.14l.45.11Z"/><path class="cls-7" d="M50.89,68.43a.11.11,0,0,0,.11-.09.11.11,0,0,0-.08-.14l-.45-.11a.11.11,0,0,0-.14.08.12.12,0,0,0,.08.15l.45.11Z"/><path class="cls-20" d="M60.35,48.16S55.21,50.38,53.57,52s-.22,13.82-.22,13.82a18.85,18.85,0,0,0,2.63.07c.47-4.27,1.51-9.6,1.29-11.47,0,0,6.61-.85,7.61-2.47.9-1.45.33-4.92.33-4.92Z"/><path class="cls-21" d="M53.17,53.21a4.38,4.38,0,0,0,1.57.16c.07,0,.07-.12,0-.11a4.47,4.47,0,0,1-1.54-.16.06.06,0,0,0,0,.11Z"/><path class="cls-21" d="M53.39,65.26c.86,0,1.73-.05,2.59-.05a.06.06,0,1,0,0-.12c-.86,0-1.73,0-2.59,0a.06.06,0,0,0,0,.12Z"/><path class="cls-21" d="M59,48.52c-1,.56-2,1-3,1.57A6.9,6.9,0,0,0,53.56,52a3.89,3.89,0,0,0-.71,1.75c0,.08.1.11.11,0A4.12,4.12,0,0,1,54.8,51a23.39,23.39,0,0,1,2.73-1.51c.52-.27,1-.53,1.53-.83.07,0,0-.14-.06-.1Z"/><path class="cls-21" d="M64.51,46.87a23.86,23.86,0,0,1,.23,2.39A3.35,3.35,0,0,1,64,51.82a3.42,3.42,0,0,1-1.1.54,14.28,14.28,0,0,1-1.42.4c-1,.24-2,.41-3,.55-.58.08-1.16.15-1.74.2,0,0-.06,0-.06.06a12.58,12.58,0,0,1,0,2.53c-.06.62-.18,1.23-.29,1.84s-.17,1.29-.22,2c-.08.84-.16,1.67-.25,2.51s-.17,1.83-.23,2.75a.06.06,0,0,0,.12,0c.1-1.65.3-3.3.45-5,.06-.7.11-1.4.22-2.09s.22-1.16.3-1.74a13.11,13.11,0,0,0,0-2.73,37.93,37.93,0,0,0,4.52-.7A8.39,8.39,0,0,0,63.9,52a2.88,2.88,0,0,0,.95-2.34,19.52,19.52,0,0,0-.21-2.85Z"/><path class="cls-7" d="M64.34,51.19a1.64,1.64,0,0,1-.42-.06c-1.22-.37-1.8-3.6-1.83-3.73l.2,0s.59,3.24,1.69,3.58a.81.81,0,0,0,.83-.13c.9-.81.24-4,.23-4.07l.2,0c0,.14.69,3.37-.29,4.26A.84.84,0,0,1,64.34,51.19Z"/><path class="cls-5" d="M60.15,47.87,50.68,49.4s0,0,0,0l-.19-1.18s0,0,0,0L60,46.63s0,0,0,0l.19,1.17S60.17,47.87,60.15,47.87Z"/><path class="cls-5" d="M49.65,49.57a.8.8,0,0,1-.86-.46l-2.86-6.39a.65.65,0,0,1,.49-.91l4.26-.69a.64.64,0,0,1,.7.37l3.37,7.26Z"/><path class="cls-8" d="M51.67,47.57l-.14-.34.29,0-.17-.31L52,46.8l.17.31.24,0-.17-.31.38-.07.17.31.33-.06.15.34-.29,0,.15.29.34-.06.14.35-.29.05.17.31-.38.07L53,48l-.24,0,.18.31-.39.07-.17-.31L52,48.2l-.14-.35.28-.05L52,47.51Zm.88.16.23,0-.15-.29-.24.05Z"/><path class="cls-11" d="M46.73,43.69a1.13,1.13,0,0,0,1.1.62c.4-.07.56-.46.34-.87a1.13,1.13,0,0,0-1.1-.62C46.67,42.89,46.51,43.28,46.73,43.69Z"/><path class="cls-5" d="M47.5,43.4c0,.08.1.15.14.14s0-.08,0-.16-.1-.14-.14-.14S47.45,43.32,47.5,43.4Z"/><path class="cls-5" d="M47.12,43.47c0,.08.1.14.14.13s0-.07,0-.16-.1-.14-.14-.13S47.08,43.38,47.12,43.47Z"/><path class="cls-5" d="M47.63,43.93c.31-.06.22-.39.22-.39a.1.1,0,0,0-.05,0s0,0,0,0,.08.28-.18.32a.52.52,0,0,1-.47-.22,0,0,0,0,0-.05,0s0,0,0,0A.66.66,0,0,0,47.63,43.93Z"/><path class="cls-5" d="M51.38,41.49l3.34,7.2.49-.08-3.34-7.2a.65.65,0,0,0-.7-.37l-.49.08A.64.64,0,0,1,51.38,41.49Z"/><path class="cls-3" d="M54,46a1.19,1.19,0,0,1,1.16-.27,4.92,4.92,0,0,1,1.62,1.37l-2.11.34Z"/><path class="cls-6" d="M54.66,48.65h0a.07.07,0,0,0,0-.09l-3.32-7.19a.07.07,0,0,0-.1,0,.07.07,0,0,0,0,.09l3.32,7.19A.07.07,0,0,0,54.66,48.65Z"/><path class="cls-6" d="M50.77,45.36a.59.59,0,0,1-.46.85,1,1,0,0,1-1.06-.61.59.59,0,0,1,.46-.85A1,1,0,0,1,50.77,45.36Z"/><path class="cls-3" d="M60.59,34.24l.15.16.15.16.3.34c.2.22.41.45.6.68.4.45.78.92,1.14,1.39s.69,1,1,1.44c.14.24.28.48.4.71a6.25,6.25,0,0,1,.28.69l0,.08v0h0v0a.15.15,0,0,1,0-.08s0,.07,0,.16-.06.19-.1.31-.1.23-.16.35a7.87,7.87,0,0,1-.4.75c-.07.13-.15.25-.23.38l-.24.38c-.16.26-.33.51-.51.76s-.35.51-.53.76-.36.51-.55.76l-.28.37-.14.19-.14.18v0a1,1,0,0,0,1.41,1.28l.19-.17.18-.17.35-.34.69-.7c.22-.24.45-.48.67-.73s.43-.5.65-.76.21-.25.31-.39.21-.27.31-.41a9.51,9.51,0,0,0,.6-.87c.09-.16.19-.32.28-.5a5.31,5.31,0,0,0,.25-.58,3.2,3.2,0,0,0,.2-.76,2.09,2.09,0,0,0,0-.56.22.22,0,0,0,0-.08s0-.06,0-.09v-.11a.83.83,0,0,0,0-.15,7.23,7.23,0,0,0-.38-1.11,9.85,9.85,0,0,0-.47-1,19.36,19.36,0,0,0-1.1-1.76c-.39-.55-.81-1.08-1.23-1.6-.22-.25-.44-.51-.66-.75s-.23-.25-.34-.37L63,32.28l-.18-.19a1.54,1.54,0,0,0-2.17,0,1.52,1.52,0,0,0,0,2.14Z"/><path class="cls-4" d="M65.15,39.18a2.24,2.24,0,0,0-.29.38c0,.06.06.12.1.06a2.42,2.42,0,0,1,.27-.36c0-.06,0-.14-.08-.08Z"/><path class="cls-4" d="M64.63,39.78a1.4,1.4,0,0,1,.93-.43.06.06,0,0,1,0,.12,1.26,1.26,0,0,0-.86.38.05.05,0,1,1-.08-.07Z"/><path class="cls-3" d="M62.63,45.63a.93.93,0,0,1-.56,1.16,2,2,0,0,0-.68.38c-.41.37-.79.93-1,1.06s-.26-.25-.23-.3a6.65,6.65,0,0,1,.44-.78,5.43,5.43,0,0,0-.86,1c-.16.34-.48.42-.52,0A2.82,2.82,0,0,1,60,46.7a2,2,0,0,0-.76.73,1.5,1.5,0,0,1-.54.69c-.17.11-.36-.25,0-.87a2.24,2.24,0,0,1,.9-1,3.94,3.94,0,0,0-.69.25c-.41.19-.63.73-.91.73s0-.62.31-.89a2.65,2.65,0,0,1,1-.66,6.38,6.38,0,0,1,1.29-.34c.32,0,1.44-.29,1.84,0A.54.54,0,0,1,62.63,45.63Z"/><path class="cls-3" d="M61.46,45.26a4.15,4.15,0,0,0-1.26-.15c-.32.09-.85,0-.81.27s.69.24.69.24Z"/><path class="cls-10" d="M59.78,34c.17.77,1.55,1.76,2.29,2.66l.28.31a4.77,4.77,0,0,1,.46.61,6.23,6.23,0,0,0,2.34-2.07l.08-.12a3.25,3.25,0,0,0,.34-.91A10.14,10.14,0,0,0,63,31.92l-.13-.09a7.56,7.56,0,0,0-1.13-.63,3.32,3.32,0,0,0-1.09.57l-.12.1A2.24,2.24,0,0,0,59.78,34Z"/><path class="cls-22" d="M63.39,33.94a6.34,6.34,0,0,0,1.76,1.58l.08-.12A6.51,6.51,0,0,1,63.58,34a2.75,2.75,0,0,1-.57-2l-.13-.09A2.76,2.76,0,0,0,63.39,33.94Z"/><path class="cls-22" d="M62,36.56a.57.57,0,0,1,.11.11,3.87,3.87,0,0,0-.1-2.13,6.66,6.66,0,0,0-1.36-2.77l-.1-.1c-.07-.07-.17,0-.1.11l.08.09a6.28,6.28,0,0,1,1.29,2.53A4.19,4.19,0,0,1,62,36.56Z"/><path class="cls-23" d="M60.45,34.61c.74,1,1.52,2,2.32,3,0,.06.13,0,.08-.08-.8-1-1.56-2-2.3-3,0-.06-.14,0-.1,0Z"/><path class="cls-23" d="M60.66,35.52l.7.3c.07,0,.13-.07.06-.1l-.7-.3c-.07,0-.12.07-.06.1Z"/><path class="cls-23" d="M54.78,40.05A12.85,12.85,0,0,0,53.38,36c0-.06-.13,0-.1.06a12.67,12.67,0,0,1,1.39,4c0,.08.12.05.11,0Z"/><rect class="cls-21" x="7.55" y="63.51" width="9.34" height="0.74" rx="0.11"/><rect class="cls-24" x="7.7" y="55.31" width="9.05" height="1.56" rx="0.26"/><path class="cls-10" d="M17,50.47s0,.24-.09.62c0,.06,0,.12,0,.18a6.28,6.28,0,0,1-1.11,2.47h0a1.34,1.34,0,0,1-.11.14,4,4,0,0,1-.82.76l-.1.07a4.17,4.17,0,0,1-1.91.67h0l-.14,0h0l-.47,0a5.09,5.09,0,0,1-1.73-.29l-.1,0a4.56,4.56,0,0,1-1.69-1.17l-.1-.11a6.16,6.16,0,0,1-1-1.49.36.36,0,0,0,0-.09A7.52,7.52,0,0,1,7,50.47Z"/><path class="cls-22" d="M9,50.47A4.91,4.91,0,0,1,7.6,52.32a.36.36,0,0,0,0-.09,4.77,4.77,0,0,0,1.36-1.76Z"/><path class="cls-22" d="M10.51,50.47a5,5,0,0,0-1.42,1.78,4.2,4.2,0,0,0-.43,1.67l-.1-.11a4.42,4.42,0,0,1,.35-1.41,5.16,5.16,0,0,1,1.43-1.93Z"/><path class="cls-22" d="M14.8,54.64l-.1.07a4.89,4.89,0,0,1,1.2-4.24h.15A4.76,4.76,0,0,0,14.8,54.64Z"/><path class="cls-22" d="M13.4,54.55c-.2.28-.4.56-.61.83h0l-.14,0c.29-.38.58-.78.84-1.18.15-.24.42-.58.32-.88s-.65-.22-.91-.12a6,6,0,0,0-2.45,1.91l-.1,0a8.58,8.58,0,0,1,1-1,4.69,4.69,0,0,1,1.32-.88c.33-.13.93-.37,1.2,0S13.62,54.23,13.4,54.55Z"/><path class="cls-22" d="M16.88,51.09c0,.06,0,.12,0,.18a3.57,3.57,0,0,0-1.11,2.47h0a1.34,1.34,0,0,1-.11.14A3.68,3.68,0,0,1,16.88,51.09Z"/><path class="cls-22" d="M14.81,50.47l-.62.56a17.63,17.63,0,0,1-1.63,1.21,5.73,5.73,0,0,1-.86.51.71.71,0,0,1-.73,0c-.46-.34-.21-1,0-1.46a3.43,3.43,0,0,1,.57-.8h.15a3,3,0,0,0-.69,1,1.38,1.38,0,0,0-.15.89c.12.41.53.43.86.27a8.73,8.73,0,0,0,1.45-.93,14.87,14.87,0,0,0,1.5-1.23Z"/><ellipse class="cls-5" cx="11.99" cy="50.47" rx="4.98" ry="0.28"/><path class="cls-16" d="M7.33,44c-.13.82-.68,1.15-.19,1.58s1.44,1.07.94,1.88.16,1.06.81,1.57a1.31,1.31,0,0,1,.55,1.44h2.7a2,2,0,0,0-.42-1.32c-.67-.92-.82-.76-.75-1.42s.23-.89-.36-1.43-.93-1-.69-1.69A1.65,1.65,0,0,0,9,42.75c-.72-.42-.4-1.28-.8-2.39a3.7,3.7,0,0,0-1.61-1.74c.9,1.43-.15,2.64-.08,3.68S7.46,43.21,7.33,44Z"/><path class="cls-18" d="M10.49,50.51h.17L7.85,42a.09.09,0,0,0-.1,0h0s-.07.06,0,.1Z"/><path class="cls-16" d="M14.86,50.51a1.3,1.3,0,0,1,.54-1.44c.66-.51,1.31-.76.81-1.57s.45-1.43.94-1.86-.06-.76-.19-1.58.75-.7.82-1.73-1-2.24-.08-3.66a3.71,3.71,0,0,0-1.61,1.73c-.4,1.11-.07,2-.79,2.38a1.65,1.65,0,0,0-.92,1.88c.24.75-.1,1.14-.69,1.69s-.43.75-.36,1.42-.07.5-.74,1.41a2.09,2.09,0,0,0-.42,1.33Z"/><path class="cls-18" d="M13.81,50.51l2.79-8.45a.09.09,0,0,0-.05-.1h0a.09.09,0,0,0-.1,0l-2.79,8.5Z"/><path class="cls-16" d="M10.09,43.77c.39.63,1.2,1.62.39,2.32s-.18,1.19.35,2,.41,1.21-.22,2.34l-.06.12h3.34a2.39,2.39,0,0,0-.07-1.4c-.42-1.2-.63-1.08-.33-1.77s.54-.87.09-1.65-.69-1.32-.18-2A1.86,1.86,0,0,0,13,41.31c-.63-.69,0-1.5-.06-2.82a4.16,4.16,0,0,0-1.15-2.4c.49,1.83-1,2.78-1.31,3.91s.72,1.3.31,2.14S9.71,43.14,10.09,43.77Z"/><path class="cls-18" d="M12.25,50.51l-.19-10.4A.09.09,0,0,0,12,40h0a.09.09,0,0,0-.09.09l.19,10.4Z"/><polygon class="cls-20" points="10.97 56.87 10.71 57.71 7.09 69.38 6.38 69.38 8.68 57.95 8.9 56.87 10.97 56.87"/><polygon class="cls-21" points="8.9 56.87 10.97 56.87 10.71 57.71 8.68 57.95 8.9 56.87"/><polygon class="cls-20" points="18.09 69.38 17.38 69.38 13.66 57.37 13.51 56.87 15.58 56.87 15.63 57.13 15.63 57.13 18.09 69.38"/><polygon class="cls-21" points="15.63 57.13 13.66 57.37 13.51 56.87 15.58 56.87 15.63 57.13"/><rect class="cls-24" x="7.55" y="61.9" width="9.34" height="0.74" rx="0.37"/><polygon class="cls-8" points="95.68 60.63 95.66 60.79 95.63 60.97 95.6 61.19 95.48 62.11 95.46 62.21 95.33 63.17 95.32 63.28 94.8 67.09 94.79 67.19 94.52 69.16 88.99 69.16 88.91 68.6 88.9 68.5 88.86 68.2 88.84 68.1 88.61 66.41 88.6 66.29 88.08 62.49 88.06 62.38 87.97 61.69 87.83 60.63 95.68 60.63"/><path class="cls-9" d="M89.6,64.83a2.4,2.4,0,0,1-1,1.58v-.12a2.25,2.25,0,0,0,.89-2.14,2.19,2.19,0,0,0-1.41-1.65v-.12a2.1,2.1,0,0,1,.61.32A2.24,2.24,0,0,1,89.6,64.83Z"/><path class="cls-9" d="M95.48,62.11l0,.1a2.72,2.72,0,0,0-1.84.52,2.88,2.88,0,0,1-1.56.72,1.49,1.49,0,0,1-1.28-2.28c0-.06.13,0,.09,0a1.42,1.42,0,0,0,.41,1.89A1.54,1.54,0,0,0,93,63a5.8,5.8,0,0,1,1.54-.85A2.8,2.8,0,0,1,95.48,62.11Z"/><path class="cls-9" d="M95.66,60.79l0,.18a1,1,0,0,1-.18.23,1.9,1.9,0,0,1-1.17.62,1.86,1.86,0,0,1-1.43-.45,1.25,1.25,0,0,1-.23-.23c-.05,0,0-.12.07-.07a1.7,1.7,0,0,0,.31.29,1.73,1.73,0,0,0,2.3-.15,2,2,0,0,0,.31-.39S95.64,60.79,95.66,60.79Z"/><path class="cls-9" d="M95.33,63.18v.1a1,1,0,0,0-.56.19,1.07,1.07,0,0,0-.41,1.08,5,5,0,0,1,.28.93,1,1,0,0,1-.3.71c-.45.52-1.16.62-1.69,1a1.45,1.45,0,0,0-.4,1.82l.08.13H92.2a.75.75,0,0,1-.07-.12,1.55,1.55,0,0,1,.31-1.8c.57-.53,1.49-.58,1.93-1.27.26-.4.1-.77-.05-1.18a1.23,1.23,0,0,1,0-1A1.13,1.13,0,0,1,95.33,63.18Z"/><path class="cls-9" d="M93.78,68.22a1,1,0,0,0,.57.94h-.2a1.14,1.14,0,0,1,.65-2.07v.1A1.06,1.06,0,0,0,93.78,68.22Z"/><path class="cls-9" d="M93.37,65c-.05.46-.48.72-.82,1a5.59,5.59,0,0,0-1.18,1.15,2.4,2.4,0,0,0-.43,2h-.11a2.48,2.48,0,0,1,.33-1.92,4.68,4.68,0,0,1,1-1.11c.19-.16.38-.3.58-.45a1.16,1.16,0,0,0,.51-.7c.08-.68-.79-.78-1.26-.75a1.66,1.66,0,0,0-1.29.61,3.38,3.38,0,0,0-.42,1.36,3.3,3.3,0,0,1-.54,1.38,1.77,1.77,0,0,1-.9.62v-.1a1.32,1.32,0,0,0,.45-.21,2.47,2.47,0,0,0,.86-1.55A6.54,6.54,0,0,1,90.49,65a1.54,1.54,0,0,1,.9-.78,2.35,2.35,0,0,1,1.34-.06A.79.79,0,0,1,93.37,65Z"/><path class="cls-9" d="M90,69.16h-.11a.76.76,0,0,0-.3-.47.81.81,0,0,0-.67-.09v-.1a.84.84,0,0,1,.82.17A.89.89,0,0,1,90,69.16Z"/><polygon class="cls-5" points="95.68 60.63 95.66 60.79 95.63 60.97 95.6 61.19 95.45 61.2 95.3 61.21 93 61.36 92.85 61.37 87.97 61.69 87.83 60.63 95.68 60.63"/><path class="cls-8" d="M96.38,60.68a55,55,0,0,1-9.25,0v-.84h9.25Z"/><path class="cls-16" d="M94.27,49.94c-.29.35-.49,1.63-1,1.83-.38.15-.58-.4.16-1.1a2.85,2.85,0,0,0,.77-1.3,10.56,10.56,0,0,0-.52-1.68c-.42.4-1.1,1-1.3.69s.43-1.21.78-1.68a2.71,2.71,0,0,0-.55-.61,1.75,1.75,0,0,0-1.17-.42,1.52,1.52,0,0,0-.88.33c.38.75.94,2,.54,2.31s-.89-.78-1.22-1.57a7,7,0,0,0-.91,2.65,1.64,1.64,0,0,0,.52.56c.72.52,1.57,1.56,1.15,1.8s-.88-.39-1.19-.93a2.32,2.32,0,0,0-.55-.66,3.84,3.84,0,0,0,0,.48,3,3,0,0,0,3,3A3.15,3.15,0,0,0,94.27,49.94ZM90.61,50c-.29,0-.75-.54-1-.84s-.05-.51.16-.45h0C90.11,48.8,91,50,90.61,50Zm2.54-.72h0c.2-.06.37.08.28.35s-.3.48-.56.35S92.86,49.37,93.15,49.28Z"/><path class="cls-5" d="M91.56,49.19a15.08,15.08,0,0,1,.08,4,35.22,35.22,0,0,0-.19,4.23,11.94,11.94,0,0,0,.31,2.38c0,.07.12,0,.11,0-.69-2.8-.06-5.64,0-8.47a9.82,9.82,0,0,0-.17-2.1c0-.07-.11,0-.1,0Z"/><path class="cls-16" d="M90.25,53.64c0,.45.56,1.61.24,2.1-.23.34-.71,0-.53-1a2.83,2.83,0,0,0-.14-1.51,11,11,0,0,0-1.41-1c-.11.57-.33,1.42-.65,1.32s-.37-1.22-.36-1.81a2.61,2.61,0,0,0-.8-.17,1.76,1.76,0,0,0-1.19.35,1.56,1.56,0,0,0-.53.78c.75.39,2,1.08,1.81,1.55s-1.18-.11-1.91-.54a6.84,6.84,0,0,0,.83,2.67,1.73,1.73,0,0,0,.75.15c.88,0,2.19.33,2,.77s-.93.21-1.51-.05A2.36,2.36,0,0,0,86,57l.29.4a3,3,0,0,0,4.2.62A3.16,3.16,0,0,0,90.25,53.64Zm-2.92,2.21c-.24.16-.92,0-1.27-.11s-.34-.39-.14-.46h0C86.22,55.17,87.63,55.63,87.33,55.85ZM89,53.77h0c.14-.17.35-.16.43.11s0,.56-.24.61S88.78,54,89,53.77Z"/><path class="cls-5" d="M87.62,54.63a14.67,14.67,0,0,1,1.91,2,10.28,10.28,0,0,1,1,1.86l.62,1.38c0,.06.12,0,.09,0-.34-.76-.65-1.53-1-2.26a9.27,9.27,0,0,0-1.3-1.8c-.39-.43-.82-.84-1.25-1.23,0-.05-.12,0-.07.07Z"/><path class="cls-16" d="M92.78,58.57A3,3,0,0,0,97,58c.09-.12.19-.25.28-.39a2.16,2.16,0,0,0-.83.21c-.58.25-1.3.47-1.5,0s1.1-.77,2-.76a1.61,1.61,0,0,0,.75-.14,6.88,6.88,0,0,0,.85-2.67c-.73.44-1.78,1-1.91.53s1.06-1.15,1.81-1.53a1.47,1.47,0,0,0-.52-.79,1.74,1.74,0,0,0-1.18-.36,2.73,2.73,0,0,0-.81.17c0,.59,0,1.7-.37,1.81s-.53-.76-.64-1.33a10.75,10.75,0,0,0-1.42,1,2.92,2.92,0,0,0-.15,1.51c.18,1-.31,1.32-.53,1-.32-.5.27-1.65.25-2.1A3.16,3.16,0,0,0,92.78,58.57Zm4.58-2.73h0c.2.07.22.34-.13.45s-1,.27-1.27.11S97.07,55.74,97.36,55.84ZM94.14,55c-.28,0-.34-.26-.23-.62s.29-.28.43-.11h0C94.52,54.56,94.32,55.07,94.14,55Z"/><path class="cls-5" d="M95.6,55.11A28.85,28.85,0,0,0,92,59.85s.06.11.09,0a28.43,28.43,0,0,1,3.61-4.71s0-.13-.08-.08Z"/><path class="cls-5" d="M96.38,59.84a34.34,34.34,0,0,1-4.63.15,34.25,34.25,0,0,1-4.62-.15,36.35,36.35,0,0,1,4.62-.15A36.44,36.44,0,0,1,96.38,59.84Z"/><path class="cls-2" d="M17.77,21h0l-.51-.21a.13.13,0,0,1-.07-.06.14.14,0,0,1,0-.09l.17-.4a1,1,0,0,1-.25-.21l-.39.16a.11.11,0,0,1-.15-.06l-.21-.51a.11.11,0,0,1,0-.08.13.13,0,0,1,.06-.07l.36-.15a1.38,1.38,0,0,1,0-.29l-.36-.14a.17.17,0,0,1-.06-.06.14.14,0,0,1,0-.09l.21-.51a.09.09,0,0,1,.06-.06.08.08,0,0,1,.09,0l.34.13a1.18,1.18,0,0,1,.25-.25l-.16-.36a.12.12,0,0,1,.06-.15l.51-.22h.09a.12.12,0,0,1,.06.06l.17.39h.19l.17-.41a.12.12,0,0,1,.15-.07l.51.21a.12.12,0,0,1,.06.06.14.14,0,0,1,0,.09l-.16.4a1.18,1.18,0,0,1,.25.25l.36-.15a.14.14,0,0,1,.09,0,.09.09,0,0,1,.06.06l.22.51a.12.12,0,0,1-.06.14l-.39.17a1.13,1.13,0,0,1,0,.26l.4.16a.11.11,0,0,1,.06.15l-.21.51a.09.09,0,0,1-.06.06.08.08,0,0,1-.08,0L19.12,20l-.13.14.16.39a.12.12,0,0,1-.06.15l-.51.21a.08.08,0,0,1-.09,0,.12.12,0,0,1-.06-.06l-.15-.36a.81.81,0,0,1-.22,0l-.18.46A.12.12,0,0,1,17.77,21Zm-.37-.39.31.13.17-.42a.1.1,0,0,1,.11-.07.91.91,0,0,0,.33,0,.11.11,0,0,1,.13.07l.15.34.3-.12-.15-.37a.11.11,0,0,1,0-.13,1.1,1.1,0,0,0,.21-.22.12.12,0,0,1,.14,0l.39.16.12-.3-.37-.15a.12.12,0,0,1-.07-.13,1.51,1.51,0,0,0,0-.37.11.11,0,0,1,.06-.12l.37-.15-.13-.3-.34.14a.11.11,0,0,1-.14,0,1.22,1.22,0,0,0-.32-.32.1.1,0,0,1,0-.13l.15-.38-.3-.13-.16.4a.14.14,0,0,1-.12.07.81.81,0,0,0-.31,0,.14.14,0,0,1-.12-.07l-.15-.36-.3.12.14.35a.11.11,0,0,1,0,.13,1.22,1.22,0,0,0-.32.32.11.11,0,0,1-.14,0l-.31-.12-.13.3.33.14a.09.09,0,0,1,.07.11,1.07,1.07,0,0,0,0,.4.11.11,0,0,1-.07.12l-.34.15.13.3.36-.15a.11.11,0,0,1,.13,0,1.06,1.06,0,0,0,.32.28.11.11,0,0,1,0,.14Zm.69-.87a.69.69,0,0,1-.24,0,.64.64,0,0,1-.34-.33.62.62,0,0,1,1.15-.48.64.64,0,0,1,0,.47.64.64,0,0,1-.33.34A.69.69,0,0,1,18.09,19.72Zm0-1a.39.39,0,0,0-.36.55.38.38,0,0,0,.22.21.39.39,0,0,0,.3,0h0a.39.39,0,0,0,.21-.21.42.42,0,0,0,0-.31A.39.39,0,0,0,18.08,18.7Z"/><path class="cls-2" d="M87,17.08a1.61,1.61,0,1,1,1.6-1.61A1.61,1.61,0,0,1,87,17.08Zm0-3a1.38,1.38,0,1,0,1.38,1.38A1.38,1.38,0,0,0,87,14.09Z"/><path class="cls-2" d="M86.6,16.23h0a.14.14,0,0,1-.08-.05l-.29-.36a.11.11,0,0,1,.18-.14l.21.26,1.19-1.19a.12.12,0,0,1,.16,0,.1.1,0,0,1,0,.16l-1.28,1.28A.12.12,0,0,1,86.6,16.23Z"/><path class="cls-2" d="M59.32,23.79l-.07,0a.12.12,0,0,1,0-.13l.34-1v-2a.47.47,0,0,1,.46-.47h3.26a.47.47,0,0,1,.47.47v2a.47.47,0,0,1-.47.47H60.53l-1.15.7A.07.07,0,0,1,59.32,23.79ZM60,20.37a.24.24,0,0,0-.24.24v2.07l-.25.74.92-.56a.08.08,0,0,1,.06,0h2.77a.24.24,0,0,0,.24-.24v-2a.24.24,0,0,0-.24-.24Z"/><circle class="cls-2" cx="60.73" cy="21.63" r="0.27"/><circle class="cls-2" cx="61.7" cy="21.63" r="0.27"/><circle class="cls-2" cx="62.67" cy="21.63" r="0.27"/><path class="cls-2" d="M32.64,18.16H30.8a.11.11,0,1,1,0-.22h1.84a1.16,1.16,0,0,0,1.15-1.15V16a1.37,1.37,0,0,1,1.37-1.38h4a.12.12,0,0,1,.12.12.11.11,0,0,1-.12.11h-4A1.15,1.15,0,0,0,34,16v.75A1.37,1.37,0,0,1,32.64,18.16Z"/><path class="cls-2" d="M56.09,21.48a.11.11,0,0,1-.11-.12V16.42a1.4,1.4,0,0,0-1.4-1.4h-2.1a.11.11,0,0,1-.11-.11.12.12,0,0,1,.11-.12h2.1a1.63,1.63,0,0,1,1.63,1.63v4.94A.12.12,0,0,1,56.09,21.48Z"/><path class="cls-2" d="M66.63,18.75H58.87a.11.11,0,0,1-.11-.12.11.11,0,0,1,.11-.11h7.76a2,2,0,0,0,2-2,2.19,2.19,0,0,1,2.19-2.19h4.57a.11.11,0,0,1,0,.22H70.78a2,2,0,0,0-2,2A2.2,2.2,0,0,1,66.63,18.75Z"/><path class="cls-7" d="M50.77,31.86V13.35a.51.51,0,0,0-.51-.51H40.89a.51.51,0,0,0-.51.51V31.86a1,1,0,0,0,1,1h8.31A1,1,0,0,0,50.77,31.86Z"/><path class="cls-25" d="M49.21,26.89H42.29a.23.23,0,0,1-.23-.22h0a.23.23,0,0,1,.23-.23h6.92a.23.23,0,0,1,.23.23h0A.22.22,0,0,1,49.21,26.89Z"/><path class="cls-25" d="M49.21,28.34H42.29a.23.23,0,0,1-.23-.23h0a.24.24,0,0,1,.23-.23h6.92a.23.23,0,0,1,.23.23h0A.23.23,0,0,1,49.21,28.34Z"/><path class="cls-25" d="M49.21,29.79H42.29a.23.23,0,0,1-.23-.23h0a.23.23,0,0,1,.23-.23h6.92a.23.23,0,0,1,.23.23h0A.23.23,0,0,1,49.21,29.79Z"/><path class="cls-25" d="M49.21,31.24H42.29a.24.24,0,0,1-.23-.23h0a.23.23,0,0,1,.23-.23h6.92a.23.23,0,0,1,.23.23h0A.23.23,0,0,1,49.21,31.24Z"/><path class="cls-6" d="M50.77,13.35v1.43H40.38V13.35a.51.51,0,0,1,.51-.51h9.37A.51.51,0,0,1,50.77,13.35Z"/><path class="cls-26" d="M48.25,13.72a.34.34,0,1,1-.34-.34A.34.34,0,0,1,48.25,13.72Z"/><path class="cls-26" d="M49.35,13.72a.34.34,0,1,1-.34-.34A.34.34,0,0,1,49.35,13.72Z"/><path class="cls-26" d="M50.39,13.72a.34.34,0,0,1-.67,0,.34.34,0,1,1,.67,0Z"/><rect class="cls-10" x="42.44" y="22.69" width="1.17" height="2.82"/><rect class="cls-22" x="44.16" y="20.69" width="1.17" height="4.83"/><rect class="cls-23" x="46.07" y="19.21" width="1.17" height="6.31"/><rect class="cls-10" x="47.94" y="17.47" width="1.17" height="8.04"/><polygon class="cls-22" points="46.95 16.24 47.76 16.53 47.67 15.59 46.95 16.24"/><path class="cls-22" d="M42.12,21.32a.11.11,0,0,1-.09-.05.11.11,0,0,1,0-.12,10.5,10.5,0,0,0,5.27-5,.09.09,0,1,1,.16.08,10.85,10.85,0,0,1-5.36,5.07Z"/><g class="cls-14"><rect class="cls-2" x="89.24" y="18.97" width="3.27" height="1.47" rx="0.17"/><rect class="cls-2" x="92.74" y="18.97" width="3.27" height="1.47" rx="0.17"/><rect class="cls-2" x="90.98" y="20.62" width="3.27" height="1.47" rx="0.17"/><rect class="cls-2" x="10.09" y="32.12" width="3.27" height="1.47" rx="0.17"/><rect class="cls-2" x="13.59" y="32.12" width="3.27" height="1.47" rx="0.17"/><rect class="cls-2" x="11.82" y="33.76" width="3.27" height="1.47" rx="0.17"/></g><ellipse class="cls-7" cx="25.48" cy="4.84" rx="1.52" ry="1.48"/><rect class="cls-5" x="24.9" width="1.15" height="2.41"/><path class="cls-5" d="M31.09,4.61a26.85,26.85,0,0,1-11.22,0l.48-.48L20.52,4A7,7,0,0,1,25.45,1.9h.06A7,7,0,0,1,30.44,4Z"/><path class="cls-6" d="M30.64,4.16a35.58,35.58,0,0,1-5.48.45,20.62,20.62,0,0,1-4.81-.48l.07-.07a21.4,21.4,0,0,0,4.74.46,35.34,35.34,0,0,0,5.41-.44Z"/><ellipse class="cls-7" cx="72.26" cy="4.84" rx="1.52" ry="1.48"/><rect class="cls-5" x="71.69" width="1.15" height="2.41"/><path class="cls-5" d="M77.87,4.61a26.85,26.85,0,0,1-11.22,0l.48-.48L67.3,4A7,7,0,0,1,72.23,1.9h.06A7,7,0,0,1,77.22,4Z"/><path class="cls-6" d="M77.43,4.16a35.73,35.73,0,0,1-5.49.45,20.69,20.69,0,0,1-4.81-.48l.07-.07a21.4,21.4,0,0,0,4.74.46,35.34,35.34,0,0,0,5.41-.44Z"/><ellipse class="cls-7" cx="48.87" cy="4.84" rx="1.52" ry="1.48"/><rect class="cls-5" x="48.29" width="1.15" height="2.41"/><path class="cls-5" d="M54.48,4.61a26.85,26.85,0,0,1-11.22,0l.48-.48L43.91,4A7,7,0,0,1,48.84,1.9h.06A7,7,0,0,1,53.83,4Z"/><path class="cls-6" d="M54,4.16a35.85,35.85,0,0,1-5.49.45,20.62,20.62,0,0,1-4.81-.48l.07-.07a21.4,21.4,0,0,0,4.74.46A35.34,35.34,0,0,0,54,4.08Z"/></g></g></svg>