<svg xmlns="http://www.w3.org/2000/svg" xmlns:xlink="http://www.w3.org/1999/xlink" viewBox="0 0 88.43 74.82"><defs><style>.cls-1{fill:#d4ecff;}.cls-2{fill:#ff2c9c;}.cls-3{fill:#5793ce;}.cls-4{fill:#396caa;}.cls-5{fill:url(#Áåçûìÿííûé_ãðàäèåíò_242);}.cls-6{fill:#eaeaea;}.cls-7{fill:#173d7a;}.cls-8{fill:#fdd762;}.cls-9{fill:#ffc2b0;}.cls-10,.cls-22{fill:#fff;}.cls-11{fill:#ea9c92;}.cls-12{fill:#047c6c;}.cls-13{fill:#274f89;}.cls-14{fill:#d3008d;}.cls-15{fill:#6359cc;}.cls-16{fill:#e8a200;}.cls-17{fill:#f9bf30;}.cls-18{fill:#e6e8e8;}.cls-19{fill:#ededed;}.cls-20{fill:#e9f6ff;}.cls-21{fill:#aedeed;}.cls-22{opacity:0.4;}.cls-23{fill:#b2d3ea;}.cls-24{fill:#983be9;}.cls-25{fill:#d8892b;}.cls-26{fill:#721bd5;}.cls-27{fill:#6614cf;}.cls-28{fill:#8a2ae3;}.cls-29{fill:#b45ef4;}.cls-30{fill:#d29fff;}.cls-31{fill:#0ea78c;}</style><radialGradient id="Áåçûìÿííûé_ãðàäèåíò_242" cx="55.92" cy="30.23" r="11.36" gradientTransform="translate(0.36) scale(1.06 1)" gradientUnits="userSpaceOnUse"><stop offset="0" stop-color="#01c8ef"/><stop offset="0.09" stop-color="#03bee9"/><stop offset="0.24" stop-color="#08a5d7"/><stop offset="0.43" stop-color="#107bbb"/><stop offset="0.45" stop-color="#1177b8"/><stop offset="1" stop-color="#112564"/></radialGradient></defs><g id="Layer_2" data-name="Layer 2"><g id="Layer_2-2" data-name="Layer 2"><path class="cls-1" d="M66.55,66.39l-.13-.21,3.85-2.12a1.62,1.62,0,0,1,1.54,0L75,65.85l-.13.21-3.19-1.79a1.32,1.32,0,0,0-1.28,0Z"/><path class="cls-1" d="M78,65.8l-.13-.2,10-5.56a.28.28,0,0,0,.16-.25.27.27,0,0,0-.16-.25l-3.32-1.92.14-.21L88,59.33a.53.53,0,0,1,.27.46.52.52,0,0,1-.28.46Z"/><path class="cls-1" d="M67.13,58.15,67,57.94l9.75-5.27a.32.32,0,0,0,.16-.27.3.3,0,0,0-.16-.26l-5.16-2.78a2.13,2.13,0,0,1-1.15-1.86v-16a2,2,0,0,1,.93-1.65l.78-.49.14.2-.77.49a1.71,1.71,0,0,0-.82,1.45v16a1.89,1.89,0,0,0,1,1.65l5.16,2.78a.53.53,0,0,1,0,1Z"/><path class="cls-2" d="M66.48,63.19a.25.25,0,0,1-.22-.12.24.24,0,0,1,.09-.33l3.86-2.13a1.74,1.74,0,0,1,1.67,0l3.19,1.79a.24.24,0,0,1,.09.33.27.27,0,0,1-.36.09L71.62,61a1.2,1.2,0,0,0-1.15,0l-3.86,2.13A.28.28,0,0,1,66.48,63.19Z"/><path class="cls-1" d="M61,74.55,39.56,62.91c-.75-.41-.65-1.11.21-1.58h0a3.39,3.39,0,0,1,2.91-.11L64.13,72.86c.75.4.65,1.11-.21,1.58h0A3.46,3.46,0,0,1,61,74.55Z"/><path class="cls-1" d="M81.53,43.75a2.94,2.94,0,0,0-.51-.23h0l-1-.41.08.16a6.89,6.89,0,0,0-2.31,0l0-.17-1.16.48h0a2.83,2.83,0,0,0-.43.2c-1.46.79-1.46,2.07,0,2.86a6.23,6.23,0,0,0,5.27,0C83,45.82,83,44.54,81.53,43.75Z"/><path class="cls-3" d="M80.14,44.49a2.89,2.89,0,0,1-2.47,0c-.68-.37-.68-1,0-1.34a2.89,2.89,0,0,1,2.47,0C80.82,43.52,80.82,44.12,80.14,44.49Z"/><path class="cls-3" d="M78.9,44.08h0a.57.57,0,0,1-.59-.56V36.47h1.18v7.05A.57.57,0,0,1,78.9,44.08Z"/><path class="cls-3" d="M79.32,36.73a1,1,0,0,1-.86,0c-.23-.13-.23-.34,0-.47a1,1,0,0,1,.86,0C79.56,36.39,79.56,36.6,79.32,36.73Z"/><path class="cls-1" d="M78.9,36.71h0a.47.47,0,0,1-.48-.45V29.63h1v6.63A.46.46,0,0,1,78.9,36.71Z"/><path class="cls-4" d="M85.82,33.11v-.26l.39-.06.43-.3a.3.3,0,0,1,.29,0l.32.17.32,0v.26h0s0,.06-.07.08l-1,.43a.33.33,0,0,1-.26,0l-.34-.19a.1.1,0,0,1-.06-.07Z"/><path class="cls-3" d="M85.86,32.78l.78-.55a.3.3,0,0,1,.29,0l.59.31c.08,0,.07.12,0,.16l-1,.43a.33.33,0,0,1-.26,0l-.34-.19C85.8,32.88,85.8,32.82,85.86,32.78Z"/><path class="cls-1" d="M84.54,34a.64.64,0,0,0,.31-.07l1.22-.66a.13.13,0,0,0,.05-.19.14.14,0,0,0-.19,0l-1.22.66a.43.43,0,0,1-.35,0l-2-1.11a.17.17,0,0,0-.2.05.12.12,0,0,0,.06.18l2,1.11A.66.66,0,0,0,84.54,34Z"/><polygon class="cls-5" points="72.81 31.61 74.77 30.54 73.67 30.07 72.73 30.7 72.81 31.61"/><path class="cls-3" d="M85.38,30c-.1-.06-.21-.12-.32-.2L80.88,27a2.17,2.17,0,0,0-2.13-.37l0,0h0l-5.77,3.14.52.16,2,.86,2.74,1.83,2.17,1.08.1,0a4.7,4.7,0,0,0,1.38-1.32c.54-.89,2-1.14,2.91-1.85l.26.14A1.61,1.61,0,0,0,85.38,30Z"/><path class="cls-4" d="M87.21,28.72a.38.38,0,0,0-.23.08h0l-5.64,3.07.2.79.22-.1a5.52,5.52,0,0,1-1.27,1.14l.64.13,5.52-3,.08,0,.21-.13h0a1.8,1.8,0,0,0,.66-1.5v-.06A.37.37,0,0,0,87.21,28.72Z"/><path class="cls-6" d="M79.49,26.44a2.47,2.47,0,0,1,1.11.33A2.47,2.47,0,0,0,79.49,26.44Z"/><path class="cls-3" d="M82.06,32.11v-.06a.39.39,0,0,0-.77,0v.06a1,1,0,0,1-.46,1,1.42,1.42,0,0,1-1.32-.3l-4.17-2.87a2.3,2.3,0,0,0-1.85-.47l3.45-1.88-4,2.18.52.16,2,.86,2.74,1.83,2.17,1.08.1,0a4.7,4.7,0,0,0,1.38-1.32,1.5,1.5,0,0,1,.19-.25Z"/><path class="cls-1" d="M80.39,34a2.6,2.6,0,0,1-1.45-.52l-4.18-2.87a1.41,1.41,0,0,0-1.32-.3,1,1,0,0,0-.45,1,.39.39,0,0,1-.77,0,1.7,1.7,0,0,1,.87-1.63,2.14,2.14,0,0,1,2.13.36l4.18,2.88a1.4,1.4,0,0,0,1.31.3,1,1,0,0,0,.46-1v-.06a.39.39,0,0,1,.77,0v.06a1.7,1.7,0,0,1-.87,1.63A1.57,1.57,0,0,1,80.39,34Z"/><path class="cls-7" d="M77.11,40.43a1.14,1.14,0,0,0-1.27.18,5.55,5.55,0,0,0-1.19,2.75c0,.89.74.83,1.2.62a8,8,0,0,0,1.86-2.38,1.13,1.13,0,0,0-.22-.93Z"/><path class="cls-3" d="M77.28,40.25l0,.77a.43.43,0,0,1-.23.4,1,1,0,0,1-.61.09c-.59-.09-.64-.25-.69-1S77.28,40.25,77.28,40.25Z"/><path class="cls-7" d="M74.23,39a1.12,1.12,0,0,0-1.26.18,5.47,5.47,0,0,0-1.2,2.75c0,.89.75.83,1.2.62a8,8,0,0,0,1.87-2.38,1.2,1.2,0,0,0-.22-.93A3.81,3.81,0,0,0,74.23,39Z"/><path class="cls-3" d="M74.41,38.78l0,.77a.43.43,0,0,1-.23.4,1,1,0,0,1-.6.09c-.6-.09-.65-.25-.69-1S74.41,38.78,74.41,38.78Z"/><path class="cls-8" d="M81.42,24.74c-.24-3.56-4.1.52-4.1.52L74.67,27.7l-2.38,2.46a2.13,2.13,0,0,0-.59,1.77l1,6.9a.72.72,0,0,0,.73.59l.35,0a.86.86,0,0,0,.8-.9L74.36,32l5-2.83S81.65,28.29,81.42,24.74Z"/><path class="cls-8" d="M84.29,26.09c-.23-3.55-4.09.52-4.09.52l-2.65,2.44-2.38,2.46a2.1,2.1,0,0,0-.59,1.77l1,6.9a.71.71,0,0,0,.72.59l.36,0a.85.85,0,0,0,.8-.89l-.18-6.45,5-2.84S84.53,29.65,84.29,26.09Z"/><path class="cls-2" d="M82,14.68c2.93,1.14,2.87,2.77,2.87,2.77a85.5,85.5,0,0,0-.38,10c.08,1.67-9.42,1.79-8-2.65,1.67-5.24,1-9.49,1.82-10.13S81.25,14.38,82,14.68Z"/><ellipse class="cls-9" cx="81.49" cy="15.76" rx="1.05" ry="1.51" transform="translate(49.14 92.2) rotate(-78.01)"/><path class="cls-10" d="M81.71,17a2,2,0,0,1-.54-.07,1.92,1.92,0,0,1-1-.59,1,1,0,0,1-.26-.93,1.53,1.53,0,0,1,1.91-.76,2.08,2.08,0,0,1,1,.6,1,1,0,0,1,.25.93,1.06,1.06,0,0,1-.7.7A1.89,1.89,0,0,1,81.71,17Zm-.45-2.15a1.06,1.06,0,0,0-1.1.62.77.77,0,0,0,.2.71,1.86,1.86,0,0,0,1.91.46.8.8,0,0,0,.54-.52h0a.77.77,0,0,0-.2-.71,1.78,1.78,0,0,0-.88-.5A2,2,0,0,0,81.26,14.82Z"/><path class="cls-9" d="M80.83,14.55a5.54,5.54,0,0,1,0,1c0,.28,1,.54,1.27.29s.16-.51.22-1.44S80.83,14.55,80.83,14.55Z"/><path class="cls-11" d="M82.3,14.38a2,2,0,0,1-1.49,1.19v-.78Z"/><path class="cls-9" d="M83.08,12.18a2.1,2.1,0,0,1-1.61,2.58,2.27,2.27,0,0,1-2.75-1.52,2.11,2.11,0,0,1,1.62-2.59A2.27,2.27,0,0,1,83.08,12.18Z"/><path class="cls-11" d="M81.42,12.79a7.18,7.18,0,0,1-2.1.5c-.86,0-.67-.67-.67-.67l2.55-.35Z"/><path class="cls-8" d="M79.06,12.92a4.26,4.26,0,0,1,2-.25,1,1,0,0,1,.58.32.28.28,0,0,0,.17.11c.17,0,.44-.62.77-.63s.55.2.28.6-.18.86-.06.92,1.44-.87.28-3-4.09-1-4.54-.56a.71.71,0,0,1-.88,0S77.26,13.54,79.06,12.92Z"/><path class="cls-9" d="M83.23,21.81v1.61a.64.64,0,0,1-.22.48l-3.53,3,.4.57,4.66-3.17a.92.92,0,0,0,.38-.63l.32-2.81Z"/><path class="cls-2" d="M84.63,16.64s1.07,1.51,1.47,5.49a6.59,6.59,0,0,1-2.87.24C82.2,22.05,84.63,16.64,84.63,16.64Z"/><path class="cls-12" d="M83,18.55a25.89,25.89,0,0,0-.44,3.1.64.64,0,0,0,.44.61h0Z"/><path class="cls-7" d="M82.12,29l-.77-.09-5-2.73a.73.73,0,0,0-.63,0l-3.57,1.93-.47,0v.44h0a.17.17,0,0,0,.11.15l5.7,3.09a.74.74,0,0,0,.63,0L82,29.66c.11-.06.16-.13.15-.2h0Z"/><path class="cls-4" d="M78.35,27.3,78,27.1H74.06l-1.94,1-.47,0v.44h0a.17.17,0,0,0,.11.15l5.7,3.09a.56.56,0,0,0,.32.06Z"/><path class="cls-3" d="M71.86,28.12l-.21,0v.44h0a.17.17,0,0,0,.11.15l.1.06Z"/><path class="cls-13" d="M77.52,31.81a.81.81,0,0,0,.53,0V31h-.53Z"/><path class="cls-10" d="M77.46,31.34l-5.7-3.09c-.16-.09-.14-.24,0-.34l3.89-2.11a.73.73,0,0,1,.63,0L82,28.87c.16.09.14.24,0,.34l-3.88,2.11A.74.74,0,0,1,77.46,31.34Z"/><path class="cls-1" d="M77.36,30.88,72.62,28.3c-.13-.07-.11-.2,0-.28l2.08-1.1a.63.63,0,0,1,.52,0L80,29.47c.14.07.12.2,0,.29l-2.08,1.1A.66.66,0,0,1,77.36,30.88Z"/><path class="cls-9" d="M75.91,25.7l-.06.37a2.75,2.75,0,0,0,0,.95l.07.33a.5.5,0,0,0,.39.36h0a.28.28,0,0,0,.32-.22l.09-.79s.22.26.32.26-.11-.79-.35-1.24S75.91,25.7,75.91,25.7Z"/><path class="cls-9" d="M77.84,19.83,77.23,21a2,2,0,0,0-.25.86l-.27,3.89-.8,0-.37-4.37a1.79,1.79,0,0,1,0-.4L76,18.71Z"/><path class="cls-7" d="M77.27,31.64l-.48-.58-5-2.74a.65.65,0,0,1-.29-.52V23.93l-.29-.36.27-.14h0c.05,0,.12,0,.2,0l5.69,3.1a.63.63,0,0,1,.29.52v4.21c0,.12,0,.2-.11.23h0Z"/><path class="cls-4" d="M73.79,29.42l-.36-.19-2-3.2v-2.1l-.29-.36.27-.14h0c.05,0,.12,0,.2,0l5.69,3.1a.55.55,0,0,1,.22.23Z"/><path class="cls-3" d="M71.31,23.73l-.12-.16.27-.14h0c.05,0,.12,0,.2,0l.1,0Z"/><path class="cls-13" d="M77.4,26.57a.65.65,0,0,1,.24.45l-.56.3-.26-.43Z"/><path class="cls-3" d="M77.08,26.68l-5.7-3.1c-.16-.08-.29,0-.29.21V28a.65.65,0,0,0,.29.53l5.69,3.1c.17.09.3,0,.3-.21V27.21A.67.67,0,0,0,77.08,26.68Z"/><path class="cls-9" d="M79.88,27.5l-.09.18a1.19,1.19,0,0,1-.48.49l-.56.33a.63.63,0,0,1-.58,0l0,0A.31.31,0,0,1,78.1,28l.59-.57s-.33.24-.42.14.32-.41.62-.42a1.21,1.21,0,0,0,.59-.23Z"/><path class="cls-2" d="M78.38,14.61a17.49,17.49,0,0,0-3,4.25,4.36,4.36,0,0,0,2.56,1.75C79.71,21.1,78.38,14.61,78.38,14.61Z"/><path class="cls-14" d="M77.49,20.48l.35-3.19-.83,3C77.16,20.35,77.32,20.42,77.49,20.48Z"/><path class="cls-10" d="M80,14.17,79.42,14a1.37,1.37,0,0,0,.69.51c.4.11.47-.22.47-.22Z"/><path class="cls-15" d="M64.9,12.88,41.78.33a2,2,0,0,0-2-.11h0l-2.9,1.58,1.94.34c0,.09,0,.19,0,.29V53.66a6.52,6.52,0,0,0,2.94,5.28L64.57,71.31c-.2.61-.65,1.9-.65,1.9l2.84-1.55h0a2.33,2.33,0,0,0,1.08-2.26V18.15A6.51,6.51,0,0,0,64.9,12.88Z"/><polygon class="cls-1" points="86.63 56.87 83.16 54.98 79.69 56.87 83.16 58.75 86.63 56.87"/><polygon class="cls-16" points="83.16 57 83.16 54.88 87.31 52.63 87.31 54.75 83.16 57"/><polygon class="cls-17" points="83.16 54.88 79.01 52.63 79.01 54.75 83.16 57 83.16 54.88"/><polygon class="cls-8" points="87.31 52.63 83.16 50.38 79.01 52.63 83.16 54.88 87.31 52.63"/><path class="cls-10" d="M72.91,28.12c0,.33-.25.47-.55.3a1.14,1.14,0,0,1-.56-.91c0-.33.25-.47.56-.3A1.16,1.16,0,0,1,72.91,28.12Z"/><path class="cls-2" d="M67.06,56.66a.27.27,0,0,1-.22-.12.25.25,0,0,1,.09-.34l9.75-5.27a.18.18,0,0,0,0-.32l-5.16-2.78a2.27,2.27,0,0,1-1.21-2V29.91a2.09,2.09,0,0,1,1-1.75l.77-.49a.27.27,0,0,1,.36.06.24.24,0,0,1-.07.34l-.77.49a1.61,1.61,0,0,0-.76,1.35v16a1.77,1.77,0,0,0,1,1.55l5.16,2.78a.65.65,0,0,1,0,1.16l-9.75,5.27A.2.2,0,0,1,67.06,56.66Z"/><path class="cls-15" d="M38.84,53.66a6.52,6.52,0,0,0,2.94,5.28L64.57,71.31c-.2.61-.65,1.9-.65,1.9l2.84-1.55h0a2.33,2.33,0,0,0,1.08-2.26V18.15A6.47,6.47,0,0,0,66.9,15L38.84,30.19Z"/><path class="cls-18" d="M62,73.08,38.86,60.53a6.53,6.53,0,0,1-2.94-5.28V4c0-2,1.32-3,2.94-2.09L62,14.46a6.51,6.51,0,0,1,2.94,5.28V71C64.92,73,63.61,74,62,73.08Z"/><polygon class="cls-14" points="39.75 17.97 37.96 16.81 37.26 14.65 36.56 16.05 35.92 15.77 35.92 16.96 36.13 17.26 35.92 18.12 35.92 18.93 37.26 18.77 38.8 20.63 38.39 18.49 39.75 17.97"/><path class="cls-10" d="M61.55,71.38,39.34,59.32a4.83,4.83,0,0,1-2.19-3.92V4.88c0-1.51,1-2.2,2.19-1.55L61.55,15.39a4.83,4.83,0,0,1,2.19,3.92V69.83C63.74,71.34,62.76,72,61.55,71.38Z"/><path class="cls-19" d="M52.46,55.86,41.56,50V25l5.14,2.78a10.74,10.74,0,0,1,5.76,9.39Z"/><path class="cls-1" d="M37.66,22.63h0c-1.1-.62-2.63-.54-4.32.37-3.34,1.82-6.06,6.25-6.06,9.87v2.62h0l.12.07,10.92,6,.17-3.14.13-1.21.58-1.89.07-.29,1.24-2.36,1-1.14.79-.89,1.93-1.43.17-.12.95-.39,1.28-.31h1l1.11.19Z"/><path class="cls-1" d="M39.05,46.84l.36-.19V34.72a2.43,2.43,0,0,0-.36.84Z"/><polygon class="cls-1" points="50.09 52.82 39.05 46.84 39.17 35.55 39.59 34.41 40.87 32.34 42.38 30.66 43.74 29.63 45.22 28.79 47.89 28.5 49.3 29.26 50.09 30.39 50.34 32.14 50.26 51.01 50.09 52.82"/><path class="cls-3" d="M37.66,22.63a4,4,0,0,0-3.5,0L45.4,28.73l1.21-.3h1l1.11.19-11.06-6Z"/><path class="cls-20" d="M34.42,22.53a7.08,7.08,0,0,0-1.08.47q-.36.21-.72.45l11.21,6.08.38-.28.17-.12.95-.39.38-.09Z"/><path class="cls-10" d="M42.38,30.61l1.52-1.13L32.69,23.4a11.08,11.08,0,0,0-1.46,1.16Z"/><path class="cls-3" d="M50.45,52.63l-.36.19V32.46c0-3.41-2.56-4.8-5.71-3.09a11.75,11.75,0,0,0-5.71,9.29V41.4l-.35.2V38.85c0-3.63,2.72-8,6.06-9.87s6.07-.34,6.07,3.29Z"/><polygon class="cls-21" points="30.63 30.93 30.01 33.31 30.32 37.17 29.53 36.74 28.52 34.64 29.41 31.99 30.63 30.93"/><path class="cls-22" d="M48.69,46.21a.42.42,0,0,1-.21-.06l-8-4.36a.9.9,0,0,1-.43-.74V35.11a.42.42,0,0,1,.19-.38.41.41,0,0,1,.37,0l8,4.36a.89.89,0,0,1,.42.74v5.94a.35.35,0,0,1-.34.42ZM40.38,34.94h0s-.06.07-.06.17v5.94a.66.66,0,0,0,.3.53l8,4.36a.2.2,0,0,0,.11,0,.23.23,0,0,0,.06-.17V39.85a.66.66,0,0,0-.3-.53l-8-4.36Z"/><path class="cls-23" d="M43,42l-.06,0a.82.82,0,0,1-.38-.68V38.49c0-.26.17-.38.38-.26l.06,0a.82.82,0,0,1,.38.68v2.83C43.33,42,43.16,42.15,43,42Z"/><path class="cls-23" d="M44.56,42.91l-.05,0a.84.84,0,0,1-.38-.68V40.54c0-.26.17-.38.38-.27l.05,0a.82.82,0,0,1,.38.68v1.65C44.94,42.9,44.77,43,44.56,42.91Z"/><path class="cls-4" d="M46.18,43.79l-.06,0a.85.85,0,0,1-.38-.68V39.13c0-.26.17-.38.38-.26l.06,0a.82.82,0,0,1,.38.68v3.94C46.56,43.78,46.39,43.9,46.18,43.79Z"/><ellipse class="cls-1" cx="33.25" cy="70.44" rx="6.91" ry="3.75"/><path class="cls-7" d="M29,68.45a1.24,1.24,0,0,0-.75,1.24,2.22,2.22,0,0,0,.11.61,1.13,1.13,0,0,0,1.46.42c.8-.3,2.58-1.87,2.64-2.9C32.61,65.91,30.28,67.94,29,68.45Z"/><path class="cls-7" d="M33.72,71.61a5.35,5.35,0,0,0-.1,1.3,1.54,1.54,0,0,0,1.48.54c.82-.09,3.19-.86,3.72-2.32.82-2.28-4.57.17-4.57.17Z"/><path class="cls-8" d="M36,54l.18,17.19a1.22,1.22,0,0,1-1,1.19l-.23,0A1.19,1.19,0,0,1,33.92,72a1.14,1.14,0,0,1-.25-.69L33.44,64,32.27,57.4,30.66,69a1,1,0,0,1-.44.77,1.31,1.31,0,0,1-.74.18,1.38,1.38,0,0,1-1-.45.91.91,0,0,1-.23-.62l.64-7L29.15,53Z"/><path class="cls-9" d="M33.67,38.62l-.29,1.57a.73.73,0,0,0,.63.68c.63.15.83-.23.83-.23l.28-1.77Z"/><path class="cls-9" d="M37.17,37.77a2.59,2.59,0,0,1-3.12,1.74,2.39,2.39,0,0,1-1.48-3.12,2.58,2.58,0,0,1,3.12-1.74A2.39,2.39,0,0,1,37.17,37.77Z"/><path class="cls-24" d="M33.75,40.22s-2.7-1.62-3.68.06c-1.59,2.73-.43,5.87-1,12.68-.09,1.14,1.64,1.83,2.45,2.27a5.19,5.19,0,0,0,2.38.64c.83,0,2.41-.69,2.36-1.7a71.94,71.94,0,0,1,.58-12.45A10.36,10.36,0,0,0,33.75,40.22Z"/><path class="cls-25" d="M32.27,57.4,30.66,69a1,1,0,0,1-.44.77l-.14.07c.33-.24,1.31-10,1.49-11.07A1.91,1.91,0,0,1,32.27,57.4Z"/><polygon class="cls-9" points="42.34 41.64 44.56 37.5 43.86 37.09 41.56 40.24 42.34 41.64"/><polygon class="cls-9" points="27.7 37.24 28.78 32.63 29.64 32.64 29.32 36.46 27.7 37.24"/><path class="cls-24" d="M36.84,41.72a4.27,4.27,0,0,0,4.61-1.61.43.43,0,0,1,.69,0,1.9,1.9,0,0,1,.14,1.63c-1.29,2.6-5.69,2.51-6.75,4S36.84,41.72,36.84,41.72Z"/><path class="cls-24" d="M32.07,39.64s-2.05.15-2.35-1.51a10.85,10.85,0,0,1-.2-1.67.36.36,0,0,0-.41-.33c-.49.06-1.25.2-1.35.51s-.44,2.72,1.58,6.19C30.67,45.11,32.07,39.64,32.07,39.64Z"/><path class="cls-9" d="M28.78,32.64l0-.53a1,1,0,0,1,.17-.52l.56-.88.15-.17a.46.46,0,0,1,.57-.09l.13.07a.5.5,0,0,1,.25.46l-.29.75.37-.07a.13.13,0,0,1,.15.1h0a.12.12,0,0,1-.08.14l-.6.23-.56.73Z"/><path class="cls-9" d="M44.57,37.52l.26-.46a1,1,0,0,0,.13-.54l0-1,0-.22a.43.43,0,0,0-.44-.35h-.16a.54.54,0,0,0-.45.28L43.7,36l-.29-.23a.15.15,0,0,0-.19,0h0a.12.12,0,0,0,0,.16l.41.48.1,1Z"/><path class="cls-26" d="M35.22,45.22c-.21.93,1.08,7.9-.36,10.45.72-.28,1.44-.82,1.4-1.5A60.07,60.07,0,0,1,36.5,45c1.24-.59,3.17-.94,4.53-1.88C39.57,43.66,35.41,44.4,35.22,45.22Z"/><path class="cls-10" d="M32.79,39.78l.37-.36a3.05,3.05,0,0,0,1.09.68,5.65,5.65,0,0,0,.87.17l.24.62S33.43,40.76,32.79,39.78Z"/><path class="cls-7" d="M35.44,37.81a.3.3,0,0,0,.25-.13c.11-.13,0-.76.35-.87.49-.16,1.64.41,1.76-1.23.06-.86-.38-1.08-.38-1.55,0,0,0,.23-2.3.09A2.88,2.88,0,0,0,32,36.85a2.44,2.44,0,0,0,2,2.67,3.16,3.16,0,0,0,1.35-.92c0-.11-.45-.1-.39-.42A.43.43,0,0,1,35.44,37.81Z"/><path class="cls-19" d="M47.43,18l-7.06-3.84a1.26,1.26,0,0,1-.57-1V8.18c0-.4.26-.58.57-.41l7.06,3.84a1.23,1.23,0,0,1,.57,1v4.93C48,18,47.75,18.14,47.43,18Z"/><path class="cls-26" d="M46.73,10.14,39.67,6.3a.36.36,0,0,0-.36,0h0l-.69.37.48.17v4.83a1.26,1.26,0,0,0,.57,1l6.75,3.67v.56l.69-.37h0a.47.47,0,0,0,.19-.43V11.16A1.23,1.23,0,0,0,46.73,10.14Z"/><path class="cls-24" d="M46,16.87,39,13a1.27,1.27,0,0,1-.57-1V7.09c0-.4.26-.58.57-.41L46,10.51a1.27,1.27,0,0,1,.56,1v4.94C46.6,16.86,46.35,17,46,16.87Z"/><path class="cls-10" d="M46,10.51,39,6.68a.34.34,0,0,0-.44,0,.4.4,0,0,1,.25.06l7.07,3.83a1.27,1.27,0,0,1,.57,1v4.94a.5.5,0,0,1-.13.37c.18,0,.31-.18.31-.46V11.53A1.27,1.27,0,0,0,46,10.51Z"/><path class="cls-10" d="M41.35,11.34c0,.29-.22.4-.48.26a1,1,0,0,1-.47-.78c0-.28.21-.4.47-.26A1,1,0,0,1,41.35,11.34Z"/><path class="cls-10" d="M42.79,12.12c0,.29-.21.41-.47.26a1,1,0,0,1-.48-.77c0-.29.21-.4.48-.26A1,1,0,0,1,42.79,12.12Z"/><path class="cls-10" d="M44.24,12.91c0,.28-.22.4-.48.26a1,1,0,0,1-.48-.78c0-.29.22-.4.48-.26A1,1,0,0,1,44.24,12.91Z"/><path class="cls-19" d="M61.49,44l-7.06-3.83a1.25,1.25,0,0,1-.57-1V28.06c0-.39.25-.57.57-.4l7.06,3.83a1.27,1.27,0,0,1,.57,1V43.62C62.06,44,61.8,44.19,61.49,44Z"/><path class="cls-3" d="M60.79,30l-7.06-3.83a.38.38,0,0,0-.37,0h0l-.68.38.48.16v11a1.25,1.25,0,0,0,.57,1l6.75,3.66V43l.69-.38h0a.46.46,0,0,0,.19-.42V31A1.27,1.27,0,0,0,60.79,30Z"/><path class="cls-1" d="M60.09,42.93,53,39.1a1.25,1.25,0,0,1-.57-1V27c0-.4.25-.58.57-.41l7.06,3.84a1.23,1.23,0,0,1,.57,1V42.53C60.66,42.92,60.41,43.1,60.09,42.93Z"/><path class="cls-10" d="M60.09,30.4,53,26.56a.37.37,0,0,0-.44,0,.51.51,0,0,1,.25.06l7.06,3.83a1.25,1.25,0,0,1,.57,1V42.61a.53.53,0,0,1-.13.38c.19,0,.32-.18.32-.46V31.42A1.23,1.23,0,0,0,60.09,30.4Z"/><path class="cls-19" d="M61.49,59,54.43,55.2a1.25,1.25,0,0,1-.57-1V43.07c0-.4.25-.58.57-.41l7.06,3.84a1.26,1.26,0,0,1,.57,1V58.63C62.06,59,61.8,59.2,61.49,59Z"/><path class="cls-14" d="M60.79,45l-7.06-3.84a.41.41,0,0,0-.37,0h0l-.68.37.48.17v11a1.25,1.25,0,0,0,.57,1l6.75,3.66V58l.69-.38h0a.47.47,0,0,0,.19-.42V46.05A1.26,1.26,0,0,0,60.79,45Z"/><path class="cls-2" d="M60.09,57.94,53,54.1a1.23,1.23,0,0,1-.57-1V42c0-.4.25-.58.57-.41l7.06,3.83a1.27,1.27,0,0,1,.57,1v11.1C60.66,57.93,60.41,58.11,60.09,57.94Z"/><path class="cls-10" d="M60.09,45.4,53,41.57a.37.37,0,0,0-.44,0,.42.42,0,0,1,.25.06l7.06,3.83a1.25,1.25,0,0,1,.57,1V57.62a.53.53,0,0,1-.13.38c.19,0,.32-.19.32-.47V46.43A1.25,1.25,0,0,0,60.09,45.4Z"/><path class="cls-1" d="M14.09,63.86l6.21-3.29a1.26,1.26,0,0,1,1.07,0l3.95,2.2c.31.17.34.43.07.58l-6.21,3.28a1.23,1.23,0,0,1-1.07-.05l-3.95-2.19C13.85,64.26,13.81,64,14.09,63.86Z"/><path class="cls-17" d="M19.09,65l7.1-3.76a.38.38,0,0,0,.22-.28h0v-.74l-.4.3-4.43-2.46A1.42,1.42,0,0,0,20.37,58l-6.79,3.6-.52-.29v.75h0c0,.13.1.26.29.37L17.86,65A1.44,1.44,0,0,0,19.09,65Z"/><path class="cls-8" d="M13.27,61l7.11-3.77a1.46,1.46,0,0,1,1.22.06l4.52,2.52c.36.2.4.49.08.66l-7.1,3.76a1.41,1.41,0,0,1-1.23-.06L13.35,61.7C13,61.5,13,61.2,13.27,61Z"/><path class="cls-10" d="M19.1,64.27l7.1-3.76a.31.31,0,0,0,.2-.37.33.33,0,0,1-.18.17l-7.11,3.77A1.46,1.46,0,0,1,17.89,64L13.37,61.5a.52.52,0,0,1-.28-.29c-.08.16,0,.35.26.49l4.52,2.51A1.41,1.41,0,0,0,19.1,64.27Z"/><path class="cls-10" d="M20.73,60.06c-.26-.14-.26-.38,0-.52a1.15,1.15,0,0,1,1,0c.26.15.25.38,0,.52A1.09,1.09,0,0,1,20.73,60.06Z"/><path class="cls-10" d="M19.27,60.83c-.26-.14-.25-.38,0-.52a1.13,1.13,0,0,1,.95,0c.26.15.26.38,0,.52A1.11,1.11,0,0,1,19.27,60.83Z"/><path class="cls-10" d="M17.82,61.6c-.26-.15-.26-.38,0-.52a1.13,1.13,0,0,1,1,0c.26.15.26.38,0,.52A1.11,1.11,0,0,1,17.82,61.6Z"/><ellipse class="cls-1" cx="8.16" cy="55.93" rx="4.97" ry="2.7"/><path class="cls-27" d="M5.35,23.35s.13,2.47.33,4.13,4.46-1.27,4.46-1.27v-1.9Z"/><path class="cls-7" d="M7.62,54.13a5.18,5.18,0,0,0,2.27,1.73,2.8,2.8,0,0,0,1,.14.32.32,0,0,0,.27-.42,4,4,0,0,0-2.12-2.2C7.19,52.51,7.62,54.13,7.62,54.13Z"/><path class="cls-7" d="M7.25,54.62A8.29,8.29,0,0,1,7.8,56.3a2.7,2.7,0,0,1-.42,1.48.48.48,0,0,1-.72.12,2.48,2.48,0,0,1-.9-1.61,3.87,3.87,0,0,1,0-1.52Z"/><path class="cls-8" d="M4.59,39a23.71,23.71,0,0,0,0,3.43c.15,1.81.66,10.25.76,12.28,0,0,0,.61,1.22.48s1.16-.82,1.16-.82,1.78,0,1.83-1,1.83-11.76,1.83-15.64Z"/><path class="cls-9" d="M12,30.55l.87,1.27,3,3.4a.66.66,0,0,1-.48.4c-.29.06-2.81-2.2-3.89-3.19a.75.75,0,0,1-.12-1Z"/><path class="cls-28" d="M10.34,25.35s1.39,0,1.87,1.84.86,4.24.44,4.43a1.9,1.9,0,0,1-2.05-.1Z"/><path class="cls-24" d="M10.76,25.43a1.14,1.14,0,0,0-.75,0c-1.18.32-5.61,1.54-6.34,2.13S4.93,32,4.9,33.25,4.72,36,4.61,37.33s-.28,2.11.9,2.68a4.89,4.89,0,0,0,4.71-.47c1.51-1.09,1.24-1.83,1.18-2.61s-.58-4.18-.54-5.15a3.68,3.68,0,0,0,.93-1c.39-.63-.3-1.79-.59-2.55s.16-1.62.07-2.23A.69.69,0,0,0,10.76,25.43Z"/><path class="cls-10" d="M9.34,26.72c.09.69-.58,1.34-1.5,1.45a1.54,1.54,0,0,1-1.83-1c-.09-.69.58-1.34,1.5-1.45A1.54,1.54,0,0,1,9.34,26.72Z"/><path class="cls-9" d="M8.87,26.78c.06.49-.42.95-1.07,1a1.11,1.11,0,0,1-1.32-.74c-.06-.49.42-.95,1.07-1A1.11,1.11,0,0,1,8.87,26.78Z"/><path class="cls-9" d="M8.21,25.17s-.8-.62-1-.3A9.53,9.53,0,0,0,7,26.52l1.59.41-.24-1.37S8.63,25.31,8.21,25.17Z"/><ellipse class="cls-9" cx="8.33" cy="23.57" rx="2.37" ry="2.23"/><path class="cls-11" d="M7.14,25.26a2.07,2.07,0,0,1,0,.22c.16.77,1.4,1.11,1.4,1.11l-.18-1s.15-.12.1-.24C7.94,25.18,7.32,25.05,7.14,25.26Z"/><ellipse class="cls-9" cx="8.33" cy="23.57" rx="2.37" ry="2.23"/><polygon class="cls-9" points="2.48 33.01 2.75 38.98 3.67 39.06 4.28 33.69 2.48 33.01"/><path class="cls-28" d="M5.53,32.51c0-.21-.45-.38-.52-.65a22.46,22.46,0,0,1-.39-3.44l-.26,2.8a7.22,7.22,0,0,1,.54,2c0,.74-.07,1.55-.14,2.37h0S5.84,33.78,5.53,32.51Z"/><path class="cls-29" d="M3.85,27.39s-.75.27-1.17,2.41-.73,4.29,0,4.57,1.37.48,1.59-.09A27.56,27.56,0,0,0,4.68,30C4.7,29,4.74,27.59,3.85,27.39Z"/><path class="cls-9" d="M15.69,35a2,2,0,0,1,.69.44,3.92,3.92,0,0,1,.47.59c.23.33.43,1,.29,1.12s-.95-1.18-1.08-.88,0,.56-.16.56-.75-1.26-1.21-1.66S15.69,35,15.69,35Z"/><path class="cls-25" d="M7.73,54.36a3.33,3.33,0,0,0,.51,0h0l.35-13.12Z"/><path class="cls-24" d="M6.39,47.27l-.5-.6L.7,43.84a.65.65,0,0,1-.3-.54v-4l-.3-.36.28-.16h0a.23.23,0,0,1,.21,0L6.47,42a.66.66,0,0,1,.31.54v4.35c0,.12,0,.2-.11.23h0Z"/><path class="cls-30" d="M2.79,45l-.36-.2-2-3.31V39.3l-.3-.36.28-.16h0a.23.23,0,0,1,.21,0L6.47,42a.59.59,0,0,1,.23.24Z"/><path class="cls-30" d="M.24,39.1.1,38.94l.28-.16h0a.23.23,0,0,1,.21,0l.1.06Z"/><path class="cls-24" d="M6.53,42a.67.67,0,0,1,.24.47l-.57.31-.28-.45Z"/><path class="cls-29" d="M6.19,42.15.31,39c-.17-.09-.3,0-.31.21v4.35a.69.69,0,0,0,.3.55l5.89,3.2c.16.09.3,0,.3-.22V42.69A.66.66,0,0,0,6.19,42.15Z"/><polygon class="cls-10" points="4.99 45.27 4.7 45.12 4.7 42.86 4.99 43.01 4.99 45.27"/><polygon class="cls-10" points="4.33 44.92 4.05 44.76 4.05 42.5 4.33 42.65 4.33 44.92"/><polygon class="cls-10" points="3.67 44.56 3.39 44.41 3.39 42.15 3.67 42.3 3.67 44.56"/><path class="cls-9" d="M2.75,38.92a12.69,12.69,0,0,0-.2,1.84c0,.45.29,1.19.48,1.17s0-1.79.34-1.62.38.48.53.38-.27-1.63-.15-2.29S2.75,38.92,2.75,38.92Z"/><path class="cls-11" d="M9.24,23.76c1.19.4,1.42.16,1.43.14l0-.2a2.35,2.35,0,0,0-.08-.71l-3.09-.4A3.36,3.36,0,0,0,9.24,23.76Z"/><path class="cls-27" d="M10.78,21.48a3.58,3.58,0,0,0-3.1-1.08A2.63,2.63,0,0,0,5.37,23a3.71,3.71,0,0,0,1.1,3l.13-.07c.45-.28.5-.43.5-.43l.1-.85A.23.23,0,0,0,7,24.4a.46.46,0,0,1-.33-.19A.49.49,0,0,1,7,23.37a.39.39,0,0,0,.41-.28A.22.22,0,0,1,7.72,23a6.23,6.23,0,0,0,3,.38C11.92,23,11.06,21.7,10.78,21.48Z"/><path class="cls-10" d="M9.43,24.77l.73-.19a1.74,1.74,0,0,1-.86.64c-.5.14-.58-.27-.58-.27Z"/><polygon class="cls-30" points="3.99 40.64 3.37 40.31 3.6 40.67 3.91 40.78 3.99 40.64"/><path class="cls-14" d="M17.64,41.6l7.09-3.8a.34.34,0,0,0,.21-.28h0v-.74l-.4.31-4.44-2.45a1.45,1.45,0,0,0-1.22,0l-6.78,3.62-.52-.28v.75h0a.49.49,0,0,0,.29.37l4.54,2.49A1.46,1.46,0,0,0,17.64,41.6Z"/><path class="cls-2" d="M11.81,37.62l7.08-3.79a1.44,1.44,0,0,1,1.23.06l4.53,2.49c.36.2.4.5.08.67l-7.08,3.79a1.44,1.44,0,0,1-1.23-.06l-4.53-2.49C11.53,38.09,11.49,37.79,11.81,37.62Z"/><path class="cls-10" d="M17.65,40.84l7.08-3.79c.18-.1.24-.24.2-.37a.43.43,0,0,1-.18.17l-7.09,3.79a1.45,1.45,0,0,1-1.22,0l-4.54-2.5a.59.59,0,0,1-.28-.29c-.08.16,0,.35.27.49l4.53,2.49A1.44,1.44,0,0,0,17.65,40.84Z"/><path class="cls-10" d="M19.26,36.62c-.27-.15-.27-.38,0-.52a1.09,1.09,0,0,1,.95,0c.26.14.26.37,0,.51A1.09,1.09,0,0,1,19.26,36.62Z"/><path class="cls-10" d="M17.81,37.39c-.27-.14-.26-.37,0-.51a1.13,1.13,0,0,1,1,0c.27.15.26.38,0,.52A1.09,1.09,0,0,1,17.81,37.39Z"/><path class="cls-10" d="M16.36,38.17c-.26-.15-.26-.38,0-.52a1.09,1.09,0,0,1,.95,0c.27.14.26.37,0,.51A1.09,1.09,0,0,1,16.36,38.17Z"/><path class="cls-14" d="M57.59,46.91c0,.62-.46.87-1,.56a2.12,2.12,0,0,1-1-1.68c0-.62.46-.87,1-.56A2.12,2.12,0,0,1,57.59,46.91Z"/><path class="cls-14" d="M58,48.66v0c-.05-.26-.31-.49-.48-.43a1.25,1.25,0,0,1-1-.16,3,3,0,0,1-1-.9c-.17-.25-.43-.3-.48-.09v0L54.61,50l3.9,2.11Z"/><path class="cls-10" d="M57.59,46.91c0,.62-.46.87-1,.56a2.12,2.12,0,0,1-1-1.68c0-.62.46-.87,1-.56A2.12,2.12,0,0,1,57.59,46.91Z"/><path class="cls-10" d="M58,48.66v0c-.05-.26-.31-.49-.48-.43a1.25,1.25,0,0,1-1-.16,3,3,0,0,1-1-.9c-.17-.25-.43-.3-.48-.09v0L54.61,50l3.9,2.11Z"/><polygon class="cls-10" points="58.78 54.32 54.05 51.76 54.05 51.44 58.78 54 58.78 54.32"/><polygon class="cls-10" points="57.36 54.95 54.05 53.16 54.05 52.84 57.36 54.63 57.36 54.95"/><polygon class="cls-10" points="56.91 54.01 54.05 52.45 54.05 52.13 56.91 53.69 56.91 54.01"/><polygon class="cls-10" points="58.78 55.02 57.36 54.25 57.36 53.93 58.78 54.7 58.78 55.02"/><polygon class="cls-3" points="58.8 32.91 54.06 30.34 54.06 30.02 58.8 32.59 58.8 32.91"/><polygon class="cls-3" points="57.37 33.53 54.06 31.74 54.06 31.42 57.37 33.21 57.37 33.53"/><polygon class="cls-3" points="56.92 32.59 54.06 31.04 54.06 30.72 56.92 32.27 56.92 32.59"/><polygon class="cls-3" points="58.8 33.6 57.37 32.83 57.37 32.51 58.8 33.28 58.8 33.6"/><polygon class="cls-3" points="58.8 35.61 54.06 33.04 54.06 32.72 58.8 35.29 58.8 35.61"/><polygon class="cls-3" points="57.37 36.23 54.06 34.44 54.06 34.12 57.37 35.91 57.37 36.23"/><polygon class="cls-3" points="56.92 35.29 54.06 33.74 54.06 33.42 56.92 34.97 56.92 35.29"/><polygon class="cls-3" points="58.8 36.31 57.37 35.53 57.37 35.21 58.8 35.99 58.8 36.31"/><polygon class="cls-3" points="58.8 38.31 54.06 35.75 54.06 35.43 58.8 37.99 58.8 38.31"/><polygon class="cls-3" points="57.37 38.94 54.06 37.15 54.06 36.83 57.37 38.62 57.37 38.94"/><polygon class="cls-3" points="56.92 38 54.06 36.45 54.06 36.13 56.92 37.68 56.92 38"/><polygon class="cls-3" points="58.8 39.02 57.37 38.24 57.37 37.92 58.8 38.69 58.8 39.02"/><polygon class="cls-10" points="43.88 45.9 40.51 44.07 40.51 43.77 43.88 45.6 43.88 45.9"/><polygon class="cls-10" points="45.98 47.04 44.53 46.25 44.53 45.96 45.98 46.74 45.98 47.04"/><polygon class="cls-10" points="44 46.61 42.56 45.83 42.56 45.53 44 46.31 44 46.61"/><polygon class="cls-10" points="47.12 48.3 44.53 46.9 44.53 46.6 47.12 48.01 47.12 48.3"/><polygon class="cls-10" points="48.89 49.91 45.07 47.83 45.07 47.54 48.89 49.61 48.89 49.91"/><polygon class="cls-10" points="48.04 48.16 46.6 47.37 46.6 47.08 48.04 47.86 48.04 48.16"/><polygon class="cls-10" points="41.95 45.5 40.51 44.71 40.51 44.42 41.95 45.2 41.95 45.5"/><polygon class="cls-10" points="44.45 47.5 40.5 45.35 40.5 45.06 44.45 47.2 44.45 47.5"/><polygon class="cls-10" points="42.93 47.32 40.55 46.02 40.55 45.73 42.93 47.02 42.93 47.32"/><path class="cls-8" d="M78,62.93a.27.27,0,0,1-.23-.12.24.24,0,0,1,.09-.33l10-5.56a.16.16,0,0,0,.09-.14.17.17,0,0,0-.09-.15L85.1,55.09a.24.24,0,0,1-.09-.33.26.26,0,0,1,.35-.09l2.73,1.54a.63.63,0,0,1,.34.57.65.65,0,0,1-.34.56l-10,5.56A.31.31,0,0,1,78,62.93Z"/><polygon class="cls-1" points="79.91 67.19 76.44 65.3 72.97 67.19 76.44 69.07 79.91 67.19"/><polygon class="cls-14" points="76.44 67.32 76.44 65.2 80.59 62.95 80.59 65.07 76.44 67.32"/><polygon class="cls-14" points="76.44 65.2 72.29 62.95 72.29 65.07 76.44 67.32 76.44 65.2"/><polygon class="cls-2" points="80.59 62.95 76.44 60.7 72.29 62.95 76.44 65.2 80.59 62.95"/><polygon class="cls-19" points="42.96 17.72 43.66 19.88 45.45 21.04 44.09 21.56 44.5 23.69 42.96 21.83 41.42 22.02 41.83 20.33 40.47 18.34 42.26 19.12 42.96 17.72"/><polygon class="cls-19" points="48.66 20.79 49.36 22.95 51.15 24.1 49.8 24.62 50.2 26.76 48.66 24.9 47.13 25.09 47.53 23.4 46.18 21.4 47.97 22.19 48.66 20.79"/><polygon class="cls-19" points="39.75 17.97 37.96 16.81 37.26 14.65 37.15 14.87 37.15 18.78 37.26 18.77 38.8 20.63 38.39 18.49 39.75 17.97"/><polygon class="cls-31" points="24.65 7.1 25.35 9.26 27.14 10.41 25.78 10.94 26.19 13.07 24.65 11.21 23.11 11.4 23.52 9.71 22.16 7.71 23.95 8.5 24.65 7.1"/><path class="cls-31" d="M21.33,8.16l.83-.45,1.29.57v.83a4.48,4.48,0,0,1-.57.05S21.33,8.16,21.33,8.16Z"/><polygon class="cls-31" points="26.19 13.07 25.35 13.52 24.95 11.38 25.35 10.98 25.8 11.06 26.19 13.07"/><polygon class="cls-31" points="23.82 7.55 24.51 9.71 26.3 10.87 24.95 11.38 25.35 13.52 23.82 11.66 22.28 11.86 22.68 10.16 21.33 8.16 23.12 8.95 23.82 7.55"/><path class="cls-31" d="M25.35,13.52,25,11.39l1.35-.52L24.51,9.71l-.69-2.16L23.12,9l-1.79-.79.12.19,1.73.75.61-1.22.62,1.9L26,10.84l-1.23.47.38,2Z"/><polygon class="cls-31" points="23.82 7.55 24.65 7.1 25.35 9.26 24.51 9.71 23.82 7.55"/><polygon class="cls-31" points="27.14 10.41 26.3 10.87 24.51 9.71 25.35 9.26 27.14 10.41"/><polygon class="cls-31" points="24.56 9.76 24.43 9.69 25.33 9.2 25.35 9.26 25.41 9.3 24.56 9.76"/><polygon class="cls-31" points="30.35 10.17 31.05 12.33 32.84 13.48 31.48 14 31.89 16.14 30.35 14.28 28.82 14.47 29.22 12.78 27.86 10.78 29.66 11.57 30.35 10.17"/><path class="cls-31" d="M27,11.23l.84-.45,1.29.57s0,.81,0,.83a4.84,4.84,0,0,1-.57.05S27,11.23,27,11.23Z"/><polygon class="cls-31" points="31.89 16.14 31.06 16.59 30.65 14.45 31.05 14.05 31.51 14.13 31.89 16.14"/><polygon class="cls-31" points="29.52 10.62 30.22 12.78 32.01 13.93 30.65 14.45 31.06 16.59 29.52 14.73 27.98 14.92 28.39 13.23 27.03 11.23 28.82 12.02 29.52 10.62"/><path class="cls-31" d="M31.06,16.59l-.41-2.14L32,13.93l-1.79-1.15-.7-2.16-.7,1.4L27,11.23l.12.19,1.73.75.61-1.23.62,1.91,1.64,1.06-1.24.47.38,2Z"/><polygon class="cls-31" points="29.52 10.62 30.35 10.17 31.05 12.33 30.22 12.78 29.52 10.62"/><polygon class="cls-31" points="32.84 13.48 32.01 13.93 30.22 12.78 31.05 12.33 32.84 13.48"/><polygon class="cls-31" points="30.26 12.83 30.13 12.76 31.03 12.27 31.05 12.33 31.11 12.36 30.26 12.83"/><polygon class="cls-31" points="36.06 13.24 36.76 15.39 38.55 16.55 37.19 17.07 37.6 19.21 36.06 17.35 34.52 17.54 34.93 15.84 33.57 13.85 35.36 14.63 36.06 13.24"/><path class="cls-31" d="M32.73,14.3l.84-.45,1.29.57s0,.81,0,.83a4.78,4.78,0,0,1-.57,0S32.73,14.3,32.73,14.3Z"/><polygon class="cls-31" points="37.6 19.21 36.76 19.66 36.35 17.52 36.76 17.12 37.21 17.19 37.6 19.21"/><polygon class="cls-31" points="35.22 13.69 35.92 15.84 37.71 17 36.35 17.52 36.76 19.66 35.22 17.8 33.68 17.99 34.09 16.29 32.73 14.3 34.52 15.09 35.22 13.69"/><path class="cls-31" d="M36.76,19.66l-.41-2.14L37.71,17l-1.79-1.16-.7-2.15-.7,1.4-1.79-.79.13.18,1.72.76L35.2,14l.62,1.91L37.45,17l-1.24.47.39,2Z"/><polygon class="cls-31" points="35.22 13.69 36.06 13.24 36.76 15.39 35.92 15.84 35.22 13.69"/><polygon class="cls-31" points="38.55 16.55 37.71 17 35.92 15.84 36.76 15.39 38.55 16.55"/><polygon class="cls-31" points="35.96 15.9 35.84 15.83 36.74 15.34 36.76 15.39 36.82 15.43 35.96 15.9"/><polygon class="cls-31" points="41.76 16.31 42.46 18.46 44.25 19.62 42.89 20.14 43.3 22.28 41.76 20.42 40.22 20.61 40.63 18.91 39.27 16.92 41.06 17.7 41.76 16.31"/><path class="cls-31" d="M38.44,17.37l.83-.45,1.29.56v.84a4.63,4.63,0,0,1-.57,0S38.44,17.37,38.44,17.37Z"/><polygon class="cls-31" points="43.3 22.28 42.46 22.73 42.06 20.59 42.46 20.19 42.91 20.26 43.3 22.28"/><polygon class="cls-31" points="40.93 16.76 41.63 18.91 43.41 20.07 42.06 20.59 42.46 22.73 40.93 20.87 39.39 21.06 39.8 19.36 38.44 17.37 40.23 18.15 40.93 16.76"/><path class="cls-31" d="M42.46,22.73l-.4-2.14,1.35-.52-1.78-1.16-.7-2.15-.7,1.39-1.79-.78.12.18,1.73.76.61-1.23L41.52,19,43.16,20l-1.24.48.38,2Z"/><polygon class="cls-31" points="40.93 16.76 41.76 16.31 42.46 18.46 41.63 18.91 40.93 16.76"/><polygon class="cls-31" points="44.25 19.62 43.41 20.07 41.63 18.91 42.46 18.46 44.25 19.62"/><polygon class="cls-31" points="41.67 18.97 41.54 18.9 42.44 18.41 42.46 18.46 42.52 18.5 41.67 18.97"/><polygon class="cls-31" points="47.47 19.38 48.16 21.53 49.95 22.69 48.6 23.21 49 25.35 47.47 23.49 45.93 23.68 46.33 21.98 44.98 19.99 46.77 20.77 47.47 19.38"/><path class="cls-31" d="M44.14,20.44,45,20l1.29.56s0,.82,0,.84a4.93,4.93,0,0,1-.57,0S44.14,20.44,44.14,20.44Z"/><polygon class="cls-31" points="49 25.35 48.17 25.8 47.76 23.66 48.16 23.26 48.62 23.33 49 25.35"/><polygon class="cls-31" points="46.63 19.83 47.33 21.98 49.12 23.14 47.76 23.66 48.17 25.8 46.63 23.94 45.09 24.13 45.5 22.43 44.14 20.44 45.93 21.22 46.63 19.83"/><path class="cls-31" d="M48.17,25.8l-.41-2.14,1.36-.52L47.33,22l-.7-2.15-.7,1.39-1.79-.78.13.18,1.72.76.62-1.23.61,1.9,1.64,1.06-1.24.48.38,2Z"/><polygon class="cls-31" points="46.63 19.83 47.47 19.38 48.16 21.53 47.33 21.98 46.63 19.83"/><polygon class="cls-31" points="49.95 22.69 49.12 23.14 47.33 21.98 48.16 21.53 49.95 22.69"/><polygon class="cls-31" points="47.37 22.04 47.24 21.97 48.15 21.47 48.16 21.53 48.22 21.57 47.37 22.04"/></g></g></svg>