<svg xmlns="http://www.w3.org/2000/svg" viewBox="0 0 106.6 65.78"><defs><style>.cls-1{fill:#e1e1e1;}.cls-2{fill:#fafafa;}.cls-3{fill:#ececec;}.cls-4{fill:#f5f5f5;}.cls-5{fill:#1a2e35;}.cls-6{fill:#fff;}.cls-7{fill:#ff735d;}.cls-8{opacity:0.3;}.cls-9{fill:#375a64;}.cls-10{fill:red;}.cls-11{fill:#65c8d0;}.cls-12{opacity:0.1;}.cls-13{fill:aqua;}.cls-14{opacity:0.2;}.cls-15{opacity:0.4;}.cls-16{fill:blue;}.cls-17{fill:#f7931e;}.cls-18{fill:#6359cc;}.cls-19{fill:#88001c;}.cls-20{fill:#a24640;}.cls-21{fill:#c9655f;}.cls-22{fill:#838bc5;}.cls-23{fill:#ffbf9d;}.cls-24{opacity:0.5;}.cls-25{fill:#39b54a;}.cls-26{fill:#ff9a6c;}.cls-27{fill:#fbb03b;}</style></defs><g id="Layer_2" data-name="Layer 2"><g id="Layer_2-2" data-name="Layer 2"><path class="cls-1" d="M27.36,7.09h-7v-7h7ZM20.5,6.94h6.71V.23H20.5Z"/><path class="cls-1" d="M27.28.16s-1.5,1.56-3.4,3.45S20.44,7,20.43,7s1.51-1.56,3.4-3.45S27.27.14,27.28.16Z"/><path class="cls-1" d="M26.93,7.06A.45.45,0,0,1,26.87,7l-.17-.21c-.14-.19-.34-.46-.6-.79-.51-.66-1.25-1.55-2.11-2.49s-1.7-1.74-2.32-2.3c-.3-.29-.56-.51-.73-.67l-.2-.18L20.67.28s0,0,.08,0L21,.5l.75.64c.63.56,1.47,1.36,2.34,2.3S25.64,5.28,26.15,6c.25.33.45.61.58.8l.15.22Z"/><path class="cls-1" d="M103.74,26h-7V19h7Zm-6.85-.15h6.7V19.12h-6.7Z"/><path class="cls-1" d="M103.67,19.05s-1.51,1.56-3.4,3.45-3.44,3.42-3.46,3.4,1.51-1.56,3.4-3.45S103.65,19,103.67,19.05Z"/><path class="cls-1" d="M103.31,26l-.06-.07-.16-.22-.61-.79c-.51-.66-1.24-1.55-2.11-2.49s-1.7-1.74-2.31-2.3c-.31-.28-.56-.51-.74-.66l-.2-.18-.07-.07.08,0,.21.17c.18.15.44.37.75.65a32.91,32.91,0,0,1,4.44,4.8c.25.34.45.61.58.8l.15.23A.3.3,0,0,1,103.31,26Z"/><path class="cls-1" d="M8,36.74H1v-7H8Zm-6.85-.16h6.7v-6.7H1.18Z"/><path class="cls-1" d="M8,29.81s-1.51,1.56-3.4,3.45-3.44,3.42-3.46,3.4S2.61,35.1,4.5,33.2,7.94,29.79,8,29.81Z"/><path class="cls-1" d="M7.6,36.7l-.06-.07-.16-.21-.61-.79c-.51-.66-1.24-1.55-2.11-2.49S3,31.4,2.35,30.84l-.74-.67L1.41,30l-.07-.06s0,0,.08.05l.21.17.75.64c.63.56,1.47,1.36,2.34,2.3a32,32,0,0,1,2.1,2.51c.25.33.45.61.58.8l.15.22A.3.3,0,0,1,7.6,36.7Z"/><path class="cls-1" d="M92.65,50.5a5.21,5.21,0,0,0-2.23-.77,1.52,1.52,0,0,0-1,.2.21.21,0,0,0-.11.19.22.22,0,0,0,.1.13,3.19,3.19,0,0,0,3.29.25"/><path class="cls-1" d="M92.59,50.44a11.58,11.58,0,0,1-1.44-1.27,3.74,3.74,0,0,1-.9-1.67.68.68,0,0,1,.07-.56,5.6,5.6,0,0,1,2.27,3.5"/><path class="cls-1" d="M92.64,50.49a5,5,0,0,1,0-1.89,2.57,2.57,0,0,1,1-1.56,2.28,2.28,0,0,1,0,1.48,7.44,7.44,0,0,1-1,2.11"/><path class="cls-1" d="M93.76,52.51a3.27,3.27,0,0,0-1.78.9,3.4,3.4,0,0,0-1,1.76,2.41,2.41,0,0,0,1.65-1.05c.42-.53.7-1.11,1.15-1.6"/><path class="cls-1" d="M94,52.83a4.41,4.41,0,0,1,.51-4.17A5.33,5.33,0,0,1,94,52.83"/><path class="cls-1" d="M95.49,54.6a3.2,3.2,0,0,0-3,1.75.23.23,0,0,0,0,.24.2.2,0,0,0,.2.06,2.66,2.66,0,0,0,1.57-.81,13.93,13.93,0,0,1,1.31-1.24"/><path class="cls-1" d="M95.45,54.5a5.69,5.69,0,0,1-.06-3.17,1.53,1.53,0,0,1,.68-1s.07,0,.1,0a.27.27,0,0,1,.07.08,1.88,1.88,0,0,1,.15.91,4.76,4.76,0,0,1-.14.92,4.86,4.86,0,0,1-.49,1.65,2.58,2.58,0,0,0-.19.37c-.06.12-.06.16-.12.26"/><path class="cls-1" d="M99.38,55.09a4.09,4.09,0,0,1,.72-3.36c.05-.07.12-.14.2-.13s.16.18.16.31a6.06,6.06,0,0,1-1.08,3.18"/><path class="cls-1" d="M99.73,55.33a4.92,4.92,0,0,0,4-.81,3.23,3.23,0,0,0-2.18-.27,3.11,3.11,0,0,0-1.84,1.08"/><path class="cls-1" d="M100,54.59a4.63,4.63,0,0,1,3.65-2.1,2.24,2.24,0,0,1-1.2,1.31,6.59,6.59,0,0,1-1.74.52,1.21,1.21,0,0,0-.71.27"/><path class="cls-1" d="M99.45,51a10.4,10.4,0,0,0,.47-2.13,3.56,3.56,0,0,0-.42-2.11,4.63,4.63,0,0,0-.07,4.31"/><path class="cls-1" d="M101.83,49.81A5.7,5.7,0,0,1,106,47a4.67,4.67,0,0,1-4.2,2.86"/><path class="cls-1" d="M101.31,50.11a15.44,15.44,0,0,1,3.42,1.44,1.42,1.42,0,0,0,.78.15.67.67,0,0,0,.58-.47.69.69,0,0,0-.2-.6,1.57,1.57,0,0,0-.57-.34,6.3,6.3,0,0,0-3.91-.22"/><path class="cls-1" d="M100.6,51a1.4,1.4,0,0,1,.59.41,6.32,6.32,0,0,0,2.6,1.33c.1,0,.23,0,.28-.05s0-.18-.07-.25a3.63,3.63,0,0,0-1.57-1.06,4,4,0,0,0-1.83-.43"/><path class="cls-1" d="M99.8,45.76A4.89,4.89,0,0,0,103.56,47a.21.21,0,0,0,.17-.06c.1-.1,0-.26-.13-.35a4.33,4.33,0,0,0-3.8-.87"/><path class="cls-1" d="M100.75,45.41a5.23,5.23,0,0,1,4.7-.77,3.72,3.72,0,0,1-2.24,1,6.8,6.8,0,0,1-2.46-.21"/><path class="cls-1" d="M100.37,43c-.11-1.1,0-2-.12-3.09,0-.09,0-.19-.1-.22s-.22.09-.25.21a3.55,3.55,0,0,0,.47,3.08"/><path class="cls-1" d="M100.29,43.14a6.33,6.33,0,0,0,1.83-1.78,2.38,2.38,0,0,0,.58-1.69,1.78,1.78,0,0,0-1.32.65,3.76,3.76,0,0,0-.67,1.36c-.15.49-.25,1-.42,1.46"/><path class="cls-1" d="M102.09,42.64A14.77,14.77,0,0,0,106.6,40a2.29,2.29,0,0,0-1.7.13,5.34,5.34,0,0,0-2.84,2.51"/><path class="cls-1" d="M100.79,43.75a9.18,9.18,0,0,0,2.51,0,10.14,10.14,0,0,0,2.33-.78c.07,0,.14,0,.16-.12a.19.19,0,0,0-.05-.2.52.52,0,0,0-.2-.09,4.37,4.37,0,0,0-2.53.15,12.41,12.41,0,0,0-2.22,1"/><path class="cls-1" d="M96,45.8a4.45,4.45,0,0,1,0-3.66A2.77,2.77,0,0,1,96.33,44c-.07.62-.26,1.27-.27,1.9"/><path class="cls-1" d="M93.78,44.66A5.09,5.09,0,0,0,90,46.27a3.59,3.59,0,0,0,2.08-.38,11.75,11.75,0,0,0,1.78-1.19"/><path class="cls-1" d="M92.25,44.15a5.13,5.13,0,0,0-2,.06,2.43,2.43,0,0,0-1.54,1.31,3.68,3.68,0,0,0,1.9-.36,11.41,11.41,0,0,0,1.67-1"/><path class="cls-1" d="M94.51,44.17a6.19,6.19,0,0,0-2-1,2.17,2.17,0,0,0-2.08.5,4,4,0,0,0,2,.38,7.12,7.12,0,0,1,2.16.22"/><path class="cls-1" d="M94.51,44.2a4.64,4.64,0,0,1-1-4.36,6.66,6.66,0,0,1,1,4.36"/><path class="cls-1" d="M97.44,41.24c.21-.47.35-1,.53-1.44a4.19,4.19,0,0,1,.74-1.32A1.94,1.94,0,0,1,100,37.8a5.27,5.27,0,0,1-2.56,3.44"/><path class="cls-1" d="M96.91,41.85a6.93,6.93,0,0,0-1.16-1.42A2,2,0,0,0,94.16,40a3.66,3.66,0,0,0,2.75,1.84"/><path class="cls-1" d="M97,41.27a7.8,7.8,0,0,1-.53-1.7,2.71,2.71,0,0,1,.27-1.73,3.93,3.93,0,0,1,.29,3.45"/><path class="cls-1" d="M97.45,37.84a3.72,3.72,0,0,1,2.42-2.28,1,1,0,0,1,.42-.06.37.37,0,0,1,.32.26c0,.19-.12.35-.26.48a8.34,8.34,0,0,1-2.9,1.6"/><path class="cls-1" d="M97.46,36.94a7.72,7.72,0,0,1,.32-2.09,2.67,2.67,0,0,1,1.32-1.6,3.09,3.09,0,0,1-.59,2,9.78,9.78,0,0,0-1.07,1.88"/><path class="cls-1" d="M97.44,37.43a9.92,9.92,0,0,0-.78-2.51c-.33-.49-.87-.82-1.15-1.34a2,2,0,0,0,.06,1.52,4.29,4.29,0,0,0,.89,1.27c.35.37.66.66,1,1.06"/><path class="cls-1" d="M97.45,61s0-5.33,0-11.91,0-11.91,0-11.91,0,5.33,0,11.91S97.47,61,97.45,61Z"/><path class="cls-1" d="M102.11,45l-.2.07-.55.19c-.47.16-1.11.38-1.8.67a7,7,0,0,0-1.7.85,1.3,1.3,0,0,0-.35.46c-.05.12-.06.2-.07.2a.28.28,0,0,1,0-.06.41.41,0,0,1,0-.16,1.11,1.11,0,0,1,.33-.48,3,3,0,0,1,.74-.46c.3-.14.62-.28,1-.42.7-.29,1.34-.51,1.81-.66l.56-.16Z"/><path class="cls-1" d="M103.64,41.24s0,0-.06.06l-.17.16-.64.58-2.12,1.9c-.83.74-1.55,1.44-2.05,2l-.58.64-.15.18-.06.06a.21.21,0,0,1,0-.07l.14-.19.56-.65a26,26,0,0,1,2-2L102.74,42l.65-.56.18-.15Z"/><path class="cls-1" d="M99.75,44.69s.15-.41.32-.92.26-.93.28-.93a3.33,3.33,0,0,1-.2,1c-.09.25-.19.48-.26.64A1.27,1.27,0,0,1,99.75,44.69Z"/><path class="cls-1" d="M97.46,47.92a.83.83,0,0,1-.13-.15L97,47.35,95.92,46c-.43-.53-.82-1-1.11-1.36l-.33-.42L94.36,44a.76.76,0,0,1,.14.14c.09.09.21.23.36.4.29.34.69.82,1.12,1.36s.8,1,1.06,1.4c.14.18.24.33.31.43A1.14,1.14,0,0,1,97.46,47.92Z"/><path class="cls-1" d="M96.43,46.6a1.86,1.86,0,0,1-.42-.8,2.23,2.23,0,0,1-.1-.8h0q0,.09,0,.09s0,0,0-.1h0a3.78,3.78,0,0,0,.14.78A5.87,5.87,0,0,0,96.43,46.6Z"/><path class="cls-1" d="M95.11,45a1.3,1.3,0,0,0-.29-.18,1.94,1.94,0,0,0-.83-.06,5,5,0,0,0-.84.13l-.34.08a1,1,0,0,1,.33-.13,3.3,3.3,0,0,1,.84-.16,1.9,1.9,0,0,1,.86.09C95.05,44.81,95.12,44.94,95.11,45Z"/><path class="cls-1" d="M94.8,44.54s-.17-.07-.46-.16a4.69,4.69,0,0,0-1.14-.24A5.07,5.07,0,0,0,92,44.2c-.3,0-.48.11-.48.1l.12-.06.35-.09a4.09,4.09,0,0,1,1.18-.09,3.89,3.89,0,0,1,1.15.27,2.32,2.32,0,0,1,.33.14Z"/><path class="cls-1" d="M97.44,42.84a8.72,8.72,0,0,1-.33-1.16,10.12,10.12,0,0,1-.26-1.18,11.27,11.27,0,0,1,.34,1.16A7.82,7.82,0,0,1,97.44,42.84Z"/><path class="cls-1" d="M97.47,42.84a7.21,7.21,0,0,0-.37-.69,2.87,2.87,0,0,0-.55-.56s.09,0,.21.1a2,2,0,0,1,.4.41A1.7,1.7,0,0,1,97.47,42.84Z"/><path class="cls-1" d="M97.45,58.13s0-.13-.08-.36a5.6,5.6,0,0,0-.36-.92,13.1,13.1,0,0,0-1.89-2.67c-.42-.48-.83-.93-1.18-1.37a9.6,9.6,0,0,1-.84-1.21,6.2,6.2,0,0,1-.43-.91,1.44,1.44,0,0,1-.08-.26s0-.09,0-.09,0,.12.13.34a7.09,7.09,0,0,0,.44.89,11.16,11.16,0,0,0,.86,1.2c.34.43.75.88,1.18,1.36a12.43,12.43,0,0,1,1.88,2.69,5.59,5.59,0,0,1,.34.94,2.2,2.2,0,0,1,0,.27A.67.67,0,0,1,97.45,58.13Z"/><path class="cls-1" d="M101.66,53.37a1.16,1.16,0,0,1-.22.12,6.15,6.15,0,0,0-.57.38,6.48,6.48,0,0,0-.75.69c-.27.28-.54.6-.82.95-.55.69-1.07,1.31-1.38,1.8-.16.24-.27.45-.35.59a1.09,1.09,0,0,1-.12.23.14.14,0,0,1,0-.07l.07-.17a6.91,6.91,0,0,1,.33-.61,20.05,20.05,0,0,1,1.37-1.82c.28-.35.56-.67.83-1a5.07,5.07,0,0,1,.77-.68,3.59,3.59,0,0,1,.59-.36l.17-.08Z"/><path class="cls-1" d="M101.74,54.91a2.37,2.37,0,0,1-.46.07,6.72,6.72,0,0,0-1.11.22,3.14,3.14,0,0,0-1,.52c-.23.17-.34.32-.35.31l.07-.11a1.46,1.46,0,0,1,.25-.24,2.68,2.68,0,0,1,1-.55,4.58,4.58,0,0,1,1.12-.2Z"/><path class="cls-1" d="M99,55.86s.19-.33.35-.76.19-.82.22-.82a1.19,1.19,0,0,1,0,.25,2.74,2.74,0,0,1-.14.59,2.69,2.69,0,0,1-.27.54C99,55.79,99,55.87,99,55.86Z"/><path class="cls-1" d="M103,49.23l-.07,0-.22.1-.34.16-.45.23-.25.15-.27.17c-.19.11-.38.25-.58.39a11.27,11.27,0,0,0-1.2,1.06,12.12,12.12,0,0,0-1,1.24c-.13.21-.27.4-.37.59a1.91,1.91,0,0,0-.16.27l-.14.26c-.09.17-.15.32-.22.46s-.11.25-.15.35l-.09.22s0,.08,0,.07a.33.33,0,0,0,0-.08l.08-.23c0-.09.08-.21.14-.35a4.48,4.48,0,0,1,.21-.46l.13-.26c0-.1.11-.19.16-.28s.24-.39.38-.6a10.07,10.07,0,0,1,1-1.25,9.62,9.62,0,0,1,1.22-1.06c.2-.15.39-.28.58-.4l.28-.16.26-.14a4.83,4.83,0,0,1,.45-.23,3.05,3.05,0,0,1,.35-.15l.22-.09Z"/><path class="cls-1" d="M99.69,51.46a.58.58,0,0,1,.19-.27,1.14,1.14,0,0,1,.73-.29,2,2,0,0,1,.78.16.82.82,0,0,1,.29.14l-.31-.09a2.2,2.2,0,0,0-.75-.13,1.25,1.25,0,0,0-.71.25A2.39,2.39,0,0,0,99.69,51.46Z"/><path class="cls-1" d="M99.19,52a2.44,2.44,0,0,0,.21-.68,3.44,3.44,0,0,0,0-.71.43.43,0,0,1,.08.2,1.39,1.39,0,0,1,0,.52,1.23,1.23,0,0,1-.16.5C99.26,51.92,99.2,52,99.19,52Z"/><path class="cls-1" d="M93.77,58.89a17.67,17.67,0,0,0,1.67,6.21h4.11a17.88,17.88,0,0,0,1.57-6.21Z"/><path class="cls-2" d="M100.46,62.19s-1.36,0-3,0-3,0-3,0,1.35,0,3,0S100.46,62.17,100.46,62.19Z"/><path class="cls-2" d="M100.37,62.93s-1.27,0-2.84,0-2.83,0-2.83,0,1.27,0,2.83,0S100.37,62.9,100.37,62.93Z"/><path class="cls-2" d="M95.51,60.23a5.82,5.82,0,0,1,0,.94,5.9,5.9,0,0,1,0,.95,5.9,5.9,0,0,1,0-.95A5.82,5.82,0,0,1,95.51,60.23Z"/><path class="cls-2" d="M97.71,60.23a12,12,0,0,1,0,2,12,12,0,0,1,0-2Z"/><path class="cls-2" d="M99.77,60.21a12.52,12.52,0,0,1,0,2,16.68,16.68,0,0,1,0-2Z"/><path class="cls-2" d="M101,60.23s-1.58,0-3.54,0-3.54,0-3.54,0,1.58,0,3.54,0S101,60.21,101,60.23Z"/><path class="cls-1" d="M98.28,11.14H97.15v-.22h1.13Zm-2.25,0H94.91v-.22H96Zm-2.24,0H92.67v-.22h1.12Zm-2.24,0H90.42v-.22h1.13Zm6.84-.24h-.23V9.77h.23Zm-8.73-.12h-.22V9.66h.22Zm8.73-2.13h-.23V7.53h.23Zm-8.73-.11h-.22V7.42h.22Zm8.73-2.13h-.23V5.29h.23ZM89.66,6.3h-.22V5.18h.22Zm8.73-2.13h-.23V3h.23Zm-8.73-.12h-.22V2.93h.22ZM97.9,2.42H96.77V2.19H97.9Zm-2.25,0H94.53V2.19h1.12Zm-2.24,0H92.29V2.19h1.12Zm-2.24,0H90V2.19h1.13Z"/><path class="cls-1" d="M89.63,3.24a.83.83,0,1,1,.82-.82A.83.83,0,0,1,89.63,3.24Zm0-1.42a.6.6,0,0,0-.61.6.61.61,0,0,0,1.21,0A.6.6,0,0,0,89.63,1.82Z"/><path class="cls-1" d="M98.23,3.24a.83.83,0,1,1,.83-.82A.82.82,0,0,1,98.23,3.24Zm0-1.42a.6.6,0,0,0-.6.6.6.6,0,0,0,1.2,0A.6.6,0,0,0,98.23,1.82Z"/><path class="cls-1" d="M89.63,12.09a.83.83,0,1,1,.82-.82A.83.83,0,0,1,89.63,12.09Zm0-1.43a.61.61,0,1,0,.6.61A.61.61,0,0,0,89.63,10.66Z"/><path class="cls-1" d="M98.23,12.09a.83.83,0,1,1,.83-.82A.82.82,0,0,1,98.23,12.09Zm0-1.43a.61.61,0,1,0,.6.61A.6.6,0,0,0,98.23,10.66Z"/><path class="cls-1" d="M93.73,5.07H92.12V4.31h4.13v.76H94.64V9.18h-.91Z"/><path class="cls-1" d="M4.09,14H1.75l-.28.65a1.44,1.44,0,0,0-.14.53.44.44,0,0,0,.23.41,2,2,0,0,0,.65.12v.18H0v-.18a1,1,0,0,0,.59-.3,4.06,4.06,0,0,0,.57-1L3.53,9.13h.09L6,14.57a3.07,3.07,0,0,0,.56,1,.8.8,0,0,0,.47.18v.18H3.84v-.18H4a1,1,0,0,0,.54-.11.24.24,0,0,0,.11-.22.57.57,0,0,0,0-.18,1.81,1.81,0,0,0-.15-.37Zm-.16-.36-1-2.29-1,2.29Z"/><path class="cls-3" d="M8.39,53.55a3.37,3.37,0,0,1,2.08-.26,1.78,1.78,0,0,1,1,.46.74.74,0,0,1,0,1,1,1,0,0,1-.64.16,2.54,2.54,0,0,0-1.6.23c-.25.19-.42.5-.71.59a.71.71,0,0,1-.78-.34,1.22,1.22,0,0,1-.09-.9A1.37,1.37,0,0,1,8.39,53.55Z"/><path class="cls-3" d="M7,50.75a1,1,0,0,0,1.48,0,2.89,2.89,0,0,0,.63-1.29,7,7,0,0,0,.39-3.26A1.8,1.8,0,0,0,9,45.35a1,1,0,0,0-.9-.3,1.37,1.37,0,0,0-.78.83,7.81,7.81,0,0,0-.77,3.33A2.64,2.64,0,0,0,7,50.75"/><path class="cls-3" d="M5.89,51.55A2.06,2.06,0,0,0,6.2,49.7a3.63,3.63,0,0,0-1.1-1.59A5.91,5.91,0,0,0,3.15,47a2.1,2.1,0,0,0-.88-.15.92.92,0,0,0-.74.45,1.36,1.36,0,0,0,.2,1.25,14.42,14.42,0,0,0,1.29,2,3.36,3.36,0,0,0,1.41,1.21,1.28,1.28,0,0,0,1.51-.2"/><path class="cls-1" d="M6.92,59.07a.87.87,0,0,0,0-.25L7,58.14a9.55,9.55,0,0,1,.15-1A7.92,7.92,0,0,1,7.54,56a4.74,4.74,0,0,1,.6-1.07,2.34,2.34,0,0,1,.77-.64,2.51,2.51,0,0,1,.64-.2.87.87,0,0,0,.25,0H9.55a2.25,2.25,0,0,0-.67.18,2.33,2.33,0,0,0-.81.64,4.27,4.27,0,0,0-.63,1.09,8.14,8.14,0,0,0-.36,1.21,8.75,8.75,0,0,0-.13,1c0,.29,0,.53,0,.69A1,1,0,0,0,6.92,59.07Z"/><path class="cls-1" d="M7,58.55V58.1c0-.29,0-.71,0-1.22,0-1,.11-2.15.28-3.71s.38-3.18.61-4.3c0-.25.1-.48.15-.68s.08-.37.12-.51l.08-.32c0-.08,0-.11,0-.12s0,0,0,.11l-.1.32c0,.14-.09.31-.14.51s-.1.43-.16.68a36.45,36.45,0,0,0-.64,4c-.17,1.56-.25,3-.26,4,0,.52,0,.94,0,1.23l0,.33C7,58.51,7,58.55,7,58.55Z"/><path class="cls-1" d="M7,55.79a1.48,1.48,0,0,0,0-.34,7.48,7.48,0,0,0-.11-1,12.44,12.44,0,0,0-.3-1.37A10.75,10.75,0,0,0,6,51.51,8.72,8.72,0,0,0,4.3,48.89c-.13-.15-.28-.26-.39-.37l-.17-.14-.16-.11a1.91,1.91,0,0,0-.29-.18,9,9,0,0,1,1,.85,9.11,9.11,0,0,1,1.64,2.61,13.58,13.58,0,0,1,.58,1.61,12.31,12.31,0,0,1,.32,1.36c.07.39.12.71.14.93S7,55.79,7,55.79Z"/><polygon class="cls-1" points="4.31 60.65 4.59 64.43 9.44 64.43 9.72 60.65 4.31 60.65"/><rect class="cls-1" x="3.84" y="59.16" width="6.46" height="1.49"/><polygon class="cls-3" points="3.84 64.28 3.84 64.7 4.15 64.7 10.19 64.7 10.19 64.28 3.84 64.28"/><polygon class="cls-1" points="4.44 65.42 4.15 64.7 9.96 64.7 9.61 65.42 4.44 65.42"/><path class="cls-4" d="M9.63,61.88l0,0-.08.1-.28.36h0l-.7-1h0l-.68,1,0,0,0,0-.81-1h0l0,.06-.72.91,0,0,0,0-.68-1h0l-.85,1v0l-.27-.45-.06-.12,0,0s0,0,0,0l.08.11.27.44h0c.21-.26.5-.59.83-1l0,0,0,0,.69,1h0L7,61.44l0-.06,0,0,0,0c.28.34.55.67.81,1h0l.69-1,0,0,0,0,.68,1h0L9.52,62l.08-.1Z"/><path class="cls-4" d="M9.79,60.62s-1.22,0-2.72,0-2.72,0-2.72,0,1.22,0,2.72,0S9.79,60.61,9.79,60.62Z"/><path class="cls-4" d="M10,64.74s-1.32,0-2.95,0-2.95,0-2.95,0,1.32,0,3,0S10,64.72,10,64.74Z"/><path class="cls-5" d="M104.52,65.41s-23.17,0-51.73,0S1,65.43,1,65.41s23.17,0,51.75,0S104.52,65.39,104.52,65.41Z"/><polygon class="cls-6" points="78.23 0.04 32.01 0.04 32.01 43.17 52.59 43.17 52.59 46.99 55.96 43.17 78.23 43.17 78.23 0.04"/><rect class="cls-1" x="31.93" y="0.04" width="46.37" height="3.13"/><path class="cls-6" d="M34.43,1.71A.68.68,0,1,1,33.75,1,.68.68,0,0,1,34.43,1.71Z"/><path class="cls-6" d="M36.39,1.71a.68.68,0,1,1-1.36,0,.68.68,0,1,1,1.36,0Z"/><path class="cls-6" d="M38.34,1.71A.68.68,0,1,1,37.66,1,.68.68,0,0,1,38.34,1.71Z"/><path class="cls-5" d="M78.23,43.21c0-.28,0-17.16,0-43.17l0,0H32l0,0v2.7c0,14.56,0,28.32,0,40.47l0,0H52.62V47l0,0,3.37-3.71h0l22.27,0L56,43.3h0L52.61,47l0,.05V43.21l0,0H32V0h46.3V0C78.25,26.05,78.23,42.93,78.23,43.21Z"/><rect class="cls-1" x="34.52" y="9.42" width="7.1" height="1"/><path class="cls-5" d="M48.7,13s-3.17,0-7.08,0-7.07,0-7.07,0,3.16,0,7.07,0S48.7,12.93,48.7,13Z"/><path class="cls-5" d="M44.46,17.15s-2.22,0-5,0-5,0-5,0,2.22,0,5,0S44.46,17.13,44.46,17.15Z"/><path class="cls-5" d="M48.7,14.89s-3.17,0-7.08,0-7.07,0-7.07,0,3.16,0,7.07,0S48.7,14.86,48.7,14.89Z"/><path class="cls-7" d="M53.91,37.42H48.2V31.71h5.71Zm-5.56-.15h5.41v-5.4H48.35Z"/><path class="cls-7" d="M43.17,37.42H37.46V31.71h5.71Zm-5.56-.15H43v-5.4H37.61Z"/><path class="cls-5" d="M43.41,38.69s-1.39,0-3.09,0-3.1,0-3.1,0,1.39,0,3.1,0S43.41,38.67,43.41,38.69Z"/><path class="cls-5" d="M42.88,40s-1.2,0-2.69,0-2.68,0-2.68,0,1.2,0,2.68,0S42.88,39.93,42.88,40Z"/><path class="cls-5" d="M54.3,38.69s-1.38,0-3.09,0-3.09,0-3.09,0,1.38,0,3.09,0S54.3,38.67,54.3,38.69Z"/><path class="cls-5" d="M53.77,40s-1.2,0-2.68,0-2.68,0-2.68,0,1.2,0,2.68,0S53.77,39.93,53.77,40Z"/><path class="cls-7" d="M53.84,31.79s-1.22,1.27-2.75,2.81-2.8,2.76-2.81,2.75,1.21-1.27,2.75-2.81S53.82,31.77,53.84,31.79Z"/><path class="cls-7" d="M53.55,37.38l0-.05-.14-.18-.49-.63c-.41-.54-1-1.26-1.71-2s-1.38-1.41-1.87-1.87l-.6-.54-.16-.15-.05-.05.06,0,.17.14c.15.12.36.29.61.52a26.28,26.28,0,0,1,1.9,1.86c.7.76,1.29,1.49,1.7,2l.47.66.12.18Z"/><path class="cls-7" d="M43,32.13s-1.21,1.19-2.72,2.62-2.77,2.59-2.78,2.57,1.2-1.19,2.72-2.62S43,32.11,43,32.13Z"/><path class="cls-7" d="M42.92,37.32l-.06,0-.14-.17c-.12-.15-.29-.37-.51-.63-.44-.53-1.06-1.24-1.79-2s-1.44-1.38-2-1.83l-.62-.52L37.67,32,37.61,32s0,0,.07,0l.18.13c.15.11.37.28.63.5a26,26,0,0,1,3.76,3.81c.22.27.39.49.5.65l.13.18A.25.25,0,0,0,42.92,37.32Z"/><path class="cls-7" d="M74,37.34H68.3V31.63H74Zm-5.56-.15h5.41V31.78H68.45Z"/><path class="cls-7" d="M64,37.34H58.32V31.63H64Zm-5.56-.15h5.41V31.78H58.47Z"/><path class="cls-5" d="M64.27,38.6s-1.38,0-3.09,0-3.1,0-3.1,0,1.39,0,3.1,0S64.27,38.58,64.27,38.6Z"/><path class="cls-5" d="M63.74,39.87s-1.2,0-2.68,0-2.69,0-2.69,0,1.2,0,2.69,0S63.74,39.85,63.74,39.87Z"/><path class="cls-5" d="M74.4,38.6s-1.38,0-3.09,0-3.09,0-3.09,0,1.38,0,3.09,0S74.4,38.58,74.4,38.6Z"/><path class="cls-5" d="M73.87,39.87s-1.2,0-2.68,0-2.68,0-2.68,0,1.2,0,2.68,0S73.87,39.85,73.87,39.87Z"/><path class="cls-7" d="M73.94,31.71s-1.22,1.27-2.76,2.8-2.79,2.77-2.8,2.75,1.21-1.27,2.75-2.8S73.92,31.69,73.94,31.71Z"/><path class="cls-7" d="M73.65,37.3s0,0-.05-.06l-.14-.17L73,36.43c-.41-.53-1-1.26-1.71-2S69.88,33,69.38,32.54L68.79,32l-.16-.15-.06-.06.07.05.17.13.61.52c.51.45,1.19,1.1,1.9,1.86a26.37,26.37,0,0,1,1.7,2l.47.65.12.18A.28.28,0,0,1,73.65,37.3Z"/><path class="cls-7" d="M63.84,32s-1.21,1.19-2.72,2.63-2.77,2.58-2.78,2.57,1.2-1.2,2.72-2.63S63.82,32,63.84,32Z"/><path class="cls-7" d="M63.78,37.24l-.06-.06L63.58,37l-.51-.63c-.44-.52-1.06-1.24-1.79-2s-1.44-1.38-2-1.82l-.62-.52-.17-.15-.06-.05.07,0,.18.13.63.51a22,22,0,0,1,2,1.81,22.31,22.31,0,0,1,1.78,2c.22.27.39.49.5.64l.13.18A.28.28,0,0,1,63.78,37.24Z"/><path class="cls-7" d="M73.72,25.4H54.36V6.05H73.72Zm-19.2-.15h19V6.2h-19Z"/><path class="cls-7" d="M72.82,24.51H55.22V6.9h17.6Zm-17.45-.15h17.3V7.05H55.37Z"/><polygon class="cls-7" points="55.61 24.27 55.49 24.18 60.67 17.29 64.26 19.28 68.79 12.4 68.92 12.48 64.31 19.48 60.71 17.49 55.61 24.27"/><path class="cls-7" d="M63.43,14.37a2.32,2.32,0,1,1,2.32-2.32A2.32,2.32,0,0,1,63.43,14.37Zm0-4.48a2.17,2.17,0,1,0,2.17,2.16A2.17,2.17,0,0,0,63.43,9.89Z"/><rect class="cls-7" x="60.55" y="17.24" width="0.29" height="0.29"/><rect class="cls-7" x="64.12" y="19.22" width="0.29" height="0.29"/><rect class="cls-7" x="68.71" y="12.34" width="0.29" height="0.29"/><rect class="cls-7" x="63.29" y="14.15" width="0.29" height="0.29"/><rect class="cls-7" x="63.29" y="9.65" width="0.29" height="0.29"/><rect class="cls-7" x="65.54" y="11.91" width="0.29" height="0.29" transform="translate(53.63 77.73) rotate(-90)"/><rect class="cls-7" x="61.03" y="11.91" width="0.29" height="0.29" transform="translate(49.12 73.23) rotate(-90)"/><rect class="cls-7" x="55.41" y="24.08" width="0.29" height="0.29"/><path class="cls-7" d="M68.86,15.56s0-1.31,0-2.93,0-2.94,0-2.94,0,1.31,0,2.94S68.88,15.56,68.86,15.56Z"/><path class="cls-7" d="M69,9.69a.11.11,0,0,1-.1.11.11.11,0,1,1,0-.22A.11.11,0,0,1,69,9.69Z"/><circle class="cls-7" cx="68.86" cy="15.62" r="0.11"/><path class="cls-1" d="M76.31,28.9s-7.9,0-17.65,0S41,28.92,41,28.9s7.9,0,17.66,0S76.31,28.88,76.31,28.9Z"/><polygon class="cls-2" points="81.75 51.71 82 63.22 69.48 63.4 69.23 51.88 81.75 51.71"/><path class="cls-5" d="M81.75,51.71h-.92l-2.56.05-9,.14,0,0c.07,3.43.16,7.36.25,11.52h0l0,0L82,63.19l0,0c-.07-3.46-.13-6.34-.17-8.35,0-1,0-1.79,0-2.33v-.62a1.11,1.11,0,0,1,0-.21v.2l0,.61.06,2.33c0,2,.11,4.9.2,8.37v0h0l-12.51.18h0v0h0c-.09-4.16-.18-8.09-.25-11.52v0h0l9.06-.11,2.55,0h.91Z"/><polygon class="cls-7" points="69.9 62.82 81.53 62.66 81.31 52.6 69.68 52.76 69.9 62.82"/><g class="cls-8"><polygon points="69.9 62.82 73.83 56.51 76.43 60.39 78.09 58.27 81.53 62.66 69.9 62.82"/></g><g class="cls-8"><path d="M77.4,55.76a1,1,0,0,1-.9,1.07,1,1,0,0,1-.94-1,1,1,0,0,1,.9-1.07A1,1,0,0,1,77.4,55.76Z"/></g><polygon class="cls-2" points="78.62 50.64 78.87 62.15 66.36 62.33 66.1 50.81 78.62 50.64"/><path class="cls-5" d="M78.62,50.64h-.24l-.68,0-2.56,0-9,.15,0,0c.07,3.43.16,7.36.25,11.51h0l0,0,12.52-.17,0,0c-.07-3.47-.13-6.34-.17-8.35,0-1,0-1.79,0-2.33v-.63l0,.61.06,2.33c0,2,.11,4.89.2,8.37v0h0l-12.51.19h0v0h0c-.09-4.15-.18-8.08-.25-11.51v0h0l9.06-.1,2.55,0h.91Z"/><polygon class="cls-9" points="66.77 61.59 78.4 61.43 78.18 51.37 66.55 51.53 66.77 61.59"/><polygon class="cls-9" points="66.77 61.59 70.7 55.28 73.3 59.16 74.96 57.04 78.4 61.43 66.77 61.59"/><path class="cls-9" d="M74.27,54.47a1,1,0,0,1-.9,1.06,1,1,0,0,1-.94-1,1,1,0,0,1,.9-1.07A1,1,0,0,1,74.27,54.47Z"/><g class="cls-8"><polygon points="66.77 61.59 70.7 55.28 73.3 59.16 74.96 57.04 78.4 61.43 66.77 61.59"/></g><g class="cls-8"><path d="M74.27,54.47a1,1,0,0,1-.9,1.06,1,1,0,0,1-.94-1,1,1,0,0,1,.9-1.07A1,1,0,0,1,74.27,54.47Z"/></g><polygon class="cls-2" points="77.26 49.17 77.51 60.69 65 60.86 64.75 49.35 77.26 49.17"/><path class="cls-5" d="M77.26,49.17h-.92l-2.56.05-9,.15,0,0c.07,3.43.16,7.35.25,11.51h0l0,0,12.51-.17,0,0c-.07-3.47-.13-6.34-.17-8.35,0-1,0-1.8,0-2.34v-.83s0,.07,0,.21V50l.06,2.32c0,2,.12,4.9.2,8.38v0h0L65,60.9h0v0h0c-.09-4.16-.17-8.08-.25-11.51v0h0l9-.11,2.56,0h.9Z"/><polygon class="cls-10" points="65.41 60.29 77.05 60.13 76.83 50.06 65.19 50.23 65.41 60.29"/><g class="cls-8"><polygon points="65.41 60.29 69.34 53.98 71.94 57.85 73.6 55.74 77.05 60.13 65.41 60.29"/></g><g class="cls-8"><path d="M72.91,53.23a.92.92,0,1,1-1.83,0A1,1,0,0,1,72,52.19,1,1,0,0,1,72.91,53.23Z"/></g><polygon class="cls-2" points="75.8 50.66 76.08 62.17 62.55 62.35 62.28 50.83 75.8 50.66"/><path class="cls-5" d="M75.8,50.66h-.25l-.74,0-2.77,0-9.76.15,0,0c.09,3.43.18,7.36.28,11.51h0l0-.05,13.52-.16,0,0c-.07-3.47-.13-6.34-.18-8.35,0-1,0-1.79,0-2.33l0-.62v-.21a1.57,1.57,0,0,1,0,.2l0,.61.06,2.33.22,8.37v0h0l-13.53.19h0v0h0c-.1-4.16-.19-8.09-.27-11.52v0h0l9.79-.11,2.76,0h1Z"/><polygon class="cls-11" points="63 61.62 75.57 61.45 75.34 51.39 62.76 51.55 63 61.62"/><g class="cls-8"><polygon points="63 61.62 67.24 55.3 70.06 59.18 71.85 57.06 75.57 61.45 63 61.62"/></g><g class="cls-8"><path d="M71.1,54.49a1,1,0,0,1-1,1.06,1,1,0,0,1-1-1,1,1,0,0,1,1-1.07A1,1,0,0,1,71.1,54.49Z"/></g><rect class="cls-5" x="69.45" y="57.55" width="12.74" height="7.81"/><rect class="cls-9" x="61.67" y="57.55" width="13.97" height="7.81"/><polygon class="cls-9" points="18.03 16.67 24.39 16.67 24.28 20.71 19.17 21.87 18.03 16.67"/><path class="cls-7" d="M16.86,59.94l-1.18,2.88S18.2,65,18,65.55l-5.66-2.1L14,58.89Z"/><g class="cls-8"><path d="M16.86,59.94l-1.18,2.88S18.2,65,18,65.55l-5.66-2.1L14,58.89Z"/></g><path class="cls-1" d="M14,61.93a.24.24,0,0,0-.26.2.23.23,0,0,0,.2.26.26.26,0,0,0,.27-.22c0-.12-.12-.26-.24-.24"/><path class="cls-5" d="M12.37,63.45l.19-.46,5.36,2.19s.21.2.11.37Z"/><path class="cls-5" d="M15.78,62.83s-.16,0-.32,0-.29.13-.31.11.08-.16.28-.21S15.79,62.8,15.78,62.83Z"/><path class="cls-5" d="M16.28,63.29s-.14,0-.28.12-.21.19-.23.18,0-.17.18-.27S16.29,63.27,16.28,63.29Z"/><path class="cls-5" d="M16.35,64.13s0-.16.12-.28.28-.14.28-.11-.11.08-.21.18S16.38,64.14,16.35,64.13Z"/><path class="cls-5" d="M16,62.14s-.14-.06-.3-.11-.3,0-.3-.07.14-.09.33,0S16,62.12,16,62.14Z"/><path class="cls-7" d="M14,60.44l-.09,3.27s3.3,1.2,3.34,1.81l-6.36,0-.07-5.12Z"/><path class="cls-1" d="M11.93,63.45a.27.27,0,0,0-.18.3.25.25,0,0,0,.29.18.28.28,0,0,0,.19-.32.25.25,0,0,0-.32-.15"/><path class="cls-5" d="M10.87,65.7v-.5H17s.28.12.25.32Z"/><path class="cls-5" d="M14,63.68s-.15,0-.31.15-.23.23-.26.22,0-.19.2-.31S14,63.65,14,63.68Z"/><path class="cls-5" d="M14.67,64s-.13.09-.23.22-.13.27-.17.27a.33.33,0,0,1,.09-.34C14.49,63.94,14.67,63.92,14.67,64Z"/><path class="cls-5" d="M15.06,64.75s-.08-.15,0-.32.23-.24.24-.21-.08.11-.14.25S15.09,64.75,15.06,64.75Z"/><path class="cls-5" d="M13.94,62.93s-.16,0-.33,0-.31.07-.33,0,.11-.13.32-.15S14,62.91,13.94,62.93Z"/><path class="cls-5" d="M19.85,31.37s2.59,10.49,3,13.85a11.06,11.06,0,0,1-.36,4.35,1.2,1.2,0,0,1-.15.45L16.75,60.9l-3.88-1.34s2.91-8.78,3.54-10.19l.72-1.27L11.47,33.78Z"/><path class="cls-5" d="M17.09,33.63c.08.29-3.33,17.15-3.33,17.15l.44,12.07-3.59.1s-1.83-6.58-1.9-10.46.36-4.54,0-7S6.37,37.7,7.3,34.13a8.31,8.31,0,0,1,2.78-4.42Z"/><path class="cls-9" d="M14.2,63v-.24l0-.7c0-.62,0-1.5-.07-2.59-.08-2.21-.18-5.26-.29-8.7h0l.25-1.29c.73-3.67,1.38-7,1.85-9.41l.55-2.86.15-.77,0-.2a.42.42,0,0,0,0-.07.32.32,0,0,0,0,.06l0,.2-.16.78L15.86,40c-.48,2.41-1.15,5.73-1.88,9.4-.09.44-.17.88-.26,1.29h0c.13,3.44.24,6.49.32,8.7.05,1.09.08,2,.11,2.59l0,.7v.18A.28.28,0,0,1,14.2,63Z"/><path class="cls-9" d="M17.1,47.87a1.36,1.36,0,0,0,.5.61,1.46,1.46,0,0,0,.72.32s-.32-.14-.66-.4S17.12,47.85,17.1,47.87Z"/><path class="cls-5" d="M10,6.84a1.41,1.41,0,0,0-1.55-.12A2.06,2.06,0,0,0,7.5,8a1.6,1.6,0,0,0,0,.84A1,1,0,0,0,8,9.52c.12.06.25.09.32.2s-.08.48,0,.71a.4.4,0,0,0,.48.25,1,1,0,0,0,.5-.31,3.82,3.82,0,0,0,1.09-2.29A1.12,1.12,0,0,0,10,6.84Z"/><path class="cls-2" d="M33.6,60,22.91,59.6a2.17,2.17,0,0,1-2.1-2.23l1.72-40.54a2.18,2.18,0,0,1,2.28-2.07l10.69.38a2.17,2.17,0,0,1,2.11,2.23L35.89,57.92A2.2,2.2,0,0,1,33.6,60Z"/><path class="cls-5" d="M33.6,60h.3a2.24,2.24,0,0,0,.85-.27,2.17,2.17,0,0,0,.94-1,2.27,2.27,0,0,0,.18-.88l0-1c.12-2.92.29-7.15.51-12.38s.47-11.45.76-18.36c.07-1.73.15-3.5.22-5.31,0-.9.08-1.81.12-2.74a3.39,3.39,0,0,0-.09-1.35,2.09,2.09,0,0,0-.84-1.06,2.24,2.24,0,0,0-.63-.28,3.29,3.29,0,0,0-.71-.07l-1.46-.06L30.84,15l-6-.22a2.2,2.2,0,0,0-1.38.43,2.09,2.09,0,0,0-.78,1.19,3.38,3.38,0,0,0-.07.72l0,.73-.07,1.47q-.12,2.91-.24,5.73c-.16,3.76-.32,7.39-.46,10.85-.3,6.91-.57,13.13-.8,18.36,0,.65-.05,1.29-.08,1.91l0,.92a2.58,2.58,0,0,0,.06.88,2.12,2.12,0,0,0,1,1.29,2.15,2.15,0,0,0,.78.24c.26,0,.54,0,.8,0l5.44.21,3.43.14.9,0,.3,0h-.31l-.89,0L29,59.84l-5.43-.19c-.27,0-.53,0-.81,0a2.33,2.33,0,0,1-.81-.26A2.2,2.2,0,0,1,20.84,58a2.48,2.48,0,0,1-.06-.9l0-.92.08-1.92c.22-5.22.48-11.45.77-18.36.14-3.45.3-7.08.45-10.84.08-1.88.17-3.8.25-5.74l.06-1.46,0-.74a3.78,3.78,0,0,1,.07-.74,2.29,2.29,0,0,1,.83-1.26,2.42,2.42,0,0,1,1.47-.46l6,.22L33.8,15l1.46.05a3.63,3.63,0,0,1,.73.08,2.25,2.25,0,0,1,.67.3,2.18,2.18,0,0,1,.89,1.12,2.06,2.06,0,0,1,.12.7c0,.24,0,.47,0,.7l-.11,2.74c-.08,1.81-.16,3.58-.23,5.31-.3,6.9-.57,13.13-.79,18.35s-.42,9.46-.55,12.38l-.05,1a2.52,2.52,0,0,1-.18.89,2.25,2.25,0,0,1-1,1,2.22,2.22,0,0,1-.86.26h-.3Z"/><polygon class="cls-7" points="36.67 25.05 22.81 24.55 23.1 17.59 36.97 18.09 36.67 25.05"/><polygon class="cls-7" points="36.26 34.91 22.39 34.41 22.68 27.45 36.55 27.95 36.26 34.91"/><polygon class="cls-7" points="35.84 44.77 21.97 44.27 22.27 37.31 36.13 37.81 35.84 44.77"/><polygon class="cls-7" points="35.42 54.63 21.55 54.12 21.85 47.16 35.72 47.67 35.42 54.63"/><g class="cls-12"><polygon class="cls-13" points="36.67 25.05 22.81 24.55 23.1 17.59 36.97 18.09 36.67 25.05"/></g><g class="cls-14"><polygon points="36.26 34.91 22.39 34.41 22.68 27.45 36.55 27.95 36.26 34.91"/></g><g class="cls-8"><polygon points="35.84 44.77 21.97 44.27 22.27 37.31 36.13 37.81 35.84 44.77"/></g><g class="cls-15"><polygon points="35.42 54.63 21.55 54.12 21.85 47.16 35.72 47.67 35.42 54.63"/></g><path class="cls-2" d="M33.4,60.1,23,60.21a2.07,2.07,0,0,1-2-2.1l-.4-41.9a2.07,2.07,0,0,1,2-2.15L33,14a2.07,2.07,0,0,1,2,2.11L35.39,58A2.07,2.07,0,0,1,33.4,60.1Z"/><path class="cls-5" d="M33.4,60.1a1.9,1.9,0,0,0,.28,0,2,2,0,0,0,.79-.32,2.11,2.11,0,0,0,.81-1.15,2.7,2.7,0,0,0,.08-.92V56.62c0-3-.08-7.38-.14-12.76s-.12-11.8-.19-18.92c0-1.78,0-3.6-.05-5.47l0-2.82c0-.24,0-.48,0-.71a2.67,2.67,0,0,0-.15-.68,2.09,2.09,0,0,0-.89-1,1.8,1.8,0,0,0-.63-.21,5.2,5.2,0,0,0-.69,0l-1.39,0-2.82,0-5.76.06a1.87,1.87,0,0,0-1.29.53,2.06,2.06,0,0,0-.63,1.28c0,.24,0,.5,0,.75V19c0,2,0,4,0,5.92,0,3.87.07,7.61.11,11.17C20.91,43.16,21,49.58,21,55c0,.68,0,1.33,0,2v1a2.65,2.65,0,0,0,.12.9A2.05,2.05,0,0,0,22.24,60a3.48,3.48,0,0,0,1.53.16l5.2,0,3.28,0h.85l-.85,0-3.28,0-5.2.06H23a2,2,0,0,1-.79-.17,2.18,2.18,0,0,1-1.14-1.27,2.9,2.9,0,0,1-.12-.93v-1c0-.64,0-1.29,0-2-.05-5.38-.12-11.8-.19-18.92,0-3.56-.07-7.3-.1-11.17q0-2.91-.06-5.91V16.69a6.45,6.45,0,0,1,0-.76,2.18,2.18,0,0,1,.67-1.37A2,2,0,0,1,22.6,14l5.76-.06,2.82,0,1.39,0a5.46,5.46,0,0,1,.7,0,2,2,0,0,1,.68.23,2.24,2.24,0,0,1,.94,1.07,2.51,2.51,0,0,1,.16.72c0,.24,0,.48,0,.72l0,2.82c0,1.86,0,3.69,0,5.47.06,7.12.11,13.53.16,18.92s.07,9.74.1,12.76v1.06c0,.17,0,.33,0,.49l0,.23-.06.22a2.08,2.08,0,0,1-.83,1.15,1.83,1.83,0,0,1-.79.31,1,1,0,0,1-.22,0Z"/><polygon class="cls-16" points="34.49 24.08 21.26 24.22 21.19 17.05 34.43 16.92 34.49 24.08"/><polygon class="cls-7" points="34.59 34.22 21.35 34.36 21.29 27.2 34.52 27.06 34.59 34.22"/><polygon class="cls-7" points="34.68 44.37 21.45 44.51 21.38 37.34 34.62 37.21 34.68 44.37"/><polygon class="cls-7" points="34.78 54.52 21.54 54.65 21.47 47.49 34.71 47.35 34.78 54.52"/><polygon class="cls-17" points="34.59 34.22 21.35 34.36 21.29 27.2 34.52 27.06 34.59 34.22"/><polygon class="cls-18" points="34.68 44.37 21.45 44.51 21.38 37.34 34.62 37.21 34.68 44.37"/><polygon class="cls-19" points="34.78 54.52 21.54 54.65 21.47 47.49 34.71 47.35 34.78 54.52"/><path class="cls-9" d="M33.72,58.06a1.68,1.68,0,1,1-1.28-2A1.69,1.69,0,0,1,33.72,58.06Z"/><path class="cls-5" d="M33.72,58.06a2.66,2.66,0,0,0,0-.41,1.68,1.68,0,0,0-.4-1,1.62,1.62,0,0,0-1.46-.55,1.64,1.64,0,0,0-.86.39,1.61,1.61,0,0,0-.51.86,1.65,1.65,0,0,0,.1,1,1.57,1.57,0,0,0,.61.71,1.64,1.64,0,0,0,1.55.12,1.67,1.67,0,0,0,.8-.74c.12-.24.15-.39.16-.38s0,0,0,.1A1.71,1.71,0,0,1,32,59.43a1.67,1.67,0,0,1-.87-.27,1.78,1.78,0,0,1-.67-.76,1.73,1.73,0,0,1-.11-1.08,1.81,1.81,0,0,1,.56-.94,1.78,1.78,0,0,1,.92-.41,1.72,1.72,0,0,1,.91.13,1.66,1.66,0,0,1,.64.48,1.64,1.64,0,0,1,.38,1.06,1.14,1.14,0,0,1,0,.31C33.74,58,33.73,58.06,33.72,58.06Z"/><path class="cls-20" d="M24.23,24.92l-.16.13a.05.05,0,0,1-.05,0s-.05,0-.06,0a.31.31,0,0,1,0-.28.48.48,0,0,1,.17-.23.17.17,0,0,1,.11-.06c.05,0,.08,0,.11.07a1.42,1.42,0,0,1,.12.13s0,.05,0,.08a.07.07,0,0,1,0,.05c-.06.06-.16.08-.22.13"/><path class="cls-21" d="M23.11,22.37c.22,0,1.19-.11,1.19-.11l1.62.39a.56.56,0,0,1-.46.29c-.43,0-1-.05-1-.05l-.19.11s.73.5.74.6a.41.41,0,0,1,0,.2.78.78,0,0,1,0,.54l0,.69-.7.48a.53.53,0,0,1-.06-.37c.05-.2.32-.31.32-.31l-.16-.29-.25-.09a13.43,13.43,0,0,1-2,.43l-1.28.63-.18-1.87S22.9,22.38,23.11,22.37Z"/><path class="cls-20" d="M24.08,23.83s.2.1.43.24.4.29.41.27a1.21,1.21,0,0,0-.38-.33A1,1,0,0,0,24.08,23.83Z"/><path class="cls-20" d="M24,23.29s.21.11.46.26a4.81,4.81,0,0,0,.46.27,1.54,1.54,0,0,0-.43-.33A1.3,1.3,0,0,0,24,23.29Z"/><path class="cls-20" d="M23.46,22.5a2.87,2.87,0,0,0,.38.29,1.67,1.67,0,0,0,.42.24,3.28,3.28,0,0,0-.38-.3A1.32,1.32,0,0,0,23.46,22.5Z"/><path class="cls-21" d="M28.65,14a2,2,0,0,0-.32-.5.43.43,0,0,0-.41-.08l-.1.06s-.4-.28-.64-.17c0,0-.37-.28-.62-.09,0,0-.27-.28-.45-.12a.76.76,0,0,0-.18.63c0,.17.05.74.14.77s.25.07.31-.06a1.4,1.4,0,0,0,.09-.19s0,.5.12.55.34.08.39-.13c0,0,.07.18.19.16s.26-.08.28-.22,0-.26,0-.26,0,.2.13.18.2,0,.29-.15.28-.45.28-.45Z"/><path class="cls-20" d="M27.49,14.35s0-.06,0-.15a.74.74,0,0,1,.05-.34.7.7,0,0,1,.2-.28l.11-.1a.55.55,0,0,0-.13.07.88.88,0,0,0-.22.29.81.81,0,0,0,0,.36A.39.39,0,0,0,27.49,14.35Z"/><path class="cls-20" d="M27.16,13.32s-.05.06-.1.18a1.6,1.6,0,0,0-.12.47,1.66,1.66,0,0,0,0,.5.82.82,0,0,0,0,.2A3.34,3.34,0,0,1,27,14,3.07,3.07,0,0,1,27.16,13.32Z"/><path class="cls-20" d="M26.55,13.23a1.82,1.82,0,0,0-.11.51,1.66,1.66,0,0,0,0,.53s0-.24,0-.52S26.57,13.23,26.55,13.23Z"/><path class="cls-9" d="M19.36,20.61v0Z"/><path class="cls-9" d="M19.35,20.51h0Z"/><path class="cls-9" d="M19.36,20.64v0Z"/><path class="cls-9" d="M19.38,27a20.3,20.3,0,0,0,2.19-1.28l-.7-2.34-1,.16c-.09-1-.4-2-.52-2.88l-1.19-4-2.62-.23-3.17-.24-2,.3a4.1,4.1,0,0,0-2.94,1.75,5.61,5.61,0,0,0-.36,1.59c-.16,1.69.46,6.85,2.23,8.68l-.9,2.66c-1.27,4,11.85,2.3,11.73.76-.15-.73-.86-3.84-.86-3.84Z"/><path class="cls-9" d="M19.35,20.5Z"/><path class="cls-5" d="M12.65,24.67a5.43,5.43,0,0,0-.66.67,3.71,3.71,0,0,0-.4.85,1.58,1.58,0,0,1,.33-.9A1.72,1.72,0,0,1,12.65,24.67Z"/><g class="cls-8"><path d="M9.34,28.53a2.11,2.11,0,0,0,1.41,1.07,4.84,4.84,0,0,0,1.82,0C15,29.37,19.09,27,19,27,16,28.74,10.55,29.41,9.34,28.53Z"/></g><path class="cls-5" d="M21.57,25.7l0,0-.09.05-.33.21c-.29.17-.72.42-1.26.7a24.34,24.34,0,0,1-4.42,1.79,13.17,13.17,0,0,1-1.34.26c-.44.06-.86.1-1.26.13s-.78.06-1.14.07a6.51,6.51,0,0,1-1,0,3.06,3.06,0,0,1-1.39-.41,1.4,1.4,0,0,1-.3-.25l-.07-.08,0,0a2.59,2.59,0,0,0,.41.33,3.32,3.32,0,0,0,1.37.38c.3,0,.64,0,1,0l1.14-.08c.41,0,.83-.08,1.26-.14a11.13,11.13,0,0,0,1.33-.26,25.14,25.14,0,0,0,4.41-1.76c.54-.28,1-.51,1.27-.68l.35-.19.09-.05Z"/><path class="cls-5" d="M20.87,23.36h0l-.1,0-.4.07-1.47.25L14,24.5l-1.34.21h0v0c-.62-1.47-1.15-2.77-1.54-3.7l-.45-1.09-.11-.29a.82.82,0,0,1,0-.11l0,.1.13.29L11.12,21l1.57,3.69,0,0L14,24.42l4.87-.76,1.48-.23.4-.05.1,0Z"/><path class="cls-5" d="M18.6,18.51a3.46,3.46,0,0,0,.18.48c.11.3.26.71.4,1.18s.25.89.32,1.2a5,5,0,0,0,.12.5,1.76,1.76,0,0,0-.05-.51,10.11,10.11,0,0,0-.3-1.22A9.73,9.73,0,0,0,18.84,19,2.18,2.18,0,0,0,18.6,18.51Z"/><path class="cls-5" d="M18.26,15.64a.53.53,0,0,1-.19.28.44.44,0,0,1-.64-.59,1.34,1.34,0,0,1,.23-.25,2.06,2.06,0,0,0,.58-.5,1.08,1.08,0,0,0,.09-.85,1.1,1.1,0,0,0-.21-.4,2,2,0,0,0-.34-.31,2.62,2.62,0,0,1-.35-.3.59.59,0,0,1-.16-.37.68.68,0,0,1,.11-.39,1.3,1.3,0,0,1,.26-.31,3.39,3.39,0,0,0,.52-.56,1.14,1.14,0,0,0,.16-.65,1.43,1.43,0,0,0-.14-.54A2.12,2.12,0,0,1,18,9.52a.81.81,0,0,1,0-.34v0a.35.35,0,0,0,0,.06.85.85,0,0,0,0,.27,3.86,3.86,0,0,0,.14.39,1.37,1.37,0,0,1,.13.52,1.11,1.11,0,0,1-.16.62,4.34,4.34,0,0,1-.52.54,1.39,1.39,0,0,0-.27.32.9.9,0,0,0-.13.43.65.65,0,0,0,.19.42,2.59,2.59,0,0,0,.35.31,1.57,1.57,0,0,1,.33.3,1.07,1.07,0,0,1,.2.38,1,1,0,0,1-.08.78,1.87,1.87,0,0,1-.56.49,1.22,1.22,0,0,0-.24.27.46.46,0,0,0-.06.32.51.51,0,0,0,.36.41.5.5,0,0,0,.41-.09.44.44,0,0,0,.15-.21A.32.32,0,0,0,18.26,15.64Z"/><path class="cls-7" d="M10.59,7.94a.42.42,0,0,1,.1.34,1.6,1.6,0,0,1,0,.42,1.64,1.64,0,0,1-.11.41.54.54,0,0,1-.23.28A.3.3,0,0,1,10,9.23a.83.83,0,0,1-.13-.3,1,1,0,0,1,0-.39A1,1,0,0,1,10,8.18.84.84,0,0,1,10.21,8,.3.3,0,0,1,10.59,7.94Z"/><path class="cls-5" d="M9.35,12.1a1.68,1.68,0,0,1,.19-1.27,7.54,7.54,0,0,0,.59-1.17c.15-.45.14-.95.32-1.39a1.74,1.74,0,0,1,1.05-1A3.1,3.1,0,0,0,12.34,7a3.07,3.07,0,0,0,.57-.71A2.71,2.71,0,0,1,14,5.38a2.63,2.63,0,0,1,1.81-.09,1.56,1.56,0,0,1,.75.73,3.29,3.29,0,0,1,.29,1c.54.1.85.65,1.09,1.15a2.23,2.23,0,0,1,.28.87,6.39,6.39,0,0,1-.45,1.82c-.86,1.56-2.14,1.88-3.69,2.74-.6.33-1,1.1-1.66,1.07s-1.57-.06-2-.71a4.41,4.41,0,0,1-1-2.06"/><path class="cls-21" d="M17.57,9.64c0-1.11-.75-2.49-1.86-2.4L12.24,8a.65.65,0,0,0-.6.64L11.81,17h0a2.45,2.45,0,0,0,3,1.72,1.36,1.36,0,0,0,.78-1.13h0v-.17a5.43,5.43,0,0,0,0-1.15h0c0-.67,0-.95,0-.94a2.31,2.31,0,0,0,1.76-2A19.41,19.41,0,0,0,17.57,9.64Z"/><path class="cls-5" d="M14.75,11a.24.24,0,0,1-.24.24.22.22,0,0,1-.23-.22.23.23,0,0,1,.23-.24A.23.23,0,0,1,14.75,11Z"/><path class="cls-5" d="M17.19,11a.24.24,0,1,1-.24-.22A.23.23,0,0,1,17.19,11Z"/><path class="cls-5" d="M17.32,10.45s-.23-.12-.51-.11-.48.19-.51.15,0-.09.1-.17a.61.61,0,0,1,.81,0C17.3,10.36,17.34,10.43,17.32,10.45Z"/><path class="cls-5" d="M14.74,10.49s-.23-.14-.53-.16-.52.13-.55.09,0-.09.12-.16a.73.73,0,0,1,.45-.12.78.78,0,0,1,.42.18C14.73,10.4,14.76,10.47,14.74,10.49Z"/><path class="cls-5" d="M15.59,12.32a1.77,1.77,0,0,1,.42-.06c.07,0,.13,0,.14-.06s0-.12,0-.2-.12-.32-.18-.5a8.22,8.22,0,0,1-.4-1.31A9.45,9.45,0,0,1,16,11.46c.06.18.11.35.17.51a.44.44,0,0,1,0,.26.19.19,0,0,1-.11.09H16A1.41,1.41,0,0,1,15.59,12.32Z"/><path class="cls-20" d="M15.7,15.35a4.74,4.74,0,0,1-2.47-.72,2.4,2.4,0,0,0,2.45,1.2Z"/><path class="cls-20" d="M15.47,12.94a.46.46,0,0,0-.41-.19.46.46,0,0,0-.29.15.27.27,0,0,0,0,.31.31.31,0,0,0,.33.09,1,1,0,0,0,.34-.19.46.46,0,0,0,.07-.07.09.09,0,0,0,0-.1"/><path class="cls-5" d="M14.84,12.48s0,.28.27.48.53.18.53.22-.07.05-.2.05a.67.67,0,0,1-.44-.17.61.61,0,0,1-.21-.4C14.79,12.55,14.82,12.48,14.84,12.48Z"/><path class="cls-5" d="M14.81,9.62c0,.07-.28,0-.58.06s-.55.1-.59,0,0-.09.13-.16a1.09,1.09,0,0,1,.43-.14,1,1,0,0,1,.46.07C14.76,9.53,14.82,9.59,14.81,9.62Z"/><path class="cls-5" d="M17.15,9.67c0,.06-.25,0-.5,0s-.44,0-.49,0,0-.08.11-.14a.73.73,0,0,1,.4-.08.75.75,0,0,1,.39.12C17.15,9.59,17.17,9.65,17.15,9.67Z"/><path class="cls-5" d="M11.47,8.22a1.43,1.43,0,0,1,.81-.43,16.9,16.9,0,0,1,4-.6A.69.69,0,0,1,16,8a3.14,3.14,0,0,1-.91.3,1.15,1.15,0,0,0-.79.51c-.17.3-.09.68-.24,1-.25.53-1,.63-1.29,1.16s-.07.31-.05.75-.29.58-.69.89a2.24,2.24,0,0,1-1.32.49c.07-1.58.48-2.35.55-3.94A1.6,1.6,0,0,1,11.47,8.22Z"/><path class="cls-9" d="M13.69,5.69l0,0,.1-.06a2.05,2.05,0,0,1,.4-.16,1.89,1.89,0,0,1,.64,0,1.78,1.78,0,0,1,.73.28,1.7,1.7,0,0,1,.52.59,1.61,1.61,0,0,1,.2.61,2,2,0,0,1,0,.43.89.89,0,0,0,0,.11.16.16,0,0,0,0,0,2.94,2.94,0,0,0,0-.58,2,2,0,0,0-.2-.59,1.72,1.72,0,0,0-.51-.57,1.76,1.76,0,0,0-.71-.28,1.85,1.85,0,0,0-.63,0A2.05,2.05,0,0,0,13.69,5.69Z"/><path class="cls-9" d="M11.91,7.19h.2a1,1,0,0,0,.23-.09,2.29,2.29,0,0,0,.27-.17l.3-.24a2.75,2.75,0,0,1,.38-.24,2.08,2.08,0,0,1,1-.2,2,2,0,0,1,1.58.89,1.9,1.9,0,0,1,.25.5,1.26,1.26,0,0,1,.05.15.22.22,0,0,0,0,.06s0-.08-.07-.2a2.67,2.67,0,0,0-.26-.49,2.06,2.06,0,0,0-.6-.57,2,2,0,0,0-1-.3,2.09,2.09,0,0,0-1,.19,2,2,0,0,0-.38.24L12.62,7a2.92,2.92,0,0,1-.27.17.9.9,0,0,1-.24.07h-.2Z"/><path class="cls-9" d="M10.35,9.17a3.55,3.55,0,0,0,.09.45,2.1,2.1,0,0,0,.6.93A2.12,2.12,0,0,0,12,11a2.2,2.2,0,0,0,.46,0h-.13a1.46,1.46,0,0,1-.34,0,2.09,2.09,0,0,1-1-.49,2,2,0,0,1-.59-.95,2.2,2.2,0,0,1-.07-.33V9.17Z"/><path class="cls-9" d="M12.1,11.92l-.12,0a1.74,1.74,0,0,1-.34-.09,2.49,2.49,0,0,1-1-.55,1.6,1.6,0,0,1-.51-1,.92.92,0,0,1,0-.34.64.64,0,0,1,0-.09v0a1.86,1.86,0,0,0,0,.47,1.72,1.72,0,0,0,.52,1,2.82,2.82,0,0,0,1,.56l.33.1Z"/><path class="cls-5" d="M17.92,6.9a1.93,1.93,0,0,0-.61,0,2.31,2.31,0,0,0-.57.21A.84.84,0,0,1,16.89,7a1.5,1.5,0,0,1,.41-.14,1.36,1.36,0,0,1,.44,0A.48.48,0,0,1,17.92,6.9Z"/><path class="cls-5" d="M17.18,5.94a1.49,1.49,0,0,1,0,.19,1.43,1.43,0,0,1-.08.46A1.72,1.72,0,0,1,16.9,7a1.22,1.22,0,0,1-.12.15,2.85,2.85,0,0,0,.29-.59A3.79,3.79,0,0,0,17.18,5.94Z"/><path class="cls-21" d="M12.12,11.19S11,10.79,11,12a.87.87,0,0,0,1.17.9Z"/><path class="cls-20" d="M11.77,12.42s0,0-.06,0a.25.25,0,0,1-.15,0,.5.5,0,0,1-.23-.45.73.73,0,0,1,.06-.3c0-.08.09-.14.15-.15s.11,0,.12.06,0,.05,0,.05,0,0,0-.06a.1.1,0,0,0,0-.08.2.2,0,0,0-.11,0,.31.31,0,0,0-.22.18.84.84,0,0,0-.07.33.51.51,0,0,0,.29.5.2.2,0,0,0,.19,0A.11.11,0,0,0,11.77,12.42Z"/><path class="cls-6" d="M11.14,12.61l-.05,0-.16.09a1.11,1.11,0,0,0-.41.51.91.91,0,0,0-.08.44,1,1,0,0,0,.13.5,1.09,1.09,0,0,0,.39.41,1.06,1.06,0,0,0,.58.16.81.81,0,0,0,.31-.05.83.83,0,0,0,.27-.12,1.11,1.11,0,0,0,0-1.86c-.13-.08-.22-.1-.21-.11a1,1,0,0,1,.22.1,1.08,1.08,0,0,1,.44.49,1.11,1.11,0,0,1,.1.46,1.23,1.23,0,0,1-.12.52,1.17,1.17,0,0,1-.4.43.9.9,0,0,1-.28.13.86.86,0,0,1-.32,0,1.16,1.16,0,0,1-.61-.16,1.35,1.35,0,0,1-.4-.43,1.11,1.11,0,0,1-.13-.52,1.06,1.06,0,0,1,.09-.45,1.08,1.08,0,0,1,.43-.51l.16-.08Z"/><path class="cls-9" d="M10.25,9.05v0a1.16,1.16,0,0,1,0,.17,2.39,2.39,0,0,1-.18.57,7.42,7.42,0,0,1-.4.8c-.07.15-.15.31-.22.48a3.05,3.05,0,0,0-.14.54,1.92,1.92,0,0,0,.16,1.05,2,2,0,0,0,.24.41l.25.33.39.46.11.12,0,0,0,0-.11-.12c-.1-.11-.24-.26-.4-.46l-.26-.32a1.84,1.84,0,0,1-.24-.41,1.93,1.93,0,0,1-.17-1.08,2.48,2.48,0,0,1,.15-.55,3.51,3.51,0,0,1,.22-.48c.16-.29.31-.56.41-.79a2.39,2.39,0,0,0,.18-.57.5.5,0,0,0,0-.16A.18.18,0,0,0,10.25,9.05Z"/><path class="cls-22" d="M85.84,31.91l-.18-.05a3.16,3.16,0,0,0-1.65,2,21.09,21.09,0,0,0-.52,2.63,4.69,4.69,0,0,1-1.07,2.41,9.72,9.72,0,0,0,1.28.93,1.1,1.1,0,0,0,.48.19,1,1,0,0,0,.7-.39c.93-1,1-2.77,1.14-4.13A9,9,0,0,0,85.84,31.91Z"/><g class="cls-14"><path d="M85.18,32.42s-2,7.06-1.89,7.15l.53.33,1.84-7.38Z"/></g><path class="cls-22" d="M86.5,30.69a.61.61,0,0,0-.54-.54.87.87,0,0,0-.73.33,1.48,1.48,0,0,0-.32.76,1.06,1.06,0,0,0,.3,1.06.79.79,0,0,0,.85,0,1.13,1.13,0,0,0,.47-.73,2.22,2.22,0,0,0,0-.89"/><path class="cls-5" d="M85.83,31.86a.62.62,0,0,1-.1-.24,1.5,1.5,0,0,1,0-.64,1.63,1.63,0,0,1,.25-.59c.1-.13.18-.2.19-.19s-.06.08-.14.22a2.06,2.06,0,0,0-.22.57,1.58,1.58,0,0,0,0,.61C85.81,31.76,85.84,31.86,85.83,31.86Z"/><path class="cls-5" d="M85.54,32.51s0,0-.12,0a.41.41,0,0,1-.27-.1.38.38,0,0,1-.14-.24c0-.08,0-.12,0-.12s0,.18.18.3A.71.71,0,0,0,85.54,32.51Z"/><polygon class="cls-23" points="96.13 22.79 97.64 26.05 94.27 24.12 96.13 22.79"/><polygon class="cls-2" points="68.8 12.4 73.36 18.4 75.33 17.88 76.32 18.44 78.03 15.29 77 14.75 76.24 12.82 68.8 12.4"/><path class="cls-5" d="M68.8,12.4l7.44.4h0L77,14.74h0l1,.54h0v0l-.87,1.61-.84,1.54v0h0l-1-.56h0l-2,.52h0c-2.66-3.52-4.41-5.85-4.54-6l4.58,6h0l2-.52h0l1,.57h0l.84-1.55.88-1.6v0l-1-.54h0l-.77-1.93h0Z"/><path class="cls-5" d="M74.27,14.14a1.07,1.07,0,0,1,.44,1.47,1.1,1.1,0,0,1-1.48.46,1.08,1.08,0,0,1-.45-1.47A1.12,1.12,0,0,1,74.27,14.14Z"/><path class="cls-5" d="M68.8,12.4s1.12.53,2.5,1.22,2.47,1.26,2.47,1.27-1.13-.53-2.5-1.22S68.8,12.41,68.8,12.4Z"/><path class="cls-22" d="M104.43,30.77h0a1.77,1.77,0,0,1-2.36.74L77.27,18.84l1.67-3.07,24.78,12.65A1.71,1.71,0,0,1,104.43,30.77Z"/><polygon class="cls-22" points="79.24 15.6 77.28 19.22 76.02 18.56 77.99 14.94 79.24 15.6"/><g class="cls-8"><polygon points="77.41 18.97 79.08 15.9 79.55 16.14 77.58 19.06 77.41 18.97"/></g><g class="cls-24"><polygon class="cls-6" points="76.56 17.57 78.38 17.12 78.67 16.66 76.8 17.12 76.56 17.57"/></g><g class="cls-14"><path d="M94.4,23.78a3.68,3.68,0,0,1,.09,3.9Z"/></g><path class="cls-5" d="M89.81,62.54s.16,0,.35,0,.33.06.35,0a.43.43,0,0,0-.35-.15C90,62.41,89.8,62.51,89.81,62.54Z"/><path class="cls-5" d="M89.4,60s.14-.09.3-.18.32-.11.32-.14-.18-.06-.37,0S89.38,60,89.4,60Z"/><path class="cls-25" d="M89.68,59.92l.2,3.44s-3.43,1.35-3.46,2l6.69-.14L93,59.84Z"/><path class="cls-1" d="M91.94,63a.26.26,0,0,1-.11.5.28.28,0,0,1-.2-.33A.26.26,0,0,1,92,63"/><path class="cls-5" d="M93.12,65.38v-.71L86.68,65s-.3.13-.26.34Z"/><path class="cls-5" d="M89.77,63.33s.16,0,.33.14.25.24.28.23,0-.21-.22-.33S89.76,63.3,89.77,63.33Z"/><path class="cls-5" d="M89.07,63.63s.14.09.25.22.15.28.19.28,0-.19-.1-.35S89.07,63.6,89.07,63.63Z"/><path class="cls-5" d="M88.69,64.48s.08-.16,0-.34-.24-.24-.26-.21.09.12.16.26S88.66,64.48,88.69,64.48Z"/><path class="cls-5" d="M94.27,29.46a14.59,14.59,0,0,1,1.73,5A9.58,9.58,0,0,1,94.85,39l-2.32,8.74.68,14.94-3.71.19L87.36,45.74l.65-16Z"/><path class="cls-25" d="M88,57.8l1.88,2.89s-2.31,2.88-2,3.45l5.73-3.44-2.74-4.62Z"/><path class="cls-1" d="M91.49,59.38a.26.26,0,0,1,.32.17.25.25,0,0,1-.16.32.29.29,0,0,1-.34-.18.27.27,0,0,1,.21-.32"/><path class="cls-5" d="M93.59,60.7l-.29-.46-5.39,3.47s-.19.27,0,.43Z"/><path class="cls-5" d="M89.76,60.72s.16,0,.36,0,.33.08.35.06-.12-.17-.35-.17S89.74,60.7,89.76,60.72Z"/><path class="cls-5" d="M89.31,61.33s.16,0,.32.07.27.17.3.15-.05-.19-.26-.26S89.29,61.3,89.31,61.33Z"/><path class="cls-5" d="M89.4,62.25s0-.17-.18-.28-.33-.09-.33-.06.13.06.26.16S89.37,62.27,89.4,62.25Z"/><path class="cls-5" d="M86.2,30.51s-4.52,16.25-3.55,18.07S88.6,60.52,88.6,60.52l4.19-2.3L88,47.05l3.63-8a9.14,9.14,0,0,0,2.42-3.63c.67-2.13-.49-5.63-.49-5.63H86.3Z"/><path class="cls-9" d="M94.27,33.17l0,.12c0,.09,0,.21.06.37a10.12,10.12,0,0,1,.08,1.43,4.74,4.74,0,0,1-.11,1,3.08,3.08,0,0,1-.17.57,3.74,3.74,0,0,1-.29.56,4.65,4.65,0,0,1-2.22,1.85l0,0c-1,2.28-2.29,5-3.63,8v0l.21.49,4.56,10.69v0l0,0-3.07,1.67-.83.45-.22.12-.08,0,.08,0,.21-.12.83-.47,3-1.7v0L88.17,47.55l-.2-.48v0l3.64-8h0a4.66,4.66,0,0,0,2.19-1.82,3.56,3.56,0,0,0,.29-.54,3.23,3.23,0,0,0,.17-.56,5.42,5.42,0,0,0,.12-1,8.89,8.89,0,0,0-.07-1.42,2.35,2.35,0,0,0,0-.38A1.09,1.09,0,0,1,94.27,33.17Z"/><path class="cls-9" d="M88,33.44h.08l.26,0,1-.07,3.48-.21h0v3.46h0L92.3,37l-1.78,1.52,0,0h0l-2.32-1.16h0v0c0-1.19-.08-2.18-.11-2.88l0-.79v-.27a.42.42,0,0,0,0,.07v.21l0,.81c0,.69.08,1.67.14,2.85l0,0,2.32,1.15h0L92.25,37l.52-.44,0,0c0-1.22,0-2.37,0-3.39l0,0-3.45.17-1,0H88Z"/><path class="cls-9" d="M92.78,33.8s-.06,0-.18,0l-.51.07c-.43.05-1,.11-1.69.15s-1.26.06-1.7.06H88l.19,0,.51,0L90.39,34l1.69-.12.52,0Z"/><path class="cls-9" d="M86.31,22.24a6,6,0,0,0-.47,2.91c.06.64.44,2.26.44,2.26l0,3.1s8.23-.61,8.23-.63.09-3.91,0-6.65a17.41,17.41,0,0,0-1.28-5.55,4.09,4.09,0,0,0-1.91-.57c-.83.07-4.27.46-4.27.46Z"/><path class="cls-9" d="M86.87,17.67a4.37,4.37,0,0,0-2.65,2.2c-1.31,2.07-1.92,2.93-1.92,2.93l3.76,2.45s2.07-3.12,2.33-3.79S88.93,17.61,86.87,17.67Z"/><path class="cls-9" d="M92.38,17.46a4.12,4.12,0,0,1,1.68,1.23c.32.49,2.29,3.94,2.29,3.94l-2.26,1.58-1.71-4.8Z"/><g class="cls-14"><path d="M85.77,25.69l.43.2s2-2.73,2.14-4.26l-2.26,3.49-.38-.2Z"/></g><path class="cls-5" d="M94.16,19.87a.73.73,0,0,1,0,.08l0,.22c0,.2.07.48.1.82.08.7.16,1.66.22,2.72s.07,2,.08,2.72c0,.35,0,.63,0,.83v.22a.2.2,0,0,1,0,.08.6.6,0,0,0,0-.08v-.22l0-.83c0-.69,0-1.65-.1-2.72s-.13-2-.19-2.71l-.08-.82,0-.23Z"/><path class="cls-5" d="M93.56,13.64a21.54,21.54,0,0,0-.81-2.55,5.56,5.56,0,0,0-1.37-2.75,4,4,0,0,0-1.89-.76,4.63,4.63,0,0,0-1.85-.1c-.3.07-.59.18-.9.26a5.28,5.28,0,0,0-1,.26,2.26,2.26,0,0,0-1.13,1.82c-.1.74,0,1.49-.12,2.23a9.35,9.35,0,0,1-.23,1,4.38,4.38,0,0,0-.61,2.07A11.55,11.55,0,0,0,84,16.68a1.43,1.43,0,0,1-.34,1.45.75.75,0,0,0,1.26-.5.58.58,0,0,0,.21.17,1.17,1.17,0,0,0,.67.05,4.74,4.74,0,0,0,1.91-.45l3.21-.28a2,2,0,0,0,2.3-.88A3.6,3.6,0,0,0,93.56,13.64Z"/><path class="cls-5" d="M87.05,8.17c-.31.06-.64,0-.94.1a1.54,1.54,0,0,0-.94.94,4.73,4.73,0,0,0-.24,1.35l-.08,1.23a4.18,4.18,0,0,1-.11.79A8.89,8.89,0,0,0,84.42,14a3.94,3.94,0,0,0,.92,2.78c.28.32,1.6.33,2,.41.19-.16.65-.16.83-.32s-1.34-1.08-1.32-1.12a.35.35,0,0,0,0-.2,9.82,9.82,0,0,1,.41-7.3"/><path class="cls-23" d="M90.77,17.57,91.25,10h0a.63.63,0,0,0-.57-.64l-3.35-.86c-1.07-.11-1.79,1.21-1.86,2.29a19.88,19.88,0,0,0,0,3.55,2.25,2.25,0,0,0,1.66,2s.12,1.21.12,1.21.87-.16,1.51-.23A3.44,3.44,0,0,1,90.77,17.57Z"/><path class="cls-5" d="M85.89,12.15a.22.22,0,0,0,.22.23.22.22,0,0,0,.24-.21.24.24,0,0,0-.22-.23A.22.22,0,0,0,85.89,12.15Z"/><path class="cls-5" d="M85.89,11.62s.2-.1.45-.1.43.13.46.1,0-.07-.1-.13a.67.67,0,0,0-.36-.11.64.64,0,0,0-.36.11C85.9,11.55,85.88,11.61,85.89,11.62Z"/><path class="cls-5" d="M88.16,12.18a.24.24,0,0,0,.23.23.21.21,0,0,0,.23-.21.23.23,0,0,0-.46,0Z"/><path class="cls-5" d="M88.33,11.62s.2-.1.45-.1.43.13.45.1,0-.07-.09-.13a.71.71,0,0,0-.37-.11.63.63,0,0,0-.35.11C88.34,11.55,88.31,11.61,88.33,11.62Z"/><path class="cls-5" d="M87.42,13.46a1.5,1.5,0,0,0-.4-.08c-.06,0-.12,0-.13-.06s0-.11,0-.19l.19-.48a7.75,7.75,0,0,0,.42-1.26A8.29,8.29,0,0,0,87,12.61c-.07.17-.13.33-.18.49a.34.34,0,0,0,0,.25.19.19,0,0,0,.11.09l.11,0Z"/><path class="cls-26" d="M87.14,16.39a4.84,4.84,0,0,0,2.51-.64A2.42,2.42,0,0,1,87.2,17Z"/><path class="cls-26" d="M88.26,14a.47.47,0,0,0-.33-.17.51.51,0,0,0-.46.19h0a.09.09,0,0,0,0,.1.34.34,0,0,0,.08.09,1.07,1.07,0,0,0,.37.22.34.34,0,0,0,.37-.1A.3.3,0,0,0,88.26,14Z"/><path class="cls-5" d="M88.15,13.63s0,.27-.27.46-.52.16-.52.2.06.05.19.05a.63.63,0,0,0,.43-.15.59.59,0,0,0,.21-.38C88.2,13.7,88.17,13.63,88.15,13.63Z"/><path class="cls-5" d="M88.18,10.73c0,.07.27,0,.56.08s.52.11.56,0,0-.09-.12-.16a1,1,0,0,0-.41-.14.83.83,0,0,0-.44,0C88.22,10.65,88.16,10.7,88.18,10.73Z"/><path class="cls-5" d="M85.89,10.83c0,.06.21,0,.42,0s.38,0,.42,0,0-.09-.09-.14a.55.55,0,0,0-.34-.09.57.57,0,0,0-.34.11C85.89,10.75,85.87,10.8,85.89,10.83Z"/><path class="cls-9" d="M84.37,18a.7.7,0,0,1,0-.11c0-.07,0-.17-.07-.31a5.45,5.45,0,0,1-.12-1.17,6,6,0,0,1,.25-1.73,20.45,20.45,0,0,0,.55-2.06c.11-.74.08-1.47.17-2.13a3.28,3.28,0,0,1,.61-1.63,2,2,0,0,1,1-.66,1,1,0,0,1,.43-.05,2.36,2.36,0,0,0-.42.08,1.93,1.93,0,0,0-.93.67,3.34,3.34,0,0,0-.58,1.6c-.09.65,0,1.38-.17,2.13a18.7,18.7,0,0,1-.55,2.07,6.34,6.34,0,0,0-.27,1.71,5.78,5.78,0,0,0,.09,1.16c0,.14,0,.25.06.32A.45.45,0,0,1,84.37,18Z"/><path class="cls-5" d="M86.83,8.4A.44.44,0,0,1,87,8.15,2.53,2.53,0,0,1,89,7.71a4.47,4.47,0,0,1,1.87.81A3.36,3.36,0,0,1,92,9.82,4.53,4.53,0,0,1,92.33,11a22.22,22.22,0,0,1,.41,3.12,14,14,0,0,1,0,1.59,1.74,1.74,0,0,1-1.13,1.31l-1.19.12a14.91,14.91,0,0,0,.6-3c0-.7,0-1.47-.12-2.17a.32.32,0,0,0,0-.16.38.38,0,0,0-.16-.12L90,11.33a6.75,6.75,0,0,1-.69-.39,6,6,0,0,1-.71-.49l-.93-.76A3.91,3.91,0,0,1,87,9a1,1,0,0,1-.16-.76"/><path class="cls-23" d="M90.82,12.48a.51.51,0,0,1,.76-.44.69.69,0,0,1,.31.72.81.81,0,0,1-1.12.78S90.8,12.93,90.82,12.48Z"/><path class="cls-26" d="M91.11,13.14l0,0a.17.17,0,0,0,.14,0c.12,0,.22-.21.24-.41a.77.77,0,0,0,0-.27.21.21,0,0,0-.14-.15.09.09,0,0,0-.11.05s0,0,0,0a.06.06,0,0,1,0-.06.13.13,0,0,1,0-.07.14.14,0,0,1,.11,0,.27.27,0,0,1,.19.17.63.63,0,0,1,0,.31.46.46,0,0,1-.29.45.18.18,0,0,1-.17,0S91.11,13.15,91.11,13.14Z"/><path class="cls-9" d="M92.61,10.78a3.41,3.41,0,0,0-.75-.46A5.56,5.56,0,0,0,91,10c-.35-.1-.74-.18-1.15-.31a5.6,5.6,0,0,1-1.9-1,6.18,6.18,0,0,1-.48-.43,1.62,1.62,0,0,1-.16-.18s.07.05.18.15a5.55,5.55,0,0,0,.5.41,6.37,6.37,0,0,0,1.89,1c.4.12.79.21,1.14.31a5,5,0,0,1,.91.32,2.39,2.39,0,0,1,.55.35l.13.12S92.62,10.78,92.61,10.78Z"/><path class="cls-5" d="M92.15,9.38a33.65,33.65,0,0,0,1.51,3.53,6.87,6.87,0,0,1,.55,1.45A3.73,3.73,0,0,1,94,15.93a1.39,1.39,0,0,0,.33,1.47,3.47,3.47,0,0,1-2.05.74.59.59,0,0,1-.39-.08.25.25,0,0,1-.06-.37,1.78,1.78,0,0,1-2.25.24,2.62,2.62,0,0,1,.23-1.69c.26-.4.73-.65.9-1.09.1-.26,0-.59,0-.87a1.38,1.38,0,0,1,.31-.69h0a1.36,1.36,0,0,0,1.46-1l0-.08Z"/><path class="cls-9" d="M91.89,17.13l0-.11.17-.31a7.3,7.3,0,0,0,.53-1.18,4.83,4.83,0,0,0,.27-1.87A3.29,3.29,0,0,0,92,11.57a6.25,6.25,0,0,0-2-1.25,17.28,17.28,0,0,1-1.72-.85,4.06,4.06,0,0,1-1-.84,1.67,1.67,0,0,1-.21-.28l-.06-.11s.1.14.3.37a4.16,4.16,0,0,0,1,.8,13.93,13.93,0,0,0,1.72.83,6.16,6.16,0,0,1,2,1.27A3.38,3.38,0,0,1,93,13.66a4.7,4.7,0,0,1-.29,1.89,8,8,0,0,1-.55,1.18L92,17Z"/><path class="cls-5" d="M88.55,21.24s.09-.19.17-.52a2.48,2.48,0,0,0-.73-2.4c-.25-.23-.44-.32-.43-.34l.13.06a2.81,2.81,0,0,1,.34.24,2.48,2.48,0,0,1,.73,1.12,2.34,2.34,0,0,1,0,1.34,3.63,3.63,0,0,1-.14.38C88.58,21.2,88.55,21.25,88.55,21.24Z"/><path class="cls-22" d="M85.67,31.85l3.54.07a.3.3,0,0,1,.29.31c-.07,1.76-.39,10.45.33,10.59s1.65-1.38,2.83-.85,2.58,1.13,3.24.47,1.18-8.38-1.44-12.6l-8.36.48Z"/><path class="cls-5" d="M90,30.89h-.65c-.39,0-.94,0-1.55,0s-1.15.11-1.54.17l-.47.08-.17,0a.7.7,0,0,1,.16-.05l.47-.1a12,12,0,0,1,1.54-.2,14.2,14.2,0,0,1,1.57,0l.47,0C90,30.87,90,30.88,90,30.89Z"/><path class="cls-5" d="M91.81,31.87l-.25,0-.66-.12c-.56-.1-1.34-.21-2.2-.28s-1.65-.08-2.22-.07l-.68,0h-.24a.75.75,0,0,1,.24,0c.16,0,.39,0,.68,0a17.21,17.21,0,0,1,2.22,0,20.19,20.19,0,0,1,2.21.3l.66.15A1.25,1.25,0,0,1,91.81,31.87Z"/><path class="cls-5" d="M93.2,35v.23l0,.61c0,.52,0,1.24,0,2s.09,1.51.14,2l.07.61a.92.92,0,0,1,0,.22,1.32,1.32,0,0,1,0-.22c0-.14-.06-.35-.09-.61-.07-.51-.14-1.23-.17-2s0-1.51,0-2c0-.26,0-.47.06-.62A.68.68,0,0,1,93.2,35Z"/><path class="cls-5" d="M94.34,40.31s-.16-1.56-.32-3.48-.27-3.49-.25-3.49.17,1.55.33,3.48S94.36,40.31,94.34,40.31Z"/><path class="cls-23" d="M82.72,23.06l-.31.41L82.3,21.4l-2.08-.7s-.49,5.19-.42,6,.1.92.33,1.32a1.93,1.93,0,0,0,1.84.72c.58-.15,1.18-.92,1.63-1.38.83-.84,2.1-2.44,2.1-2.44Z"/><path class="cls-26" d="M82.72,23.06a3,3,0,0,1-.23.35c-.15.21-.34.5-.55.83s-.38.64-.5.86a1.74,1.74,0,0,1-.21.36,2.07,2.07,0,0,1,.16-.38c.11-.23.28-.55.48-.88s.42-.62.57-.82A1.89,1.89,0,0,1,82.72,23.06Z"/><path class="cls-23" d="M80.21,21l-.81-.46a1.61,1.61,0,0,1-.71-.92h0l2.56,1.15c.19.1,1.08.46,1,.83Z"/><g class="cls-14"><path d="M88.68,30.72c.88,0,1.75,0,2.63,0,.17,0,.4.08.4.26a.26.26,0,0,1-.18.2.66.66,0,0,1-.28,0L88.92,31a9.8,9.8,0,0,0-1.43-.08,9.17,9.17,0,0,0-1.71.31l0-.19S88.19,30.74,88.68,30.72Z"/></g><path class="cls-17" d="M49.2,54.36l2.66-2.64-4.75-8.13a4.55,4.55,0,0,0-1.82-1.27l-1.67-.64-4.16-.76-3,1.16a1.77,1.77,0,0,0-1.11,1.86l.77,6.5.46,8.46L47.36,57l-1.08-3.13,0-4.88Z"/><path class="cls-5" d="M46.37,53.7s0-1.69,0-3.78,0-3.77-.08-3.77,0,1.69,0,3.78S46.35,53.7,46.37,53.7Z"/><path class="cls-17" d="M46,54.94,39.5,52.33a1.5,1.5,0,0,1-.93-1.26l-.47-6.21s.06-2.65-1.59-2.78l-.94.37c-1.22.65-1.52,2.42-1.35,3.78.23,1.94.33,4.68.59,6.37a3.62,3.62,0,0,0,2.35,2.94l8,1.73Z"/><path class="cls-5" d="M38.19,45.8s0,.05,0,.15l0,.41c0,.36.08.87.13,1.5l.19,2.24.06.65a5,5,0,0,0,.08.66A1.15,1.15,0,0,0,39,52a2.19,2.19,0,0,0,.6.38c1.79.77,3.44,1.41,4.63,1.86l1.42.52.39.14c.09,0,.13,0,.13.06l-.14,0-.39-.13c-.34-.11-.83-.28-1.43-.5-1.2-.43-2.85-1.06-4.64-1.84a2.35,2.35,0,0,1-.63-.38,1.22,1.22,0,0,1-.34-.63,5.46,5.46,0,0,1-.08-.68l-.05-.64c-.07-.84-.13-1.6-.18-2.24s-.08-1.15-.11-1.51l0-.41C38.19,45.85,38.19,45.8,38.19,45.8Z"/><path class="cls-5" d="M34.48,49.18a.31.31,0,0,1,0,.09l0,.24.08.88c0,.37.08.81.15,1.3A11.07,11.07,0,0,0,35,53.27a2.63,2.63,0,0,0,.31.75,4.15,4.15,0,0,0,.49.59,4.09,4.09,0,0,0,1,.78,3.47,3.47,0,0,0,1.14.37s0,0-.09,0l-.24,0a3.54,3.54,0,0,1-.84-.28,4.2,4.2,0,0,1-1.07-.78,5.26,5.26,0,0,1-.5-.61,2.2,2.2,0,0,1-.32-.77,11.46,11.46,0,0,1-.29-1.59c-.06-.49-.1-.93-.13-1.31s0-.67-.05-.88v-.24A.31.31,0,0,1,34.48,49.18Z"/><path class="cls-5" d="M37.25,53.53a.92.92,0,0,1,.12-.34,2.28,2.28,0,0,1,.54-.7,2.54,2.54,0,0,1,.77-.43A1.06,1.06,0,0,1,39,52s-.13,0-.34.12a2.71,2.71,0,0,0-.73.44,2.59,2.59,0,0,0-.55.66C37.31,53.41,37.27,53.54,37.25,53.53Z"/><g class="cls-8"><path d="M44.12,54.2c-.69-.39-1.37-.69-2.1-1a4.82,4.82,0,0,1-1.91-1.39c-.89-1.21-.79-2.95-1.71-4.14l.18,2.4c.06.74,0,1.46.42,2a4.54,4.54,0,0,0,1.72.92c1.11.37,2.29.91,3.4,1.27"/></g><g class="cls-8"><polygon points="46.31 46.61 46.87 50.06 46.34 49.09 46.31 46.61"/></g><path class="cls-5" d="M38.21,45a4.45,4.45,0,0,0-.15-.55,2.8,2.8,0,0,0-2-1.77,5.59,5.59,0,0,0-.56-.09h.15a2.73,2.73,0,0,1,.42,0,2.8,2.8,0,0,1,1.24.63,2.59,2.59,0,0,1,.76,1.17,1.82,1.82,0,0,1,.1.41C38.22,45,38.22,45,38.21,45Z"/><path class="cls-5" d="M45.94,43.27a9.31,9.31,0,0,1,.22,1.2c.11.68.18,1.22.17,1.22a8.31,8.31,0,0,1-.23-1.2A10.27,10.27,0,0,1,45.94,43.27Z"/><path class="cls-17" d="M53.16,62.76s5,1.37,5.18,1.45.25,1.2-.21,1.18c-.22,0-3.83.14-4.29.11A11.32,11.32,0,0,1,52,64.93Z"/><path class="cls-5" d="M55.24,64.66a4,4,0,0,1,.22-.54,3.13,3.13,0,0,1,.35-.46,1.08,1.08,0,0,0-.57,1Z"/><path class="cls-5" d="M54.72,64.42s.07-.23.21-.49.28-.44.27-.46-.21.15-.35.42A.94.94,0,0,0,54.72,64.42Z"/><path class="cls-5" d="M54.23,64.29a5.1,5.1,0,0,1,.12-.53,3.5,3.5,0,0,1,.27-.46.75.75,0,0,0-.35.43A.76.76,0,0,0,54.23,64.29Z"/><path class="cls-5" d="M54.32,63.65a.92.92,0,0,0,0-.37,1.58,1.58,0,0,0,0-.41c0-.07,0-.15-.07-.23a.32.32,0,0,0-.08-.12.12.12,0,0,0-.17,0,.21.21,0,0,0-.07.14s0,.08,0,.13,0,.17,0,.24a1.5,1.5,0,0,0,.16.38c.11.21.21.31.22.3s-.07-.12-.17-.32A1.78,1.78,0,0,1,54,63a.9.9,0,0,1,0-.23c0-.08,0-.17,0-.21a.06.06,0,0,1,.07,0,.19.19,0,0,1,.05.09,2,2,0,0,1,.08.22,1.48,1.48,0,0,1,.06.39C54.33,63.5,54.31,63.65,54.32,63.65Z"/><path class="cls-5" d="M54.31,63.6a.72.72,0,0,0-.32-.06,1.63,1.63,0,0,0-.35.05.86.86,0,0,0-.21.07.22.22,0,0,0-.11.23.25.25,0,0,0,.18.18.54.54,0,0,0,.22,0,.85.85,0,0,0,.33-.16c.16-.13.24-.22.23-.23a2.49,2.49,0,0,0-.27.18.83.83,0,0,1-.3.13.41.41,0,0,1-.19,0,.2.2,0,0,1-.12-.12.14.14,0,0,1,.08-.14,1,1,0,0,1,.18-.07L54,63.6Z"/><path class="cls-5" d="M56,64.71a3.26,3.26,0,0,1,.1-.45,2.12,2.12,0,0,1,.25-.39.6.6,0,0,0-.33.36A.61.61,0,0,0,56,64.71Z"/><path class="cls-5" d="M52.53,64.94s.06,0,.19.09a3.34,3.34,0,0,0,.55.17,7.88,7.88,0,0,0,1.91.18c.74,0,1.42,0,1.9-.06l.58,0,.21,0h-.79l-1.9,0a9,9,0,0,1-1.89-.15A7.43,7.43,0,0,1,52.53,64.94Z"/><path class="cls-5" d="M52.38,65.05s.14-.06.37-.17a1.81,1.81,0,0,1,1-.15,1.53,1.53,0,0,1,.81.48c.17.18.28.3.29.3a1.94,1.94,0,0,0-.25-.34,2.56,2.56,0,0,0-.33-.31,1.17,1.17,0,0,0-.51-.21,1.6,1.6,0,0,0-1,.18A1.68,1.68,0,0,0,52.38,65.05Z"/><path class="cls-17" d="M47.26,61.6l-4.88,3.21c-.25.2,0,1.11.48,1,.21-.07,4.16-1.17,4.59-1.34A11.7,11.7,0,0,0,49,63.32Z"/><path class="cls-5" d="M45.86,64a.81.81,0,0,0-.31-.5.91.91,0,0,0-.53-.27,3.57,3.57,0,0,1,.47.33A3.45,3.45,0,0,1,45.86,64Z"/><path class="cls-5" d="M46.29,63.66A.88.88,0,0,0,46,63.2a.86.86,0,0,0-.46-.3s.2.14.4.35S46.27,63.67,46.29,63.66Z"/><path class="cls-5" d="M46.71,63.39a.77.77,0,0,0-.2-.52.79.79,0,0,0-.47-.31,2.82,2.82,0,0,1,.4.36A2.53,2.53,0,0,1,46.71,63.39Z"/><path class="cls-5" d="M46.43,62.8s0-.13-.1-.35a2.13,2.13,0,0,1-.06-.39,1.93,1.93,0,0,1,0-.24.36.36,0,0,1,0-.1.06.06,0,0,1,.07,0c.05,0,.08.11.1.19a.87.87,0,0,1,.05.22,2.4,2.4,0,0,1,0,.39c0,.23-.08.36-.07.37a1,1,0,0,0,.13-.36,1.67,1.67,0,0,0,0-.41,1,1,0,0,0-.05-.24.61.61,0,0,0,0-.12.22.22,0,0,0-.1-.12.14.14,0,0,0-.17,0,.43.43,0,0,0,0,.14v.24a1.41,1.41,0,0,0,.08.4A.86.86,0,0,0,46.43,62.8Z"/><path class="cls-5" d="M46.42,62.75s.12,0,.31-.09l.34,0a.62.62,0,0,1,.19,0,.12.12,0,0,1,.11.11.16.16,0,0,1-.08.15.34.34,0,0,1-.17,0,.7.7,0,0,1-.33,0c-.19,0-.3-.1-.31-.09a.84.84,0,0,0,.29.15,1,1,0,0,0,.36.05.44.44,0,0,0,.21-.07.26.26,0,0,0,.12-.22.21.21,0,0,0-.18-.18.55.55,0,0,0-.22,0,1.7,1.7,0,0,0-.35.06A.84.84,0,0,0,46.42,62.75Z"/><path class="cls-5" d="M43.46,65.59s.08,0,.11-.18a.72.72,0,0,0-.08-.52l-.16-.23a.88.88,0,0,0-.16-.17.48.48,0,0,0-.15-.07s-.06,0-.06,0a.35.35,0,0,1,.17.09l.14.17c0,.07.1.15.14.23a.72.72,0,0,1,.11.46A2,2,0,0,1,43.46,65.59Z"/><path class="cls-5" d="M45.15,64.32a.58.58,0,0,0-.16-.45.61.61,0,0,0-.42-.24,2.29,2.29,0,0,1,.35.3A2.06,2.06,0,0,1,45.15,64.32Z"/><path class="cls-27" d="M48.53,63.49a2,2,0,0,0-.2.14c-.14.09-.33.22-.59.36a9.44,9.44,0,0,1-.92.41c-.36.13-.76.26-1.18.38l-2.17.63-.65.2a.91.91,0,0,0-.24.09l.24,0,.67-.18,2.17-.61c.43-.12.83-.25,1.19-.39a7.35,7.35,0,0,0,.92-.43,5.34,5.34,0,0,0,.58-.38Z"/><path class="cls-5" d="M48.71,63.55a1.65,1.65,0,0,0-.4-.11,1.73,1.73,0,0,0-1,.13,1.18,1.18,0,0,0-.43.36,2.31,2.31,0,0,0-.22.39,1.41,1.41,0,0,0-.13.4s.07-.14.19-.37a1.49,1.49,0,0,1,.63-.71,1.73,1.73,0,0,1,.94-.14C48.55,63.53,48.71,63.56,48.71,63.55Z"/><path class="cls-5" d="M57.07,53.88A2.26,2.26,0,0,1,58.49,56c0,3-6.14,6.39-6.14,6.39l-8.19-5.43-.51-.2S54.7,52.58,57.07,53.88Z"/><path class="cls-9" d="M48.31,59.67a.82.82,0,0,0,.21-.14l.56-.42c.47-.37,1.11-.88,1.79-1.47s1.29-1.14,1.72-1.55c.22-.2.39-.37.51-.49a2,2,0,0,0,.17-.19l-.2.17-.52.47c-.44.4-1,.94-1.73,1.53s-1.32,1.11-1.77,1.48l-.55.44Z"/><path class="cls-9" d="M54.76,55a1.66,1.66,0,0,0-.79.08,1.59,1.59,0,0,0-.7.36s.31-.16.72-.28S54.76,55,54.76,55Z"/><path class="cls-9" d="M54.05,54.54a.91.91,0,0,0-.48.36,1,1,0,0,0-.26.55s.11-.24.32-.5A5.41,5.41,0,0,1,54.05,54.54Z"/><path class="cls-5" d="M57.52,64.16s-.1,0-.21.06a.73.73,0,0,0-.24.47,1,1,0,0,0,.07.53c.06.12.12.18.13.17a1.94,1.94,0,0,0-.07-.19,1.06,1.06,0,0,1-.05-.49.9.9,0,0,1,.19-.45A.45.45,0,0,1,57.52,64.16Z"/><path class="cls-1" d="M56.48,49.56l-2.33,6.28a.89.89,0,0,1-.86.58l-12.81-.16v-1l4.75.18,2-6.26a.51.51,0,0,1,.49-.36l8.27,0A.5.5,0,0,1,56.48,49.56Z"/><path class="cls-5" d="M56.48,49.56v0a.43.43,0,0,0,0,0,.64.64,0,0,0,0-.24.53.53,0,0,0-.23-.3.52.52,0,0,0-.23-.08H47.82a.57.57,0,0,0-.34.07.53.53,0,0,0-.21.28c-.61,1.9-1.29,4-2,6.25v0h0l-4.75-.18,0,0v1l0,0,8.06.1,3.5,0h1.2a.9.9,0,0,0,.37-.06.87.87,0,0,0,.52-.49l.25-.67,1.53-4.12L56.33,50c.1-.25.15-.39.15-.39l-.14.39-.41,1.12c-.36,1-.88,2.39-1.53,4.13l-.25.67a.89.89,0,0,1-.53.51.82.82,0,0,1-.38.06H52l-3.5,0-8.06-.1h0v-1h0l4.75.18h0l2-6.25a.57.57,0,0,1,.23-.3.66.66,0,0,1,.36-.08h4.49l3.44,0H56a.62.62,0,0,1,.24.08.49.49,0,0,1,.22.31.5.5,0,0,1,0,.24Z"/><path class="cls-6" d="M50.8,51.94a.56.56,0,0,1,.62.06.5.5,0,0,1,.12.55.52.52,0,0,1-.46.33.49.49,0,0,1-.5-.33.54.54,0,0,1,.22-.61"/><path class="cls-5" d="M53.73,62.7S42.18,55.3,41.67,55a3.8,3.8,0,0,0-2.74-.65,4.24,4.24,0,0,0-2.68,2.85,15,15,0,0,0-.5,3.41,5,5,0,0,0,1.19,3.61,3.18,3.18,0,0,0,1.44,1l.37.1A5.43,5.43,0,0,0,44.41,63l.27-.41s7.57,2.78,7.68,2.74Z"/><path class="cls-9" d="M42.26,55.42l0,0-.09,0-.31-.21a5.43,5.43,0,0,0-1.22-.62,3.33,3.33,0,0,0-.93-.2,2.87,2.87,0,0,0-1.06.17,3.49,3.49,0,0,0-1,.62,4.78,4.78,0,0,0-.45.45,2.85,2.85,0,0,0-.38.53,5.8,5.8,0,0,0-.5,1.19c-.11.4-.19.8-.28,1.18a10.85,10.85,0,0,0-.26,2,7.85,7.85,0,0,0,.1,1.37c0,.16.06.28.07.37l0,.09v0a0,0,0,0,1,0,0l0-.1c0-.08,0-.21-.08-.37a6.62,6.62,0,0,1-.13-1.38,10.08,10.08,0,0,1,.25-2c.08-.38.17-.78.28-1.19a5.36,5.36,0,0,1,.5-1.2,3.58,3.58,0,0,1,.38-.55c.15-.16.3-.31.46-.45a3.81,3.81,0,0,1,1-.63,3,3,0,0,1,1.09-.17,3.63,3.63,0,0,1,.93.21,5.61,5.61,0,0,1,1.23.65l.3.22.08.06S42.27,55.42,42.26,55.42Z"/><path class="cls-9" d="M39.42,60.61l.07,0,.19.07.73.29,2.72,1c1.16.43,2.55.95,4.1,1.51s3.28,1.19,5.12,1.81h0l0,0c.29-.55.6-1.13.9-1.72l.46-.88,0,0,0,0-8.82-5.6-2.65-1.67-.72-.45-.19-.11-.06,0,.06.05.18.12.71.46,2.64,1.69,8.81,5.62,0,0-.46.88-.9,1.72.05,0c-1.84-.62-3.57-1.24-5.12-1.8L43.15,62l-2.73-1-.74-.27-.19-.07Z"/><path class="cls-5" d="M40,36.07a6.26,6.26,0,0,1-.51-1.23,2,2,0,0,1,.07-1.31c.1-.23.27-.44.36-.69s.07-.73.28-1c.32-.46,1-.35,1.53-.59s.67-.58,1.08-.72a1.66,1.66,0,0,1,1.11.15,4.17,4.17,0,0,0,1.07.39,7.3,7.3,0,0,0,.81,0,1.11,1.11,0,0,1,.75.26.52.52,0,0,1,0,.72.86.86,0,0,1,.91.88A1.31,1.31,0,0,1,46.7,34a2.8,2.8,0,0,1-1.41.18,5.57,5.57,0,0,1-3.65-1.62"/><path class="cls-23" d="M40.31,34.37l-.92,6.72a2,2,0,0,0,1.82,2.29h0a2,2,0,0,0,2.18-1.74c.07-.51.13-.93.14-1a2.07,2.07,0,0,0,2.09-1.6c.17-.81.39-2.51.57-4.05a3.2,3.2,0,0,0-2.55-3.5l-.16,0C41.71,31.23,40.51,32.59,40.31,34.37Z"/><path class="cls-26" d="M43.54,40.64a4,4,0,0,1-2.07-1.06,2.09,2.09,0,0,0,2,1.49Z"/><path class="cls-5" d="M45.44,36.44a.26.26,0,0,1-.28.2.24.24,0,0,1-.21-.27.25.25,0,0,1,.28-.2A.24.24,0,0,1,45.44,36.44Z"/><path class="cls-5" d="M45.66,35.76s-.19-.14-.45-.19-.47,0-.49,0,0-.07.12-.11a.67.67,0,0,1,.41,0,.68.68,0,0,1,.35.19C45.67,35.69,45.68,35.75,45.66,35.76Z"/><path class="cls-5" d="M43,36a.25.25,0,0,1-.28.2.24.24,0,0,1-.21-.27.25.25,0,0,1,.28-.19A.23.23,0,0,1,43,36Z"/><path class="cls-5" d="M43.11,35.3s-.19-.14-.44-.19-.48,0-.5,0,0-.07.13-.11a.71.71,0,0,1,.4,0,.68.68,0,0,1,.35.19C43.12,35.23,43.13,35.29,43.11,35.3Z"/><path class="cls-5" d="M43.67,37.41a1.45,1.45,0,0,1,.43,0c.07,0,.14,0,.16,0a.39.39,0,0,0,0-.21l-.09-.54a9,9,0,0,1-.18-1.4,9.44,9.44,0,0,1,.29,1.39c0,.18.06.37.09.54a.39.39,0,0,1,0,.26.17.17,0,0,1-.13.08H44.1A2.52,2.52,0,0,1,43.67,37.41Z"/><path class="cls-5" d="M42.87,37.43c.05,0,0,.29.19.54s.51.27.5.31-.08,0-.2,0a.65.65,0,0,1-.42-.25.55.55,0,0,1-.14-.44C42.81,37.49,42.85,37.43,42.87,37.43Z"/><path class="cls-5" d="M43.38,34.3c0,.07-.29,0-.6,0s-.57,0-.6-.06,0-.09.16-.14a1.06,1.06,0,0,1,.47-.07,1,1,0,0,1,.44.15C43.36,34.21,43.4,34.27,43.38,34.3Z"/><path class="cls-5" d="M45.72,35c-.06,0-.22,0-.44-.1s-.4,0-.43-.11,0-.08.12-.12a.63.63,0,0,1,.37,0,.68.68,0,0,1,.33.19C45.73,34.91,45.74,35,45.72,35Z"/><path class="cls-23" d="M40.2,35.64s-1.08-.57-1.28.59a.88.88,0,0,0,1,1.07S40.2,35.64,40.2,35.64Z"/><path class="cls-26" d="M39.66,36.81s0,0-.06,0a.21.21,0,0,1-.15,0,.5.5,0,0,1-.16-.49A.63.63,0,0,1,39.4,36c.05-.08.11-.13.17-.13a.1.1,0,0,1,.11.08s0,0,0,.06a.07.07,0,0,0,0-.07.16.16,0,0,0,0-.08.16.16,0,0,0-.11,0,.28.28,0,0,0-.24.15.72.72,0,0,0-.12.31.54.54,0,0,0,.21.55.24.24,0,0,0,.19,0Z"/><path class="cls-5" d="M46.52,33.45c-.2.43-1.22.59-2,.36s-.94-.64-1.38-1c-.28-.24-.28-.24-.73-.29s-.66.33-.94.57a4.73,4.73,0,0,1-.65,2.67.57.57,0,0,1-.19.24c-.16.08-.34,0-.44-.19a1.44,1.44,0,0,1-.16-.82,4.8,4.8,0,0,1,.38-1.86,3.35,3.35,0,0,1,1.21-1.45,3.14,3.14,0,0,1,2.3-.38,3.87,3.87,0,0,1,2,1.21,2.19,2.19,0,0,1,.54,1"/><path class="cls-5" d="M44.17,36.24s0-.1,0-.26a1.15,1.15,0,0,1,.41-.6,1.1,1.1,0,0,1,1-.15,1.11,1.11,0,0,1,.7,1,1,1,0,0,1-.21.64,1,1,0,0,1-.49.38,1.13,1.13,0,0,1-1-.15,1.15,1.15,0,0,1-.41-.6c0-.17,0-.27,0-.27a.28.28,0,0,0,0,.08,1.06,1.06,0,0,0,0,.2,1,1,0,0,0,.4.64,1.15,1.15,0,0,0,1.1.18,1.19,1.19,0,0,0,.54-.41,1.14,1.14,0,0,0,0-1.37,1.12,1.12,0,0,0-.54-.41,1.15,1.15,0,0,0-1.1.18,1,1,0,0,0-.4.64,1.06,1.06,0,0,0,0,.2A.17.17,0,0,0,44.17,36.24Z"/><path class="cls-5" d="M41.43,35.77a2.32,2.32,0,0,1,0-.27,1.1,1.1,0,0,1,.41-.6,1.11,1.11,0,0,1,1-.15,1.08,1.08,0,1,1-1,1.88,1.1,1.1,0,0,1-.41-.6,2.46,2.46,0,0,1,0-.26s0,0,0,.07a.87.87,0,0,0,0,.2,1.12,1.12,0,0,0,.41.64,1.13,1.13,0,0,0,1.09.18,1.08,1.08,0,0,0,.54-.41,1.14,1.14,0,0,0,0-1.37,1.13,1.13,0,0,0-1.63-.23,1.12,1.12,0,0,0-.41.64.87.87,0,0,0,0,.2C41.42,35.74,41.42,35.77,41.43,35.77Z"/><path class="cls-5" d="M43.69,35.8s.16,0,.33,0,.25.19.28.18,0-.05,0-.11a.39.39,0,0,0-.22-.16.48.48,0,0,0-.27,0C43.71,35.76,43.68,35.79,43.69,35.8Z"/><path class="cls-5" d="M39.87,35.47a4.1,4.1,0,0,0,.83,0,4,4,0,0,0,.82,0,3.09,3.09,0,0,0-.83,0A3.57,3.57,0,0,0,39.87,35.47Z"/></g></g></svg>