<svg xmlns="http://www.w3.org/2000/svg" xmlns:xlink="http://www.w3.org/1999/xlink" viewBox="0 0 77.75 77.76"><defs><style>.cls-1{fill:#afafaf;}.cls-2{fill:url(#Degradado_sin_nombre_24);}.cls-3{fill:#fff;}</style><linearGradient id="Degradado_sin_nombre_24" x1="2355.36" y1="-4399.87" x2="2406.37" y2="-4341.18" gradientTransform="translate(2419.74 -4331.65) rotate(180)" gradientUnits="userSpaceOnUse"><stop offset="0" stop-color="#5d3fd2"/><stop offset="0.42" stop-color="#b829a9"/><stop offset="0.5" stop-color="#bf289d"/><stop offset="0.64" stop-color="#d0257e"/><stop offset="0.78" stop-color="#e62256"/><stop offset="0.81" stop-color="#e83156"/><stop offset="0.87" stop-color="#ee5755"/><stop offset="0.95" stop-color="#f89554"/><stop offset="1" stop-color="#ffc153"/></linearGradient></defs><g id="Layer_2" data-name="Layer 2"><g id="Layer_2-2" data-name="Layer 2"><path class="cls-1" d="M38.87,0A38.88,38.88,0,1,0,77.75,38.88,38.88,38.88,0,0,0,38.87,0Z"/><path class="cls-2" d="M38.87,0A38.88,38.88,0,1,0,77.75,38.88,38.88,38.88,0,0,0,38.87,0Z"/><path class="cls-3" d="M38.87,52.76A13.88,13.88,0,1,0,25,38.88,13.9,13.9,0,0,0,38.87,52.76ZM28.36,38.88A10.52,10.52,0,1,1,38.87,49.4,10.53,10.53,0,0,1,28.36,38.88Z"/><path class="cls-3" d="M52.72,61.94H25a9.44,9.44,0,0,1-9.43-9.43V25.24A9.44,9.44,0,0,1,25,15.82H52.72a9.44,9.44,0,0,1,9.43,9.42V52.51A9.44,9.44,0,0,1,52.72,61.94ZM25,19.26a6,6,0,0,0-6,6V52.51a6,6,0,0,0,6,6H52.72a6,6,0,0,0,6-6V25.24a6,6,0,0,0-6-6Z"/><path class="cls-3" d="M53,23.41a2.2,2.2,0,1,0,2.19,2.2A2.2,2.2,0,0,0,53,23.41Z"/></g></g></svg>