<svg xmlns="http://www.w3.org/2000/svg" xmlns:xlink="http://www.w3.org/1999/xlink" viewBox="0 0 55.99 55.99"><defs><style>.cls-1{fill:url(#linear-gradient);}.cls-2{fill:url(#radial-gradient);}.cls-3{fill:url(#linear-gradient-2);}.cls-4{fill:url(#linear-gradient-3);}.cls-5{fill:url(#linear-gradient-4);}.cls-6{fill:url(#radial-gradient-2);}.cls-7{fill:url(#linear-gradient-5);}.cls-8{fill:url(#linear-gradient-6);}.cls-9{fill:url(#linear-gradient-7);}</style><linearGradient id="linear-gradient" x1="8.2" y1="-5105.87" x2="47.79" y2="-5066.28" gradientTransform="matrix(1, 0, 0, -1, 0, -5058.08)" gradientUnits="userSpaceOnUse"><stop offset="0" stop-color="#0056e0"/><stop offset="0.35" stop-color="#369be0"/><stop offset="0.65" stop-color="#61d1e0"/><stop offset="0.88" stop-color="#7bf2e0"/><stop offset="1" stop-color="#85ffe0"/></linearGradient><radialGradient id="radial-gradient" cx="28.29" cy="-5080.14" r="35.42" gradientTransform="matrix(1, 0, 0, -1, -0.23, -5045.88)" gradientUnits="userSpaceOnUse"><stop offset="0" stop-color="#0056e0" stop-opacity="0.7"/><stop offset="0.13" stop-color="#0078d1" stop-opacity="0.61"/><stop offset="0.3" stop-color="#009fc0" stop-opacity="0.48"/><stop offset="0.46" stop-color="#00beb2" stop-opacity="0.35"/><stop offset="0.63" stop-color="#00d4a8" stop-opacity="0.23"/><stop offset="0.78" stop-color="#00e1a3" stop-opacity="0.11"/><stop offset="0.93" stop-color="#00e5a1" stop-opacity="0"/></radialGradient><linearGradient id="linear-gradient-2" x1="5.41" y1="-5115.26" x2="43.53" y2="-5077.14" gradientTransform="matrix(1, 0, 0, -1, 0, -5058.08)" gradientUnits="userSpaceOnUse"><stop offset="0" stop-color="#389fff"/><stop offset="0.12" stop-color="#45affa"/><stop offset="0.57" stop-color="#73e9e7"/><stop offset="0.79" stop-color="#85ffe0"/><stop offset="0.88" stop-color="#9dffe6"/><stop offset="1" stop-color="#c2fff0"/></linearGradient><linearGradient id="linear-gradient-3" x1="-28.61" y1="-5136.56" x2="44.22" y2="-5063.73" xlink:href="#linear-gradient-2"/><linearGradient id="linear-gradient-4" x1="-15.46" y1="-5123.35" x2="62.75" y2="-5045.14" xlink:href="#linear-gradient-2"/><radialGradient id="radial-gradient-2" cx="28.29" cy="-5079.85" r="17.22" gradientTransform="matrix(1, 0, 0, -1, -0.23, -5045.88)" gradientUnits="userSpaceOnUse"><stop offset="0" stop-color="#00e5a1" stop-opacity="0"/><stop offset="0.33" stop-color="#00e3a2" stop-opacity="0.23"/><stop offset="0.49" stop-color="#00dca5" stop-opacity="0.34"/><stop offset="0.61" stop-color="#00cfab" stop-opacity="0.43"/><stop offset="0.72" stop-color="#00bcb3" stop-opacity="0.5"/><stop offset="0.81" stop-color="#00a4be" stop-opacity="0.57"/><stop offset="0.9" stop-color="#0086cb" stop-opacity="0.63"/><stop offset="0.97" stop-color="#0064da" stop-opacity="0.68"/><stop offset="1" stop-color="#0056e0" stop-opacity="0.7"/></radialGradient><linearGradient id="linear-gradient-5" x1="-27.03" y1="-5142.54" x2="36.63" y2="-5078.88" gradientTransform="matrix(1, 0, 0, -1, 0, -5058.08)" gradientUnits="userSpaceOnUse"><stop offset="0" stop-color="#85ffe0"/><stop offset="0.23" stop-color="#9dffe6"/><stop offset="0.73" stop-color="#dafff6"/><stop offset="1" stop-color="#fff"/></linearGradient><linearGradient id="linear-gradient-6" x1="11.09" y1="-5096.72" x2="47.02" y2="-5060.79" xlink:href="#linear-gradient-2"/><linearGradient id="linear-gradient-7" x1="18.89" y1="-5088.92" x2="42.13" y2="-5065.68" xlink:href="#linear-gradient-2"/></defs><g id="Layer_2" data-name="Layer 2"><g id="Layer_5" data-name="Layer 5"><circle class="cls-1" cx="27.99" cy="27.99" r="27.99"/><circle class="cls-2" cx="27.99" cy="27.99" r="27.99"/><path class="cls-3" d="M13.56,31.31c4.37,6.44,8.8,13.05,13.07,19.58a1.62,1.62,0,0,0,2.73,0c6.76-10.35,13.1-19.62,13.07-19.58q-14.43.12-28.87,0Z"/><path class="cls-4" d="M45.34,21.87C45.42,31.13,37.5,39,28,39.09s-17.42-8-17.34-17.22S18.7,4.39,28,4.34,45.2,12.61,45.34,21.87Z"/><path class="cls-5" d="M41.42,21.81a13.43,13.43,0,0,1-26.85,0A13.78,13.78,0,0,1,28,8.27,13.79,13.79,0,0,1,41.42,21.81Z"/><path class="cls-6" d="M41.42,21.81a13.43,13.43,0,0,1-26.85,0A13.78,13.78,0,0,1,28,8.27,13.79,13.79,0,0,1,41.42,21.81Z"/><path class="cls-7" d="M38.9,29.43a10.91,10.91,0,0,1-21.82,0A11.12,11.12,0,0,1,28,18.44a11.12,11.12,0,0,1,10.91,11Z"/><path class="cls-8" d="M33.87,21.73A5.88,5.88,0,1,1,28,15.83a5.93,5.93,0,0,1,5.88,5.9Z"/><path class="cls-9" d="M29.67,24.24a5.85,5.85,0,0,1-5.86-5.87,5.32,5.32,0,0,1,.06-.81,5.87,5.87,0,1,0,9.94,5,5.86,5.86,0,0,1-4.14,1.7Z"/></g></g></svg>