<svg xmlns="http://www.w3.org/2000/svg" viewBox="0 0 181.24 90.45"><defs><style>.cls-1{fill:#14b0e7;}.cls-2{fill:#1b1464;stroke:#fff;stroke-miterlimit:10;stroke-width:0.62px;}.cls-3{fill:#8fd1e5;}.cls-4,.cls-6{isolation:isolate;font-family:ErasITC-Bold, Eras Bold ITC;font-weight:700;}.cls-4{font-size:32.91px;}.cls-4,.cls-5,.cls-6{fill:#fff;}.cls-6{font-size:33.65px;}</style></defs><g id="Layer_2" data-name="Layer 2"><g id="Layer_2-2" data-name="Layer 2"><path class="cls-1" d="M80.19,57.39A41.58,41.58,0,0,1,60,78.69c-3.86,1.87-9,4.24-15,4.12a16.62,16.62,0,0,1-5-.75c-1.24-.37-12.83-3.74-15.57-15a21.17,21.17,0,0,1,8.1-21.69c6-4.23,13.83-4.11,14.33-4,1.49,0,1.74.25,2.61.25h.63c7.47-.49,12.33-8.47,12.71-9a21,21,0,0,0,.25-20.44c-3.74-7-10.84-9.09-10.59-9.72.12-.24,1.37,0,3.24.63A43.93,43.93,0,0,1,72.09,13.77a41.67,41.67,0,0,1,8.85,14.08,42.21,42.21,0,0,1,2.24,12.46A43.57,43.57,0,0,1,80.19,57.39Z"/><path class="cls-2" d="M70.35,74.58h0a9.79,9.79,0,0,1-9.85,9.85H3.93A3.62,3.62,0,0,1,.31,80.81h0V1.93A1.65,1.65,0,0,1,1.93.31h42A17.19,17.19,0,0,1,56,5.42c3.12,3.24,6.36,7.73,6.48,12.59H22.62a7.77,7.77,0,0,0-7.73,7.72h0v33.4a7.77,7.77,0,0,0,7.73,7.73H62.49a7.79,7.79,0,0,1,7.86,7.72Z"/><path class="cls-3" d="M82.18,58.76A41.62,41.62,0,0,1,62,80.07c-4.61,2.11-10.6,5.1-18,3.73,6,.13,11-2.24,15-4.11A42,42,0,0,0,79.19,58.38a42.06,42.06,0,0,0,2.87-17.07,42.48,42.48,0,0,0-2.24-12.46A39.58,39.58,0,0,0,71,14.77,43.09,43.09,0,0,0,54.64,4.17c-.25-.12-.37-.24-.25-.37.38-.62,11.1,2.49,19.57,11.34a41.67,41.67,0,0,1,8.85,14.08,42.54,42.54,0,0,1,2.24,12.46A42.14,42.14,0,0,1,82.18,58.76Z"/><text class="cls-4" transform="translate(86.21 59.79)">rench</text><path class="cls-5" d="M32,19c.25.13-.62,1.62-.25,3.24.25,1.13.88,1,1.25,2.12a3.36,3.36,0,0,1-1,3.49,1.94,1.94,0,0,1-1.49.38,2.91,2.91,0,0,1-2-1.75,5,5,0,0,1,.5-4.73A17.7,17.7,0,0,1,30.72,20C31.59,19.25,31.84,19,32,19Z"/><path class="cls-5" d="M33.58,34.83c.13,0-.12.5,0,.87s.25.25.38.63a1,1,0,0,1-.25,1,.46.46,0,0,1-.38.13.85.85,0,0,1-.62-.5,1.33,1.33,0,0,1,.13-1.37l.49-.5C33.46,34.83,33.46,34.71,33.58,34.83Z"/><text class="cls-6" transform="translate(78.18 82.03) scale(0.97 1)">tech</text></g></g></svg>