<svg xmlns="http://www.w3.org/2000/svg" viewBox="0 0 217.62 219.51"><defs><style>.cls-1{fill:#14afe6;}.cls-2{fill:#1b1464;}.cls-3{fill:#8ed0e4;}.cls-4{font-size:41px;fill:#312782;}.cls-4,.cls-6{font-family:ErasITC-Light, Eras Light ITC;font-weight:300;}.cls-5,.cls-8{fill:#fff;}.cls-6{font-size:41.92px;fill:#e84e1b;}.cls-7{fill:#009540;}.cls-8,.cls-9{font-size:27.33px;font-family:ErasITC-Medium, Eras Medium ITC;font-weight:500;}.cls-9{fill:#bd1622;}</style></defs><g id="Layer_2" data-name="Layer 2"><g id="Layer_2-2" data-name="Layer 2"><path class="cls-1" d="M99.41,71.27C92.19,89,76.82,96.63,74.24,97.86c-4.87,2.34-11.17,5.33-18.57,5.13a26.13,26.13,0,0,1-6.18-.94c-1.58-.43-16-4.66-19.46-18.65-2.76-11,2.7-21.73,10-26.93,7.49-5.33,17.26-5.06,17.85-5,1.81.07,2.23.27,3.22.29a7.17,7.17,0,0,0,.78,0c9.3-.58,15.39-10.47,15.79-11.15,4.88-8.17,4.19-18.4.32-25.5C73.27,6.36,64.48,3.64,64.86,3c.15-.27,1.69,0,4.06.8A54.5,54.5,0,0,1,89.23,17a50.55,50.55,0,0,1,11,17.52A51.5,51.5,0,0,1,103.06,50,53.14,53.14,0,0,1,99.41,71.27Z"/><path class="cls-2" d="M87.25,92.65h0A12.3,12.3,0,0,1,75,105H18.15v-.06H4.43A4.44,4.44,0,0,1,0,100.46V2.09A2.1,2.1,0,0,1,2.09,0h52.4a20.91,20.91,0,0,1,15,6.33c3.88,4,7.86,9.59,8,15.67H27.85a9.69,9.69,0,0,0-9.7,9.69V73.26a9.7,9.7,0,0,0,9.7,9.7h49.7A9.69,9.69,0,0,1,87.25,92.65Z"/><path class="cls-3" d="M101.91,72.87C94.7,90.61,79.33,98.23,76.75,99.46c-5.68,2.72-13.27,6.33-22.3,4.75,7.4.2,13.7-2.79,18.58-5.13,2.57-1.23,18-8.85,25.16-26.59a53.14,53.14,0,0,0,3.65-21.26A51.35,51.35,0,0,0,99,35.75,50.3,50.3,0,0,0,88,18.23,54.5,54.5,0,0,0,67.7,5c-.26-.19-.39-.32-.33-.42.46-.82,13.8,3.05,24.36,14.05a50.14,50.14,0,0,1,11,17.52,50.84,50.84,0,0,1,2.85,15.48A52.76,52.76,0,0,1,101.91,72.87Z"/><text class="cls-4" transform="translate(106.98 81.98)">rench</text><path class="cls-5" d="M39.45,23.46c.39.2-.83,2-.28,4,.37,1.34,1.1,1.26,1.47,2.63a4.15,4.15,0,0,1-1.2,4.33,2.67,2.67,0,0,1-1.79.52c-1.47-.16-2.26-1.77-2.44-2.13a6.11,6.11,0,0,1,.63-5.89c.08-.12.77-.82,2.13-2.22C38.94,23.69,39.27,23.37,39.45,23.46Z"/><path class="cls-5" d="M41.36,43c.12.06-.24.57-.08,1.16.11.39.32.36.43.76a1.19,1.19,0,0,1-.35,1.26.77.77,0,0,1-.52.15c-.43,0-.66-.51-.71-.62A1.8,1.8,0,0,1,40.31,44l.62-.64C41.22,43.1,41.31,43,41.36,43Z"/><text class="cls-6" transform="translate(96.98 103.48) scale(0.97 1)">raphics</text><path class="cls-7" d="M22.69,186.15H112a9.64,9.64,0,0,1,9.64,9.64v4.3a19.43,19.43,0,0,1-19.43,19.43H23a5.71,5.71,0,0,1-5.71-5.71V191.6A5.45,5.45,0,0,1,22.69,186.15Z"/><text class="cls-8"><tspan x="18.85" y="208.95">Imagine</tspan></text><text class="cls-8" transform="translate(17.49 176.64)">Creativity</text><text class="cls-9" transform="translate(16.54 147.37)">Vision</text></g></g></svg>