<svg xmlns="http://www.w3.org/2000/svg" xmlns:xlink="http://www.w3.org/1999/xlink" viewBox="0 0 55.99 55.99"><defs><style>.cls-1{fill:url(#linear-gradient);}.cls-2{fill:url(#radial-gradient);}.cls-3{fill:url(#linear-gradient-2);}.cls-4{fill:url(#linear-gradient-3);}.cls-5{fill:url(#linear-gradient-4);}.cls-6{fill:url(#linear-gradient-5);}.cls-7{fill:url(#linear-gradient-6);}.cls-8{fill:url(#linear-gradient-7);}.cls-9{fill:url(#linear-gradient-8);}.cls-10{fill:url(#linear-gradient-9);}.cls-11{fill:url(#linear-gradient-10);}.cls-12{fill:url(#linear-gradient-11);}.cls-13{fill:url(#linear-gradient-12);}.cls-14{fill:url(#linear-gradient-13);}.cls-15{fill:url(#linear-gradient-14);}.cls-16{fill:url(#linear-gradient-15);}.cls-17{fill:url(#linear-gradient-16);}</style><linearGradient id="linear-gradient" x1="8.2" y1="-5108.62" x2="47.79" y2="-5069.03" gradientTransform="matrix(1, 0, 0, -1, 0, -5060.83)" gradientUnits="userSpaceOnUse"><stop offset="0" stop-color="#0056e0"/><stop offset="0.35" stop-color="#369be0"/><stop offset="0.65" stop-color="#61d1e0"/><stop offset="0.88" stop-color="#7bf2e0"/><stop offset="1" stop-color="#85ffe0"/></linearGradient><radialGradient id="radial-gradient" cx="43.33" cy="-5089.97" r="30.17" gradientTransform="matrix(0.93, 0, 0, -0.93, -12.21, -4694.52)" gradientUnits="userSpaceOnUse"><stop offset="0" stop-color="#0056e0" stop-opacity="0.7"/><stop offset="1" stop-color="#00e5a1" stop-opacity="0"/></radialGradient><linearGradient id="linear-gradient-2" x1="-57.4" y1="-5167.01" x2="51.13" y2="-5058.48" gradientTransform="matrix(1, 0, 0, -1, 0, -5060.83)" gradientUnits="userSpaceOnUse"><stop offset="0" stop-color="#389fff"/><stop offset="0.12" stop-color="#45affa"/><stop offset="0.57" stop-color="#73e9e7"/><stop offset="0.79" stop-color="#85ffe0"/><stop offset="0.88" stop-color="#9dffe6"/><stop offset="1" stop-color="#c2fff0"/></linearGradient><linearGradient id="linear-gradient-3" x1="-48.83" y1="-5175.41" x2="58.58" y2="-5068.01" gradientTransform="matrix(1, 0, 0, -1, 0, -5060.83)" gradientUnits="userSpaceOnUse"><stop offset="0" stop-color="#85ffe0"/><stop offset="0.23" stop-color="#9dffe6"/><stop offset="0.73" stop-color="#dafff6"/><stop offset="1" stop-color="#fff"/></linearGradient><linearGradient id="linear-gradient-4" x1="-8.33" y1="-5127.16" x2="85.29" y2="-5033.54" xlink:href="#linear-gradient-3"/><linearGradient id="linear-gradient-5" x1="8.27" y1="-5090.46" x2="37.69" y2="-5061.04" gradientTransform="matrix(1, 0, 0, -1, 0, -5060.83)" gradientUnits="userSpaceOnUse"><stop offset="0" stop-color="#230be0"/><stop offset="0.5" stop-color="#0056e0"/><stop offset="1" stop-color="#85ffe0"/></linearGradient><linearGradient id="linear-gradient-6" x1="-0.69" y1="-5096.88" x2="43.46" y2="-5052.73" xlink:href="#linear-gradient-5"/><linearGradient id="linear-gradient-7" x1="21.97" y1="-5112.54" x2="50.69" y2="-5083.82" gradientTransform="matrix(1, 0, 0, -1, 0, -5060.83)" gradientUnits="userSpaceOnUse"><stop offset="0" stop-color="#389fff"/><stop offset="0.11" stop-color="#45affa"/><stop offset="0.54" stop-color="#73e9e7"/><stop offset="0.74" stop-color="#85ffe0"/><stop offset="0.8" stop-color="#9dffe6"/><stop offset="0.93" stop-color="#dafff6"/><stop offset="1" stop-color="#fff"/></linearGradient><linearGradient id="linear-gradient-8" x1="25.79" y1="-5108.72" x2="39.96" y2="-5094.55" xlink:href="#linear-gradient-7"/><linearGradient id="linear-gradient-9" x1="-11.12" y1="-5115.9" x2="50.81" y2="-5053.97" xlink:href="#linear-gradient-5"/><linearGradient id="linear-gradient-10" x1="-35.88" y1="-5151.39" x2="68.85" y2="-5046.66" xlink:href="#linear-gradient-5"/><linearGradient id="linear-gradient-11" x1="-13.23" y1="-5124.95" x2="50.71" y2="-5061" xlink:href="#linear-gradient-5"/><linearGradient id="linear-gradient-12" x1="-14.15" y1="-5140.92" x2="63.05" y2="-5063.72" xlink:href="#linear-gradient-2"/><linearGradient id="linear-gradient-13" x1="26.09" y1="15.57" x2="66.83" y2="-25.16" gradientTransform="translate(0 31.04)" xlink:href="#linear-gradient-3"/><linearGradient id="linear-gradient-14" x1="38.01" y1="-5102.73" x2="38.01" y2="-5064.13" gradientTransform="matrix(1, 0, 0, -1, 0, -5060.83)" gradientUnits="userSpaceOnUse"><stop offset="0" stop-color="#85ffe0" stop-opacity="0"/><stop offset="1" stop-color="#0056e0" stop-opacity="0.7"/></linearGradient><linearGradient id="linear-gradient-15" x1="8.98" y1="-5110.27" x2="54.67" y2="-5064.57" xlink:href="#linear-gradient-3"/><linearGradient id="linear-gradient-16" x1="5.69" y1="-5120.27" x2="44.28" y2="-5081.68" xlink:href="#linear-gradient-3"/></defs><g id="Layer_2" data-name="Layer 2"><g id="Layer_5" data-name="Layer 5"><circle class="cls-1" cx="27.99" cy="27.99" r="27.99"/><circle class="cls-2" cx="27.99" cy="27.99" r="27.99"/><path class="cls-3" d="M14.64,9.84Q14,28,14.64,46.14A3.66,3.66,0,0,0,18,49.6q3.27.16,6.52.25-.4-21.85,0-43.72-3.25.09-6.52.25a3.66,3.66,0,0,0-3.4,3.46Z"/><path class="cls-4" d="M37.9,6.07l-1.59,0q.18,21.95,0,43.89l1.63,0a3.48,3.48,0,0,0,3.34-3.42q.3-18.51,0-37A3.49,3.49,0,0,0,37.9,6.07Z"/><path class="cls-5" d="M34.58,26.32C36.3,20.68,38,15.05,39.64,9.46a3.45,3.45,0,0,0-3.33-3.41Q29.6,6,22.92,6.18A1.77,1.77,0,0,0,21.24,7.9q-.46,19.26,0,38.52a3.53,3.53,0,0,0,3.36,3.43c3.91.11,7.83.14,11.74.09a3.45,3.45,0,0,0,3.33-3.41q0-3.36.08-6.7-2.52-6.72-5.13-13.51Z"/><path class="cls-6" d="M30.36,7.71,28,7.74c0,.56,0,1.12,0,1.68l2.39,0a.84.84,0,0,0,.83-.84.83.83,0,0,0-.82-.84Z"/><path class="cls-7" d="M28.79,8.57A.8.8,0,0,0,28,7.74l-2.43,0a.87.87,0,0,0-.83.86.79.79,0,0,0,.81.82l2.43,0A.85.85,0,0,0,28.79,8.57Z"/><path class="cls-8" d="M30.44,45.75A2.46,2.46,0,0,1,28,48.25a2.6,2.6,0,0,1-2.51-2.56,2.43,2.43,0,0,1,2.47-2.48,2.56,2.56,0,0,1,2.5,2.54Z"/><path class="cls-9" d="M28.79,46.58A2.58,2.58,0,0,1,26.28,44a1.48,1.48,0,0,1,0-.21,2.46,2.46,0,0,0-.82,1.87A2.6,2.6,0,0,0,28,48.25,2.45,2.45,0,0,0,30.43,46a2.4,2.4,0,0,1-1.64.62Z"/><path class="cls-10" d="M18,8a1.81,1.81,0,0,0-1.7,1.72q-.48,14.94-.17,29.87a1.76,1.76,0,0,0,1.7,1.7c1.09,0,2.19.07,3.28.09,2.2-5,4.48-10,6.78-15.11C25.59,20.13,23.34,14,21.24,7.9L18,8Z"/><path class="cls-11" d="M28,11.1l-2.44,0a2.37,2.37,0,0,1-1.75-.7S21.23,7.9,21.24,7.9q-.4,16.77-.14,33.52,8.46.19,16.93.1a1.71,1.71,0,0,0,1.68-1.69c0-3.14.06-16.86,0-16.86-4-4-7.93-8-11.8-11.87Z"/><path class="cls-12" d="M39.75,23c0-5.57-.08-10.9-.12-13.51A1.73,1.73,0,0,0,38,7.75l-3.29,0-2.52,2.57a2.47,2.47,0,0,1-1.8.79l-2.4,0A11.8,11.8,0,0,0,39.75,23Z"/><path class="cls-13" d="M50.71,21.3Q38,21.06,25.33,21.16q0,6.82,0,13.67,12.69.09,25.38-.14Q50.8,28,50.71,21.3Z"/><path class="cls-14" d="M50.71,34.69A1.77,1.77,0,0,1,49,36.32q-11,.23-21.91.15a1.74,1.74,0,0,1-1.73-1.64,1.65,1.65,0,0,1,.73-1.43l11-7.61a1.67,1.67,0,0,1,1.91,0c5.09,3.54,10.93,7.47,11,7.5a1.58,1.58,0,0,1,.72,1.4Z"/><path class="cls-15" d="M25.33,21.16q0,6.81,0,13.62A1.71,1.71,0,0,0,27,36.47h2.52a1.7,1.7,0,0,1-1.69-1.68c0-2.74,0-5.47,0-8.2A.84.84,0,0,1,29.24,26c2.41,2.16,4.83,4.33,7.25,6.48A2.21,2.21,0,0,0,38,33a2.29,2.29,0,0,0,1.54-.59s8.37-7.46,10.6-9.37a1.62,1.62,0,0,0,.55-1.21c0-.19,0-.38,0-.57Q38,21.06,25.33,21.16Z"/><path class="cls-16" d="M38,19.52q-5.48,0-10.95,0a1.73,1.73,0,0,0-1.73,1.64,1.64,1.64,0,0,0,.73,1.43l11,7.61a1.69,1.69,0,0,0,1.91,0c1.92-1.33,5.75-4,5.75-4C42.5,24,40.25,21.77,38,19.52Z"/><path class="cls-17" d="M49,19.67c-3.65-.08-7.31-.13-11-.15a6.76,6.76,0,0,0,6.73,6.72c2.93-2,5.2-3.51,5.25-3.54a1.62,1.62,0,0,0,.72-1.4A1.76,1.76,0,0,0,49,19.67Z"/></g></g></svg>