<svg xmlns="http://www.w3.org/2000/svg" viewBox="0 0 1026.68 171.65"><defs><style>.cls-1{fill:#d1d3d4;}.cls-2{fill:#ffbd1a;}.cls-12,.cls-3{fill:#fff;}.cls-4{fill:#0071bc;}.cls-5{fill:#8d16d3;}.cls-6{fill:#f1f2f2;}.cls-7{fill:#8dc63f;}.cls-8{fill:#668e19;}.cls-9{fill:#ff0a26;}.cls-10{fill:#ff940a;}.cls-11{fill:#ff5600;}.cls-12{font-size:16px;font-family:Georgia;letter-spacing:0.08em;}</style></defs><g id="Layer_2" data-name="Layer 2"><g id="Layer_2-2" data-name="Layer 2"><path class="cls-1" d="M66.8,137.8a62.31,62.31,0,1,1,62.3-62.3A62.38,62.38,0,0,1,66.8,137.8Zm0-121.57A59.27,59.27,0,1,0,126.07,75.5,59.34,59.34,0,0,0,66.8,16.23Z"/><path class="cls-1" d="M250,137.8a62.31,62.31,0,1,1,62.3-62.3A62.38,62.38,0,0,1,250,137.8Zm0-121.57A59.27,59.27,0,1,0,309.21,75.5,59.35,59.35,0,0,0,250,16.23Z"/><path class="cls-1" d="M430.83,137.8a62.31,62.31,0,1,1,62.3-62.3A62.37,62.37,0,0,1,430.83,137.8Zm0-121.57A59.27,59.27,0,1,0,490.1,75.5,59.34,59.34,0,0,0,430.83,16.23Z"/><path class="cls-1" d="M607.5,137.8a62.31,62.31,0,1,1,62.3-62.3A62.37,62.37,0,0,1,607.5,137.8Zm0-121.57A59.27,59.27,0,1,0,666.77,75.5,59.33,59.33,0,0,0,607.5,16.23Z"/><path class="cls-1" d="M789.72,137.8A62.31,62.31,0,1,1,852,75.5,62.37,62.37,0,0,1,789.72,137.8Zm0-121.57A59.27,59.27,0,1,0,849,75.5,59.33,59.33,0,0,0,789.72,16.23Z"/><path class="cls-1" d="M964.38,137.8a62.31,62.31,0,1,1,62.3-62.3A62.37,62.37,0,0,1,964.38,137.8Zm0-121.57a59.27,59.27,0,1,0,59.27,59.27A59.33,59.33,0,0,0,964.38,16.23Z"/><rect class="cls-1" x="128.81" y="73.98" width="56.79" height="3.04"/><rect class="cls-1" x="312.17" y="73.98" width="56.79" height="3.04"/><rect class="cls-1" x="489.53" y="73.98" width="56.79" height="3.04"/><rect class="cls-1" x="670.89" y="73.98" width="56.79" height="3.04"/><polygon class="cls-1" points="908.05 77.01 851.25 77.01 842.25 73.98 899.05 73.98 908.05 77.01"/><path class="cls-2" d="M81.55,14.71A14.71,14.71,0,1,1,66.84,0,14.7,14.7,0,0,1,81.55,14.71Z"/><path d="M70.11,20.92H67.33V13.3l0-1.25.05-1.37a13.12,13.12,0,0,1-1,.91l-1.51,1.22-1.34-1.67,4.24-3.38h2.29Z"/><path class="cls-2" d="M264.65,14.71A14.71,14.71,0,1,1,249.94,0,14.7,14.7,0,0,1,264.65,14.71Z"/><path d="M254.56,20.92h-9.2V19l3.31-3.33c1-1,1.61-1.7,1.91-2.09a4.57,4.57,0,0,0,.65-1.07,2.82,2.82,0,0,0,.2-1,1.5,1.5,0,0,0-.44-1.18,1.68,1.68,0,0,0-1.16-.39,3.43,3.43,0,0,0-1.49.35,8,8,0,0,0-1.5,1l-1.51-1.79a9.6,9.6,0,0,1,1.61-1.17,6.07,6.07,0,0,1,1.39-.53A7.36,7.36,0,0,1,250,7.57,5,5,0,0,1,252.2,8a3.5,3.5,0,0,1,1.47,1.26,3.42,3.42,0,0,1,.52,1.86,4.4,4.4,0,0,1-.32,1.7,6.24,6.24,0,0,1-1,1.63,23.7,23.7,0,0,1-2.36,2.39l-1.7,1.59v.13h5.74Z"/><path class="cls-2" d="M445.54,14.71A14.71,14.71,0,1,1,430.83,0,14.71,14.71,0,0,1,445.54,14.71Z"/><path d="M435,10.7a3.1,3.1,0,0,1-.74,2.1,3.89,3.89,0,0,1-2.1,1.19v0a4.15,4.15,0,0,1,2.41,1,2.68,2.68,0,0,1,.82,2.07A3.53,3.53,0,0,1,434,20a6.33,6.33,0,0,1-3.94,1.06,9.59,9.59,0,0,1-3.79-.71V18a8.35,8.35,0,0,0,1.68.63,7.09,7.09,0,0,0,1.81.24,3.56,3.56,0,0,0,2-.46,1.74,1.74,0,0,0,.66-1.51,1.35,1.35,0,0,0-.76-1.31,5.54,5.54,0,0,0-2.41-.39h-1V13.09h1a4.73,4.73,0,0,0,2.24-.4,1.47,1.47,0,0,0,.7-1.37c0-1-.63-1.5-1.87-1.5a4.11,4.11,0,0,0-1.32.22,6.22,6.22,0,0,0-1.49.74l-1.29-1.91a7.12,7.12,0,0,1,4.3-1.3,5.52,5.52,0,0,1,3.22.83A2.65,2.65,0,0,1,435,10.7Z"/><path class="cls-2" d="M622.21,14.71A14.71,14.71,0,1,1,607.5,0,14.7,14.7,0,0,1,622.21,14.71Z"/><path d="M612.47,18.19h-1.59v2.73h-2.72V18.19h-5.62V16.26l5.77-8.5h2.57V16h1.59ZM608.16,16V13.8c0-.37,0-.91,0-1.62s.06-1.12.08-1.23h-.08a10.25,10.25,0,0,1-.8,1.44L605,16Z"/><path class="cls-2" d="M804.43,14.71A14.71,14.71,0,1,1,789.72,0,14.71,14.71,0,0,1,804.43,14.71Z"/><path d="M790,12.51a4.21,4.21,0,0,1,3,1.07,3.86,3.86,0,0,1,1.14,2.94,4.28,4.28,0,0,1-1.36,3.39,5.76,5.76,0,0,1-3.89,1.19,7.67,7.67,0,0,1-3.55-.71V18a7.66,7.66,0,0,0,1.66.61,7.24,7.24,0,0,0,1.79.24c1.69,0,2.55-.7,2.55-2.09s-.89-2-2.64-2a5.79,5.79,0,0,0-1,.1,7.42,7.42,0,0,0-.94.2l-1.1-.59.49-6.71h7.14v2.36h-4.71l-.24,2.58.32-.06A5.8,5.8,0,0,1,790,12.51Z"/><path class="cls-2" d="M979.09,14.71A14.71,14.71,0,1,1,964.38,0,14.7,14.7,0,0,1,979.09,14.71Z"/><path d="M959.74,15.33q0-3.9,1.65-5.82a6.19,6.19,0,0,1,5-1.9,9.09,9.09,0,0,1,1.76.13V10a7.3,7.3,0,0,0-1.58-.18,5.39,5.39,0,0,0-2.34.44,2.87,2.87,0,0,0-1.36,1.28,5.93,5.93,0,0,0-.53,2.4h.12a3.05,3.05,0,0,1,2.85-1.53A3.54,3.54,0,0,1,968,13.48a4.4,4.4,0,0,1,1,3.06,4.6,4.6,0,0,1-1.19,3.33,4.37,4.37,0,0,1-3.3,1.23,4.73,4.73,0,0,1-2.54-.68,4.34,4.34,0,0,1-1.67-2A7.52,7.52,0,0,1,959.74,15.33Zm4.75,3.55a1.66,1.66,0,0,0,1.37-.6,2.68,2.68,0,0,0,.48-1.71,2.3,2.3,0,0,0-.45-1.51,1.61,1.61,0,0,0-1.35-.56,2,2,0,0,0-1.44.55,1.69,1.69,0,0,0-.6,1.28,2.93,2.93,0,0,0,.56,1.81A1.74,1.74,0,0,0,964.49,18.88Z"/><polygon class="cls-3" points="286.99 70.05 286.99 98.76 277.51 98.76 277.52 101.71 277.53 103.29 277.55 107.13 275.17 105.65 274.18 105.05 271.99 103.69 271.52 103.4 268.93 101.8 268.72 101.67 266.27 100.16 265.46 99.66 264.01 98.76 235.69 98.76 235.69 70.05 286.99 70.05"/><polygon class="cls-3" points="212.89 51.55 212.89 80.26 222.38 80.26 222.34 88.63 235.88 80.26 264.19 80.26 264.19 51.55 212.89 51.55"/><path class="cls-3" d="M230.65,65.41A2.67,2.67,0,1,1,228,62.74,2.67,2.67,0,0,1,230.65,65.41Z"/><path class="cls-3" d="M241.21,65.41a2.67,2.67,0,1,1-2.67-2.67A2.66,2.66,0,0,1,241.21,65.41Z"/><path class="cls-3" d="M251.63,65.41A2.67,2.67,0,1,1,249,62.74,2.66,2.66,0,0,1,251.63,65.41Z"/><polygon class="cls-4" points="446.57 104.27 453.61 97.22 453.61 46.12 408.05 46.12 408.05 104.27 446.57 104.27"/><polygon class="cls-4" points="446.17 103.87 446.17 96.84 453.21 96.82 446.17 103.87"/><rect class="cls-3" x="424.34" y="56.11" width="12.92" height="4.95"/><path class="cls-3" d="M438.05,61.85h-14.5V55.31h14.5Zm-12.92-1.59h11.34V56.9H425.13Z"/><rect class="cls-3" x="418.68" y="71.51" width="8.56" height="4.15"/><path class="cls-3" d="M428,76.45H417.89V70.72H428Zm-8.57-1.58h7V72.31h-7Z"/><rect class="cls-3" x="415.74" y="85.02" width="6.02" height="4.15"/><path class="cls-3" d="M422.55,90H415V84.23h7.6Zm-6-1.58H421V85.82h-4.44Z"/><rect class="cls-3" x="427.74" y="85.02" width="6.02" height="4.15"/><path class="cls-3" d="M434.55,90h-7.61V84.23h7.61Zm-6-1.58H433V85.82h-4.43Z"/><rect class="cls-3" x="439.73" y="85.02" width="6.02" height="4.15"/><path class="cls-3" d="M446.54,90h-7.6V84.23h7.6Zm-6-1.59H445V85.82h-4.44Z"/><rect class="cls-3" x="434.36" y="71.51" width="8.49" height="4.15"/><path class="cls-3" d="M443.65,76.45H433.57V70.72h10.08Zm-8.49-1.58h6.91V72.31h-6.91Z"/><polygon class="cls-3" points="439.4 71.75 437.82 71.75 437.82 67.63 423.76 67.63 423.76 71.75 422.17 71.75 422.17 66.04 439.4 66.04 439.4 71.75"/><rect class="cls-3" x="430.02" y="61.69" width="1.58" height="5.34"/><rect class="cls-3" x="422.17" y="74.87" width="1.58" height="6.75"/><polygon class="cls-3" points="443.54 85.31 441.95 85.31 441.95 82.01 419.54 82.01 419.54 85.31 417.96 85.31 417.96 80.42 443.54 80.42 443.54 85.31"/><rect class="cls-3" x="429.96" y="80.42" width="1.58" height="4.9"/><path class="cls-5" d="M631.34,85.06v-8h-5.86A18.25,18.25,0,0,0,623,71.18L627.18,67l-5.64-5.65-4.15,4.15a18.41,18.41,0,0,0-5.9-2.44V57.22h-8v5.87a18.36,18.36,0,0,0-5.89,2.44l-4.15-4.15L587.82,67,592,71.18a18.45,18.45,0,0,0-2.44,5.89h-5.87v8h5.87A18.45,18.45,0,0,0,592,91l-4.15,4.15,5.65,5.64,4.15-4.15A18.15,18.15,0,0,0,603.51,99v5.86h8V99a18.21,18.21,0,0,0,5.9-2.45l4.15,4.15,5.64-5.64L623,91a18.25,18.25,0,0,0,2.45-5.89Z"/><path class="cls-6" d="M616.42,81.06a8.92,8.92,0,1,1-8.92-8.91A8.92,8.92,0,0,1,616.42,81.06Z"/><path class="cls-5" d="M624.4,64.39,623.11,59l-4,.94a12.78,12.78,0,0,0-2.61-3.62l2.16-3.5-4.76-2.94-2.16,3.5a12.79,12.79,0,0,0-4.41-.72l-.94-4L601,49.89l.94,4a12.87,12.87,0,0,0-3.62,2.62l-3.5-2.16-2.94,4.75,3.5,2.17a12.52,12.52,0,0,0-.72,4.41l-4,.94,1.28,5.44,4-.94a12.82,12.82,0,0,0,2.62,3.62l-2.16,3.5,4.75,2.94,2.16-3.5a12.83,12.83,0,0,0,4.41.72l1,4,5.44-1.28-.94-4a13,13,0,0,0,3.62-2.62l3.5,2.16,2.94-4.75-3.5-2.17a12.75,12.75,0,0,0,.72-4.41Z"/><path class="cls-6" d="M613.58,64.07a6.25,6.25,0,1,1-7.51-4.64A6.23,6.23,0,0,1,613.58,64.07Z"/><rect class="cls-7" x="937.77" y="57.8" width="35.79" height="35.79" rx="4.67"/><path class="cls-8" d="M955.66,84.82a3,3,0,0,1-2.23-1l-15.3-16.21a3.07,3.07,0,1,1,4.47-4.21l13,13.8L986.13,44a3.07,3.07,0,1,1,4.53,4.15L957.92,83.83a3,3,0,0,1-2.24,1Z"/><rect class="cls-9" x="38.19" y="58.14" width="57.21" height="35.11" rx="6.52" transform="translate(142.49 8.9) rotate(90)"/><rect class="cls-9" x="46.81" y="56.05" width="39.98" height="35.11" transform="translate(140.4 6.8) rotate(90)"/><path class="cls-3" d="M70.17,100.07H63.51a1.41,1.41,0,1,1,0-2.82h6.66a1.41,1.41,0,1,1,0,2.82Z"/><path class="cls-3" d="M63.37,81.8a1.4,1.4,0,0,1-1-.39l-5.48-5.2a1.41,1.41,0,1,1,1.95-2l4.3,4.09,11.48-16.1a1.41,1.41,0,1,1,2.29,1.64L64.52,81.21a1.43,1.43,0,0,1-1,.58Z"/><rect class="cls-10" x="776.15" y="46.27" width="18.63" height="54.75" transform="translate(177.98 576.98) rotate(-45)"/><polygon class="cls-11" points="798.24 99.59 819.92 108.1 811.41 86.41 798.24 99.59"/><rect class="cls-11" x="762.85" y="51.78" width="18.63" height="17.13" transform="translate(183.49 563.68) rotate(-45)"/><text class="cls-12" transform="translate(0 166.8)">REQUEST CALL</text><text class="cls-12" transform="translate(179.68 166.8)">CONSULTATION</text><text class="cls-12" transform="translate(383.63 166.8)">PLANNING</text><text class="cls-12" transform="translate(537.68 166.79)">WORK PROCESS</text><text class="cls-12" transform="translate(731.04 166.8)">CORRECTING</text><text class="cls-12" transform="translate(924.85 166.8)">DELIVER</text></g></g></svg>