<svg xmlns="http://www.w3.org/2000/svg" viewBox="0 0 77.74 77.74"><defs><style>.cls-1{fill:#afafaf;}.cls-2{fill:#00a9ff;}.cls-3{fill:#fff;}</style></defs><g id="Layer_2" data-name="Layer 2"><g id="Layer_2-2" data-name="Layer 2"><path class="cls-1" d="M77.74,38.87A38.87,38.87,0,1,0,38.87,77.74,38.88,38.88,0,0,0,77.74,38.87Z"/><path class="cls-2" d="M77.74,38.87A38.87,38.87,0,1,0,38.87,77.74,38.88,38.88,0,0,0,77.74,38.87Z"/><path class="cls-3" d="M61.42,27.21a18.92,18.92,0,0,1-5,1.26,9.34,9.34,0,0,0,4-4.77.15.15,0,0,0-.21-.18,19,19,0,0,1-5.66,2.07,9.5,9.5,0,0,0-6.9-2.94,9.32,9.32,0,0,0-9.2,11.42A27,27,0,0,1,19.1,24.41a.05.05,0,0,0-.09,0,9.2,9.2,0,0,0,2.8,12.23c.05,0,0,.11,0,.11a9.63,9.63,0,0,1-4-1.12.05.05,0,0,0-.07,0,12.93,12.93,0,0,0,.64,3.4,9.54,9.54,0,0,0,6.94,5.75,9.85,9.85,0,0,1-2.5.33A9.58,9.58,0,0,1,21.09,45a.05.05,0,0,0-.06.07,9.46,9.46,0,0,0,8.64,6.37.05.05,0,0,1,0,.1,19.09,19.09,0,0,1-11.6,3.88,20.78,20.78,0,0,1-2.25-.12,27.09,27.09,0,0,0,14.47,4.17A26.29,26.29,0,0,0,48,53.09a27.25,27.25,0,0,0,8.54-14.45A25.82,25.82,0,0,0,57.2,33c0-.4,0-.81,0-1.2a19.12,19.12,0,0,0,4.43-4.41A.14.14,0,0,0,61.42,27.21Z"/></g></g></svg>