<svg xmlns="http://www.w3.org/2000/svg" viewBox="0 0 77.74 77.73"><defs><style>.cls-1{fill:#afafaf;}.cls-2{fill:#00b456;}.cls-3{fill:#fff;}</style></defs><g id="Layer_2" data-name="Layer 2"><g id="Layer_2-2" data-name="Layer 2"><path class="cls-1" d="M77.74,38.87A38.87,38.87,0,1,0,38.87,77.73,38.87,38.87,0,0,0,77.74,38.87Z"/><path class="cls-2" d="M77.74,38.87A38.87,38.87,0,1,0,38.87,77.73,38.87,38.87,0,0,0,77.74,38.87Z"/><path class="cls-3" d="M62.23,35.65a23,23,0,0,0-45.88-.43c0,.34,0,.67,0,1a22.59,22.59,0,0,0,3.13,11.49.34.34,0,0,1,0,.28L15.42,60a.21.21,0,0,0,.26.27l12.51-4a.33.33,0,0,1,.26,0A23,23,0,0,0,62.24,36.23C62.24,36.06,62.23,35.65,62.23,35.65ZM23.79,46.49a18.18,18.18,0,0,1-3.15-10.26c0-.59,0-1.18.09-1.79a18.66,18.66,0,0,1,37.14.34c0,.57.06,1,.06,1.45A18.65,18.65,0,0,1,31.41,53c-.69-.32-2-1.1-2.4-1.34a.32.32,0,0,0-.27,0l-6.3,2a.19.19,0,0,1-.23-.24l2-6a.34.34,0,0,0-.05-.31Z"/><path class="cls-3" d="M50.2,41.3a4.77,4.77,0,0,0-1.13-.7c-.39-.2-3.27-1.61-3.81-1.8s-1-.36-1.46.34c-.35.53-1.4,1.75-1.74,2.14s-.46.36-1,.09a19.11,19.11,0,0,1-4.42-2.7,16.35,16.35,0,0,1-3-3.76c-.24-.41-.08-.6.22-.9s1-1.17,1.06-1.26.36-.67.36-.67a1.22,1.22,0,0,0,0-1.13c-.1-.18-1.57-3.73-1.71-4.06-.42-1-.87-1.06-1.3-1-.21,0-2.16,0-2.78.7l-.11.12a6.16,6.16,0,0,0-1.88,4.58,6.84,6.84,0,0,0,.29,1.92,12.32,12.32,0,0,0,2,3.88s1.45,2,2.16,2.83a19.65,19.65,0,0,0,7.38,5.53C42.56,46.7,44,47,44.76,47A10.68,10.68,0,0,0,46,46.8c1-.09,3.39-1.33,3.89-2.73A4.49,4.49,0,0,0,50.2,41.3Z"/></g></g></svg>